{"glyphs":{"0":{"ha":638,"x_min":57,"x_max":581,"o":"m 382 181 l 382 703 q 344 738 382 738 l 293 738 q 256 703 256 738 l 256 181 q 293 146 256 146 l 344 146 q 382 181 382 146 m 581 731 l 581 154 q 406 0 581 0 l 233 0 q 57 154 57 0 l 57 731 q 233 883 57 883 l 406 883 q 581 731 581 883 z "},"1":{"ha":401,"x_min":26,"x_max":340,"o":"m 340 883 l 340 0 l 142 0 l 142 738 l 26 738 l 26 883 l 340 883 z "},"2":{"ha":576,"x_min":33,"x_max":539,"o":"m 232 703 l 232 586 l 33 586 l 33 731 q 208 883 33 883 l 358 883 q 536 731 536 883 l 536 618 q 517 508 536 554 q 457 406 499 461 l 279 146 l 539 146 l 539 0 l 38 0 l 38 135 l 282 463 q 328 539 317 506 q 340 621 340 572 l 340 703 q 303 738 340 738 l 268 738 q 232 703 232 738 z "},"3":{"ha":599,"x_min":38,"x_max":543,"o":"m 235 703 l 235 599 l 38 599 l 38 731 q 213 883 38 883 l 367 883 q 543 731 543 883 l 543 579 q 481 450 543 476 q 543 331 543 426 l 543 154 q 367 0 543 0 l 213 0 q 38 154 38 0 l 38 283 l 235 283 l 235 181 q 272 146 235 146 l 310 146 q 347 181 347 146 l 347 344 q 339 372 347 364 q 310 379 331 379 l 201 379 l 201 517 l 310 517 q 339 524 331 517 q 347 550 347 532 l 347 703 q 310 738 347 738 l 272 738 q 235 703 235 738 z "},"4":{"ha":628,"x_min":13,"x_max":628,"o":"m 628 313 l 628 165 l 540 165 l 540 0 l 353 0 l 353 165 l 13 165 l 13 338 l 314 883 l 514 883 l 190 313 l 353 313 l 353 486 l 540 486 l 540 313 l 628 313 z "},"5":{"ha":618,"x_min":56,"x_max":574,"o":"m 260 571 l 397 571 q 574 418 574 571 l 574 154 q 397 0 574 0 l 232 0 q 56 154 56 0 l 56 299 l 254 299 l 254 181 q 292 146 254 146 l 340 146 q 378 181 378 146 l 378 390 q 340 425 378 425 l 64 425 l 64 883 l 564 883 l 564 738 l 260 738 l 260 571 z "},"6":{"ha":626,"x_min":57,"x_max":579,"o":"m 251 521 l 403 521 q 579 368 579 521 l 579 154 q 403 0 579 0 l 233 0 q 57 154 57 0 l 57 731 q 233 883 57 883 l 393 883 q 569 731 569 883 l 569 611 l 375 611 l 375 703 q 338 738 375 738 l 288 738 q 251 703 251 738 l 251 521 m 385 181 l 385 346 q 347 381 385 381 l 251 381 l 251 181 q 288 146 251 146 l 347 146 q 385 181 385 146 z "},"7":{"ha":517,"x_min":13,"x_max":510,"o":"m 510 883 l 510 772 l 253 0 l 49 0 l 299 728 l 13 728 l 13 883 l 510 883 z "},"8":{"ha":635,"x_min":56,"x_max":579,"o":"m 579 731 l 579 578 q 517 449 579 475 q 579 328 579 424 l 579 154 q 404 0 579 0 l 231 0 q 56 154 56 0 l 56 328 q 117 449 56 424 q 56 578 56 475 l 56 731 q 231 883 56 883 l 404 883 q 579 731 579 883 m 389 179 l 389 349 q 381 376 389 368 q 351 383 372 383 l 283 383 q 254 376 263 383 q 246 349 246 368 l 246 179 q 254 152 246 160 q 283 144 263 144 l 351 144 q 381 152 372 144 q 389 179 389 160 m 389 544 l 389 706 q 381 731 389 724 q 351 739 372 739 l 283 739 q 254 731 263 739 q 246 706 246 724 l 246 544 q 254 519 246 526 q 283 511 263 511 l 351 511 q 381 519 372 511 q 389 544 389 526 z "},"9":{"ha":625,"x_min":46,"x_max":568,"o":"m 222 883 l 392 883 q 568 731 568 883 l 568 154 q 392 0 568 0 l 231 0 q 54 154 54 0 l 54 268 l 247 268 l 247 181 q 285 146 247 146 l 338 146 q 374 181 374 146 l 374 349 l 222 349 q 46 501 46 349 l 46 731 q 222 883 46 883 m 278 485 l 374 485 l 374 703 q 338 738 374 738 l 278 738 q 240 703 240 738 l 240 519 q 249 492 240 500 q 278 485 257 485 z "},"\u0000":{"ha":0,"x_min":0,"x_max":0,"o":""},"\r":{"ha":0,"x_min":0,"x_max":0,"o":""}," ":{"ha":249,"x_min":0,"x_max":0,"o":""},"!":{"ha":365,"x_min":69,"x_max":296,"o":"m 82 0 l 82 206 l 283 206 l 283 0 l 82 0 m 69 883 l 296 883 l 263 308 l 104 308 l 69 883 z "},"\"":{"ha":528,"x_min":54,"x_max":475,"o":"m 299 883 l 475 883 l 475 536 l 299 536 l 299 883 m 54 883 l 229 883 l 229 536 l 54 536 l 54 883 z "},"#":{"ha":846,"x_min":42,"x_max":804,"o":"m 804 544 l 685 544 l 643 339 l 746 339 l 746 207 l 615 207 l 572 0 l 404 0 l 447 207 l 301 207 l 258 0 l 90 0 l 133 207 l 42 207 l 42 339 l 161 339 l 203 544 l 100 544 l 100 675 l 231 675 l 274 882 l 442 882 l 399 675 l 544 675 l 588 882 l 756 882 l 713 675 l 804 675 l 804 544 m 475 339 l 517 544 l 371 544 l 329 339 l 475 339 z "},"$":{"ha":614,"x_min":46,"x_max":568,"o":"m 282 514 l 401 514 q 529 476 490 514 q 568 363 568 438 l 568 154 q 400 0 568 4 l 400 -112 l 213 -112 l 213 0 q 49 154 49 6 l 49 268 l 247 268 l 247 181 q 285 146 247 146 l 332 146 q 369 181 369 146 l 369 340 q 361 366 369 358 q 332 374 353 374 l 210 374 q 46 529 46 374 l 46 731 q 213 883 46 879 l 213 997 l 400 997 l 400 883 q 565 731 565 879 l 565 615 l 367 615 l 367 703 q 329 738 367 738 l 282 738 q 244 703 244 738 l 244 547 q 253 522 244 529 q 282 514 261 514 z "},"%":{"ha":1113,"x_min":38,"x_max":1075,"o":"m 715 883 l 864 883 l 397 0 l 251 0 l 715 883 m 915 150 l 915 358 q 883 389 915 389 l 858 389 q 834 382 840 389 q 828 358 828 375 l 828 150 q 834 127 828 133 q 858 121 840 121 l 883 121 q 908 127 901 121 q 915 150 915 133 m 285 525 l 285 733 q 278 757 285 750 q 254 764 272 764 l 228 764 q 203 757 210 764 q 197 733 197 750 l 197 525 q 203 502 197 508 q 228 496 210 496 l 254 496 q 278 502 272 496 q 285 525 285 508 m 1075 382 l 1075 126 q 932 0 1075 0 l 810 0 q 667 126 667 0 l 667 382 q 810 508 667 508 l 932 508 q 1075 382 1075 508 m 444 757 l 444 501 q 303 375 444 375 l 179 375 q 38 501 38 375 l 38 757 q 179 883 38 883 l 303 883 q 444 757 444 883 z "},"&":{"ha":782,"x_min":46,"x_max":842,"o":"m 560 0 l 222 0 q 46 154 46 0 l 46 258 q 69 353 46 319 q 189 443 93 386 q 112 540 135 503 q 89 621 89 578 l 89 731 q 265 883 89 883 l 417 883 q 590 731 590 883 l 590 622 q 560 508 590 549 q 460 424 531 468 l 433 407 l 586 236 l 586 338 l 743 338 l 743 154 q 728 78 743 113 l 842 -50 l 642 -50 l 594 1 q 560 0 583 0 m 283 715 l 283 611 q 325 526 283 572 q 385 572 369 554 q 401 619 401 589 l 401 715 q 393 742 401 735 q 364 750 385 750 l 319 750 q 292 742 300 750 q 283 715 283 735 m 272 136 l 471 136 l 297 326 l 269 310 q 235 247 235 289 l 235 171 q 272 136 235 136 z "},"'":{"ha":294,"x_min":54,"x_max":240,"o":"m 54 883 l 240 883 l 240 536 l 54 536 l 54 883 z "},"(":{"ha":429,"x_min":60,"x_max":431,"o":"m 60 626 q 151 986 60 861 q 415 1111 243 1111 l 431 1111 l 431 947 l 417 946 q 299 864 340 943 q 257 629 257 785 l 257 247 q 417 -71 257 -64 l 431 -71 l 431 -236 l 415 -236 q 151 -110 243 -236 q 60 250 60 15 l 60 626 z "},")":{"ha":429,"x_min":-3,"x_max":369,"o":"m 369 250 q 277 -111 369 14 q 13 -236 185 -236 l -3 -236 l -3 -71 l 13 -71 q 171 247 171 -64 l 171 629 q 13 946 171 942 l -3 947 l -3 1111 l 13 1111 q 278 986 186 1111 q 369 626 369 861 l 369 250 z "},"*":{"ha":506,"x_min":24,"x_max":482,"o":"m 179 851 l 179 883 l 326 883 l 326 850 q 314 750 326 800 q 438 804 354 779 l 482 664 q 351 635 394 638 q 422 561 389 607 l 442 535 l 322 447 l 301 475 q 254 564 272 514 q 185 447 238 519 l 65 533 q 156 635 119 606 q 54 654 101 638 l 24 664 l 69 803 q 193 750 150 778 q 179 851 179 794 z "},"+":{"ha":657,"x_min":25,"x_max":632,"o":"m 632 514 l 632 367 l 422 367 l 422 154 l 235 154 l 235 367 l 25 367 l 25 514 l 235 514 l 235 726 l 422 726 l 422 514 l 632 514 z "},",":{"ha":304,"x_min":51,"x_max":253,"o":"m 51 206 l 253 206 l 253 94 l 114 -201 l 51 -201 l 51 206 z "},"-":{"ha":461,"x_min":43,"x_max":418,"o":"m 43 347 l 43 483 l 418 483 l 418 347 l 43 347 z "},".":{"ha":304,"x_min":51,"x_max":253,"o":"m 51 0 l 51 206 l 253 206 l 253 0 l 51 0 z "},"/":{"ha":560,"x_min":-17,"x_max":561,"o":"m 393 974 l 561 974 l 153 -115 l -17 -115 l 393 974 z "},":":{"ha":304,"x_min":51,"x_max":253,"o":"m 51 532 l 253 532 l 253 156 l 51 156 l 51 532 z "},";":{"ha":304,"x_min":51,"x_max":253,"o":"m 51 481 l 51 688 l 253 688 l 253 481 l 51 481 m 51 206 l 253 206 l 253 94 l 114 -201 l 51 -201 l 51 206 z "},"<":{"ha":681,"x_min":38,"x_max":644,"o":"m 644 557 l 226 443 l 644 328 l 644 168 l 38 358 l 38 533 l 644 715 l 644 557 z "},"=":{"ha":681,"x_min":38,"x_max":644,"o":"m 38 226 l 38 376 l 644 376 l 644 226 l 38 226 m 38 504 l 38 654 l 644 654 l 644 504 l 38 504 z "},">":{"ha":681,"x_min":38,"x_max":644,"o":"m 454 443 l 38 557 l 38 715 l 644 533 l 644 358 l 38 168 l 38 328 l 454 443 z "},"?":{"ha":585,"x_min":28,"x_max":546,"o":"m 204 883 l 371 883 q 546 731 546 883 l 546 549 q 371 396 546 396 l 368 396 l 360 308 l 194 308 l 176 510 l 311 510 q 340 517 332 510 q 347 544 347 525 l 347 713 q 340 740 347 732 q 311 747 332 747 l 263 747 q 226 713 226 747 l 226 617 l 28 617 l 28 731 q 204 883 28 883 m 174 0 l 174 206 l 375 206 l 375 0 l 174 0 z "},"@":{"ha":1110,"x_min":75,"x_max":1046,"o":"m 507 444 l 507 271 q 514 246 507 253 q 540 239 521 239 l 578 239 q 615 279 615 239 l 615 435 q 578 476 615 476 l 540 476 q 515 469 522 476 q 507 444 507 463 m 336 460 q 486 603 336 603 l 514 603 q 618 532 599 603 l 618 603 l 778 603 l 778 238 l 839 238 q 868 245 860 238 q 876 272 876 253 l 876 664 q 839 699 876 699 l 286 699 q 249 664 249 699 l 249 44 q 257 19 249 26 q 286 11 265 11 l 779 11 l 779 -126 l 236 -126 q 75 26 75 -126 l 75 682 q 236 836 75 836 l 886 836 q 1046 682 1046 836 l 1046 265 q 885 111 1046 111 l 622 111 l 622 192 q 514 111 607 111 l 486 111 q 336 254 336 111 l 336 460 z "},"A":{"ha":671,"x_min":7,"x_max":665,"o":"m 465 0 l 435 160 l 233 160 l 203 0 l 7 0 l 207 883 l 460 883 l 665 0 l 465 0 m 261 304 l 406 304 l 333 678 l 261 304 z "},"B":{"ha":661,"x_min":63,"x_max":606,"o":"m 410 547 l 410 713 q 372 747 410 747 l 258 747 l 258 513 l 372 513 q 410 547 410 513 m 410 171 l 410 343 q 401 369 410 361 q 372 376 393 376 l 258 376 l 258 136 l 372 136 q 410 171 410 136 m 63 883 l 429 883 q 606 731 606 883 l 606 575 q 543 446 606 472 q 606 326 606 422 l 606 154 q 429 0 606 0 l 63 0 l 63 883 z "},"C":{"ha":625,"x_min":56,"x_max":585,"o":"m 585 574 l 385 574 l 385 713 q 349 747 385 747 l 292 747 q 254 713 254 747 l 254 171 q 263 144 254 151 q 292 136 271 136 l 349 136 q 376 144 368 136 q 385 171 385 151 l 385 306 l 585 306 l 585 153 q 408 0 585 0 l 231 0 q 56 153 56 0 l 56 731 q 231 883 56 883 l 408 883 q 585 731 585 883 l 585 574 z "},"D":{"ha":674,"x_min":72,"x_max":617,"o":"m 72 883 l 440 883 q 617 731 617 883 l 617 154 q 440 0 617 0 l 72 0 l 72 883 m 418 171 l 418 713 q 381 747 418 747 l 271 747 l 271 136 l 381 136 q 418 171 418 136 z "},"E":{"ha":568,"x_min":63,"x_max":544,"o":"m 261 146 l 544 146 l 544 0 l 63 0 l 63 883 l 533 883 l 533 738 l 261 738 l 261 522 l 493 522 l 493 376 l 261 376 l 261 146 z "},"F":{"ha":554,"x_min":63,"x_max":538,"o":"m 538 738 l 261 738 l 261 494 l 493 494 l 493 357 l 261 357 l 261 0 l 63 0 l 63 883 l 538 883 l 538 738 z "},"G":{"ha":633,"x_min":56,"x_max":585,"o":"m 585 597 l 386 597 l 386 713 q 349 747 386 747 l 292 747 q 254 713 254 747 l 254 171 q 263 144 254 151 q 292 136 271 136 l 349 136 q 378 144 369 136 q 386 171 386 151 l 386 343 l 317 343 l 317 475 l 585 475 l 585 153 q 410 0 585 0 l 231 0 q 56 153 56 0 l 56 731 q 231 883 56 883 l 410 883 q 585 731 585 883 l 585 597 z "},"H":{"ha":694,"x_min":63,"x_max":632,"o":"m 436 883 l 632 883 l 632 0 l 436 0 l 436 364 l 258 364 l 258 0 l 63 0 l 63 883 l 258 883 l 258 510 l 436 510 l 436 883 z "},"I":{"ha":331,"x_min":67,"x_max":264,"o":"m 67 883 l 264 883 l 264 0 l 67 0 l 67 883 z "},"J":{"ha":569,"x_min":17,"x_max":513,"o":"m 17 331 l 215 331 l 215 181 q 253 146 215 146 l 276 146 q 314 181 314 146 l 314 883 l 513 883 l 513 154 q 338 0 513 0 l 192 0 q 17 154 17 0 l 17 331 z "},"K":{"ha":660,"x_min":63,"x_max":649,"o":"m 649 883 l 471 447 l 649 0 l 435 0 l 264 447 l 435 883 l 649 883 m 63 0 l 63 883 l 260 883 l 260 0 l 63 0 z "},"L":{"ha":515,"x_min":63,"x_max":514,"o":"m 260 146 l 514 146 l 514 0 l 63 0 l 63 883 l 260 883 l 260 146 z "},"M":{"ha":850,"x_min":63,"x_max":788,"o":"m 238 0 l 63 0 l 63 883 l 279 883 l 425 383 l 571 883 l 788 883 l 788 0 l 613 0 l 613 593 l 499 192 l 351 192 l 238 592 l 238 0 z "},"N":{"ha":675,"x_min":63,"x_max":614,"o":"m 432 883 l 614 883 l 614 0 l 436 0 l 243 529 l 243 0 l 63 0 l 63 883 l 242 883 l 432 356 l 432 883 z "},"O":{"ha":651,"x_min":57,"x_max":594,"o":"m 233 883 l 419 883 q 594 731 594 883 l 594 154 q 419 0 594 0 l 233 0 q 57 154 57 0 l 57 731 q 233 883 57 883 m 396 181 l 396 703 q 360 738 396 738 l 293 738 q 256 703 256 738 l 256 181 q 293 146 256 146 l 360 146 q 396 181 396 146 z "},"P":{"ha":633,"x_min":63,"x_max":601,"o":"m 63 883 l 426 883 q 601 731 601 883 l 601 463 q 426 308 601 308 l 260 308 l 260 0 l 63 0 l 63 883 m 403 489 l 403 703 q 367 738 403 738 l 260 738 l 260 454 l 367 454 q 403 489 403 454 z "},"Q":{"ha":651,"x_min":57,"x_max":650,"o":"m 233 0 q 57 154 57 0 l 57 731 q 233 883 57 883 l 419 883 q 594 731 594 883 l 594 154 q 535 25 594 63 l 650 -107 l 429 -107 l 338 0 l 233 0 m 256 703 l 256 181 q 293 146 256 146 l 360 146 q 396 181 396 146 l 396 703 q 360 738 396 738 l 293 738 q 256 703 256 738 z "},"R":{"ha":651,"x_min":63,"x_max":646,"o":"m 260 331 l 260 0 l 63 0 l 63 883 l 426 883 q 601 731 601 883 l 601 483 q 490 336 601 361 l 646 0 l 433 0 l 294 331 l 260 331 m 260 738 l 260 471 l 367 471 q 394 478 386 471 q 403 504 403 486 l 403 703 q 367 738 403 738 l 260 738 z "},"S":{"ha":614,"x_min":46,"x_max":568,"o":"m 369 181 l 369 340 q 361 366 369 358 q 332 374 353 374 l 210 374 q 46 529 46 374 l 46 731 q 221 883 46 883 l 390 883 q 565 731 565 883 l 565 615 l 367 615 l 367 703 q 329 738 367 738 l 282 738 q 244 703 244 738 l 244 547 q 253 522 244 529 q 282 514 261 514 l 401 514 q 529 476 490 514 q 568 363 568 438 l 568 154 q 393 0 568 0 l 225 0 q 49 154 49 0 l 49 268 l 247 268 l 247 181 q 285 146 247 146 l 332 146 q 369 181 369 146 z "},"T":{"ha":536,"x_min":7,"x_max":529,"o":"m 529 883 l 529 738 l 367 738 l 367 0 l 168 0 l 168 738 l 7 738 l 7 883 l 529 883 z "},"U":{"ha":660,"x_min":61,"x_max":599,"o":"m 400 883 l 599 883 l 599 154 q 422 0 599 0 l 236 0 q 61 154 61 0 l 61 883 l 260 883 l 260 181 q 296 146 260 146 l 363 146 q 400 181 400 146 l 400 883 z "},"V":{"ha":651,"x_min":8,"x_max":642,"o":"m 436 883 l 642 883 l 447 0 l 204 0 l 8 883 l 215 883 l 325 228 l 436 883 z "},"W":{"ha":1042,"x_min":14,"x_max":1028,"o":"m 831 883 l 1028 883 l 857 0 l 619 0 l 521 578 l 422 0 l 185 0 l 14 883 l 219 883 l 303 224 l 419 883 l 621 883 l 738 224 l 831 883 z "},"X":{"ha":646,"x_min":3,"x_max":643,"o":"m 429 450 l 643 0 l 421 0 l 318 281 l 214 0 l 3 0 l 207 450 l 10 883 l 233 883 l 318 624 l 403 883 l 617 883 l 429 450 z "},"Y":{"ha":638,"x_min":3,"x_max":636,"o":"m 424 0 l 225 0 l 225 286 l 3 883 l 206 883 l 324 468 l 433 883 l 636 883 l 424 285 l 424 0 z "},"Z":{"ha":565,"x_min":22,"x_max":543,"o":"m 543 883 l 543 738 l 228 146 l 535 146 l 535 0 l 22 0 l 22 146 l 338 738 l 39 738 l 39 883 l 543 883 z "},"[":{"ha":438,"x_min":65,"x_max":396,"o":"m 396 949 l 264 949 l 264 -76 l 396 -76 l 396 -222 l 65 -222 l 65 1094 l 396 1094 l 396 949 z "},"\\":{"ha":560,"x_min":-1,"x_max":576,"o":"m -1 974 l 168 974 l 576 -115 l 407 -115 l -1 974 z "},"]":{"ha":438,"x_min":32,"x_max":363,"o":"m 363 1094 l 363 -222 l 32 -222 l 32 -76 l 164 -76 l 164 949 l 32 949 l 32 1094 l 363 1094 z "},"^":{"ha":869,"x_min":108,"x_max":718,"o":"m 283 931 l 543 931 l 718 408 l 517 408 l 413 763 l 310 408 l 108 408 l 283 931 z "},"_":{"ha":658,"x_min":0,"x_max":658,"o":"m 0 -193 l 0 -57 l 658 -57 l 658 -193 l 0 -193 z "},"`":{"ha":653,"x_min":144,"x_max":469,"o":"m 343 931 l 469 732 l 314 732 l 144 931 l 343 931 z "},"a":{"ha":603,"x_min":46,"x_max":544,"o":"m 354 688 l 544 688 l 544 0 l 351 0 l 351 68 q 242 0 331 0 l 208 0 q 46 154 46 0 l 46 533 q 208 688 46 688 l 242 688 q 354 610 335 688 l 354 688 m 278 146 l 310 146 q 351 190 351 146 l 351 497 q 310 542 351 542 l 278 542 q 240 507 240 542 l 240 181 q 278 146 240 146 z "},"b":{"ha":603,"x_min":58,"x_max":557,"o":"m 360 688 l 394 688 q 557 535 557 688 l 557 154 q 394 0 557 0 l 360 0 q 249 78 268 0 l 249 0 l 58 0 l 58 929 l 251 929 l 251 619 q 360 688 272 688 m 363 181 l 363 507 q 354 534 363 526 q 325 542 346 542 l 292 542 q 251 497 251 542 l 251 190 q 292 146 251 146 l 325 146 q 363 181 363 146 z "},"c":{"ha":574,"x_min":46,"x_max":540,"o":"m 540 440 l 351 440 l 351 507 q 314 542 351 542 l 278 542 q 240 507 240 542 l 240 181 q 278 146 240 146 l 314 146 q 351 181 351 146 l 351 247 l 540 247 l 540 154 q 364 0 540 0 l 222 0 q 46 154 46 0 l 46 533 q 222 688 46 688 l 364 688 q 540 533 540 688 l 540 440 z "},"d":{"ha":603,"x_min":46,"x_max":544,"o":"m 351 929 l 544 929 l 544 0 l 354 0 l 354 78 q 242 0 335 0 l 208 0 q 46 154 46 0 l 46 535 q 208 688 46 688 l 242 688 q 351 619 331 688 l 351 929 m 278 146 l 310 146 q 351 190 351 146 l 351 497 q 310 542 351 542 l 278 542 q 249 534 257 542 q 240 507 240 526 l 240 181 q 278 146 240 146 z "},"e":{"ha":596,"x_min":49,"x_max":557,"o":"m 224 688 l 381 688 q 557 533 557 688 l 557 290 l 233 290 l 233 172 q 242 147 233 154 q 271 139 250 139 l 333 139 q 361 147 353 139 q 369 175 369 156 l 369 221 l 556 221 l 556 154 q 379 0 556 0 l 224 0 q 49 154 49 0 l 49 533 q 224 688 49 688 m 233 404 l 371 404 l 371 515 q 363 541 371 533 q 335 549 354 549 l 271 549 q 242 541 250 549 q 233 515 233 533 l 233 404 z "},"f":{"ha":388,"x_min":13,"x_max":381,"o":"m 381 786 l 313 786 q 275 751 275 786 l 275 688 l 381 688 l 381 542 l 275 542 l 275 0 l 82 0 l 82 542 l 13 542 l 13 688 l 82 688 l 82 776 q 257 929 82 929 l 381 929 l 381 786 z "},"g":{"ha":603,"x_min":46,"x_max":544,"o":"m 354 688 l 544 688 l 544 -31 q 369 -185 544 -185 l 75 -185 l 75 -43 l 314 -43 q 351 -8 351 -43 l 351 97 q 242 29 331 29 l 208 29 q 46 183 46 29 l 46 533 q 208 688 46 688 l 242 688 q 354 610 335 688 l 354 688 m 278 175 l 310 175 q 351 219 351 175 l 351 497 q 310 542 351 542 l 278 542 q 240 507 240 542 l 240 210 q 278 175 240 175 z "},"h":{"ha":610,"x_min":58,"x_max":557,"o":"m 360 688 l 394 688 q 557 533 557 688 l 557 0 l 363 0 l 363 507 q 325 542 363 542 l 292 542 q 251 497 251 542 l 251 0 l 58 0 l 58 929 l 251 929 l 251 619 q 360 688 272 688 z "},"i":{"ha":310,"x_min":54,"x_max":256,"o":"m 54 779 l 54 929 l 256 929 l 256 779 l 54 779 m 251 0 l 58 0 l 58 688 l 251 688 l 251 0 z "},"j":{"ha":310,"x_min":-18,"x_max":256,"o":"m 54 779 l 54 929 l 256 929 l 256 779 l 54 779 m 58 -8 l 58 688 l 251 688 l 251 -31 q 76 -185 251 -185 l -18 -185 l -18 -43 l 21 -43 q 58 -8 58 -43 z "},"k":{"ha":597,"x_min":58,"x_max":600,"o":"m 600 688 l 449 353 l 600 0 l 397 0 l 253 353 l 399 688 l 600 688 m 58 0 l 58 929 l 251 929 l 251 0 l 58 0 z "},"l":{"ha":310,"x_min":58,"x_max":251,"o":"m 251 0 l 58 0 l 58 929 l 251 929 l 251 0 z "},"m":{"ha":913,"x_min":58,"x_max":861,"o":"m 665 688 l 699 688 q 861 533 861 688 l 861 0 l 668 0 l 668 507 q 631 542 668 542 l 597 542 q 557 497 557 542 l 557 0 l 363 0 l 363 507 q 325 542 363 542 l 292 542 q 251 497 251 542 l 251 0 l 58 0 l 58 688 l 249 688 l 249 610 q 360 688 268 688 l 394 688 q 543 610 508 688 q 585 667 553 646 q 665 688 618 688 z "},"n":{"ha":610,"x_min":58,"x_max":557,"o":"m 360 688 l 394 688 q 557 533 557 688 l 557 0 l 363 0 l 363 507 q 325 542 363 542 l 292 542 q 251 497 251 542 l 251 0 l 58 0 l 58 688 l 249 688 l 249 610 q 360 688 268 688 z "},"o":{"ha":610,"x_min":51,"x_max":558,"o":"m 222 688 l 388 688 q 519 648 479 688 q 558 533 558 608 l 558 154 q 519 40 558 79 q 388 0 479 0 l 222 0 q 91 40 131 0 q 51 154 51 79 l 51 533 q 91 648 51 608 q 222 688 131 688 m 368 174 l 368 514 q 331 549 368 549 l 279 549 q 242 514 242 549 l 242 174 q 279 139 242 139 l 331 139 q 368 174 368 139 z "},"p":{"ha":603,"x_min":58,"x_max":557,"o":"m 360 688 l 394 688 q 557 533 557 688 l 557 154 q 394 0 557 0 l 360 0 q 251 68 272 0 l 251 -185 l 58 -185 l 58 688 l 249 688 l 249 610 q 360 688 268 688 m 363 181 l 363 507 q 325 542 363 542 l 292 542 q 251 497 251 542 l 251 190 q 292 146 251 146 l 325 146 q 363 181 363 146 z "},"q":{"ha":603,"x_min":46,"x_max":544,"o":"m 354 688 l 544 688 l 544 -185 l 351 -185 l 351 68 q 242 0 331 0 l 208 0 q 46 154 46 0 l 46 533 q 208 688 46 688 l 242 688 q 354 610 335 688 l 354 688 m 278 146 l 310 146 q 351 190 351 146 l 351 497 q 310 542 351 542 l 278 542 q 240 507 240 542 l 240 181 q 278 146 240 146 z "},"r":{"ha":414,"x_min":58,"x_max":407,"o":"m 383 692 l 407 692 l 407 524 l 339 524 q 251 426 251 524 l 251 0 l 58 0 l 58 688 l 249 688 l 249 589 q 294 663 260 635 q 383 692 329 692 z "},"s":{"ha":557,"x_min":39,"x_max":518,"o":"m 329 165 l 329 243 q 321 269 329 261 q 292 276 313 276 l 213 276 q 39 429 39 276 l 39 533 q 215 688 39 688 l 333 688 q 510 533 510 688 l 510 472 l 324 472 l 324 522 q 315 548 324 540 q 286 556 307 556 l 265 556 q 236 548 244 556 q 228 522 228 540 l 228 439 q 236 413 228 421 q 265 406 244 406 l 344 406 q 518 254 518 406 l 518 154 q 342 0 518 0 l 218 0 q 43 154 43 0 l 43 214 l 232 214 l 232 165 q 268 131 232 131 l 292 131 q 329 165 329 131 z "},"t":{"ha":376,"x_min":7,"x_max":363,"o":"m 363 542 l 272 542 l 272 182 q 310 149 272 149 l 363 149 l 363 0 l 254 0 q 79 154 79 0 l 79 542 l 7 542 l 7 688 l 79 688 l 79 815 l 272 815 l 272 688 l 363 688 l 363 542 z "},"u":{"ha":610,"x_min":53,"x_max":551,"o":"m 358 688 l 551 688 l 551 0 l 361 0 l 361 78 q 249 0 342 0 l 215 0 q 53 154 53 0 l 53 688 l 247 688 l 247 181 q 285 146 247 146 l 317 146 q 358 190 358 146 l 358 688 z "},"v":{"ha":563,"x_min":3,"x_max":561,"o":"m 196 688 l 282 194 l 368 688 l 561 688 l 403 0 l 160 0 l 3 688 l 196 688 z "},"w":{"ha":871,"x_min":7,"x_max":864,"o":"m 685 688 l 864 688 l 725 0 l 517 0 l 433 449 l 349 0 l 142 0 l 7 688 l 188 688 l 254 199 l 343 688 l 528 688 l 610 201 l 685 688 z "},"x":{"ha":565,"x_min":7,"x_max":564,"o":"m 393 354 l 564 0 l 365 0 l 281 217 l 200 0 l 8 0 l 169 351 l 7 688 l 210 688 l 281 483 l 350 688 l 546 688 l 393 354 z "},"y":{"ha":581,"x_min":4,"x_max":576,"o":"m 190 -185 l 86 -185 l 86 -40 l 172 -40 q 223 -30 204 -40 q 251 11 242 -19 l 258 39 l 176 39 l 4 688 l 206 688 l 297 210 l 381 688 l 576 688 l 414 -17 q 338 -142 390 -100 q 190 -185 286 -185 z "},"z":{"ha":492,"x_min":17,"x_max":475,"o":"m 475 140 l 475 0 l 17 0 l 17 140 l 260 547 l 33 547 l 33 688 l 465 688 l 465 547 l 219 140 l 475 140 z "},"{":{"ha":431,"x_min":18,"x_max":417,"o":"m 333 924 l 333 610 q 225 438 333 460 q 304 392 275 433 q 333 278 333 350 l 333 -50 q 371 -85 333 -85 l 417 -85 l 417 -221 l 306 -221 q 135 -58 135 -221 l 135 243 q 110 339 135 308 q 32 369 86 369 l 18 369 l 18 506 l 32 506 q 110 536 86 506 q 135 633 135 567 l 135 932 q 306 1094 135 1094 l 417 1094 l 417 958 l 371 958 q 333 924 333 958 z "},"|":{"ha":333,"x_min":72,"x_max":251,"o":"m 72 1110 l 251 1110 l 251 -229 l 72 -229 l 72 1110 z "},"}":{"ha":431,"x_min":13,"x_max":413,"o":"m 97 610 l 97 924 q 58 958 97 958 l 13 958 l 13 1094 l 124 1094 q 296 932 296 1094 l 296 633 q 319 535 296 565 q 397 506 343 506 l 413 506 l 413 369 l 397 369 q 319 339 343 369 q 296 243 296 308 l 296 -58 q 124 -221 296 -221 l 13 -221 l 13 -85 l 58 -85 q 97 -50 97 -85 l 97 278 q 126 392 97 350 q 204 438 154 433 q 97 610 97 458 z "},"~":{"ha":896,"x_min":115,"x_max":778,"o":"m 561 289 q 435 343 503 289 q 338 397 367 397 q 301 387 308 397 q 293 353 293 376 l 293 289 l 115 289 l 115 396 q 148 494 115 463 q 256 525 181 525 l 332 525 q 408 508 372 525 q 467 471 444 492 q 515 433 489 450 q 563 417 540 417 q 592 427 585 417 q 600 463 600 438 l 600 525 l 778 525 l 778 417 q 745 320 778 351 q 638 289 713 289 l 561 289 z "}," ":{"ha":249,"x_min":0,"x_max":0,"o":""},"¡":{"ha":365,"x_min":69,"x_max":296,"o":"m 296 -196 l 69 -196 l 104 379 l 263 379 l 296 -196 m 82 482 l 82 688 l 283 688 l 283 482 l 82 482 z "},"¢":{"ha":574,"x_min":46,"x_max":540,"o":"m 540 440 l 351 440 l 351 507 q 314 542 351 542 l 278 542 q 240 507 240 542 l 240 181 q 278 146 240 146 l 314 146 q 351 181 351 146 l 351 247 l 540 247 l 540 154 q 390 1 540 11 l 390 -110 l 203 -110 l 203 0 q 46 154 46 10 l 46 533 q 203 688 46 678 l 203 797 l 390 797 l 390 686 q 540 533 540 676 l 540 440 z "},"£":{"ha":640,"x_min":35,"x_max":615,"o":"m 615 146 l 615 0 l 35 0 l 35 138 q 85 168 74 142 q 97 258 97 194 l 97 351 l 35 351 l 35 488 l 97 488 l 97 731 q 274 883 97 883 l 433 883 q 610 731 610 883 l 610 601 l 411 601 l 411 703 q 374 738 411 738 l 333 738 q 296 703 296 738 l 296 488 l 493 488 l 493 351 l 296 351 l 296 251 q 260 146 296 172 l 615 146 z "},"¤":{"ha":768,"x_min":58,"x_max":693,"o":"m 438 700 l 481 699 l 575 793 l 693 674 l 626 607 q 647 486 647 564 l 647 346 q 632 239 647 281 l 693 178 l 575 60 l 497 138 q 438 133 469 133 l 322 133 q 256 139 282 133 l 175 60 l 58 178 l 125 246 q 113 346 113 289 l 113 486 q 131 601 113 556 l 58 674 l 175 793 l 272 697 q 322 700 303 700 l 438 700 m 358 264 l 399 264 q 467 280 449 264 q 486 350 486 296 l 486 481 q 467 552 486 535 q 399 569 447 569 l 358 569 q 290 552 310 569 q 271 481 271 535 l 271 350 q 290 280 271 296 q 358 264 308 264 z "},"¥":{"ha":658,"x_min":11,"x_max":647,"o":"m 615 500 l 615 374 l 464 374 l 443 314 l 615 314 l 615 188 l 433 188 l 433 0 l 235 0 l 235 188 l 49 188 l 49 314 l 224 314 l 201 374 l 49 374 l 49 500 l 154 500 l 11 883 l 214 883 l 332 475 l 446 883 l 647 883 l 510 500 l 615 500 z "},"¦":{"ha":333,"x_min":63,"x_max":261,"o":"m 261 524 l 63 524 l 63 1013 l 261 1013 l 261 524 m 63 358 l 261 358 l 261 -132 l 63 -132 l 63 358 z "},"§":{"ha":686,"x_min":79,"x_max":607,"o":"m 607 722 l 413 722 l 413 763 q 404 790 413 782 q 375 797 396 797 l 336 797 q 307 790 315 797 q 299 763 299 782 l 299 685 q 307 659 299 667 q 336 651 315 651 l 424 651 q 600 497 600 651 l 600 394 q 557 268 600 304 q 582 174 582 231 l 582 65 q 406 -87 582 -87 l 256 -87 q 79 65 79 -87 l 79 118 l 274 118 l 274 78 q 282 52 274 60 q 311 44 290 44 l 350 44 q 379 52 371 44 q 388 78 388 60 l 388 156 q 350 190 388 190 l 263 190 q 88 343 88 190 l 88 433 q 136 565 88 529 q 104 668 104 601 l 104 775 q 281 929 104 929 l 431 929 q 607 775 607 929 l 607 722 m 415 361 l 415 481 q 378 515 415 515 l 308 515 q 271 481 271 515 l 271 361 q 279 334 271 342 q 308 326 288 326 l 378 326 q 407 334 399 326 q 415 361 415 342 z "},"¨":{"ha":653,"x_min":81,"x_max":572,"o":"m 388 753 l 388 914 l 572 914 l 572 753 l 388 753 m 81 753 l 81 914 l 265 914 l 265 753 l 81 753 z "},"©":{"ha":1035,"x_min":50,"x_max":993,"o":"m 571 353 l 571 396 l 714 396 l 714 329 q 582 214 714 214 l 463 214 q 331 329 331 214 l 331 561 q 463 676 331 676 l 582 676 q 714 561 714 676 l 714 494 l 571 494 l 571 538 q 542 564 571 564 l 503 564 q 474 538 474 564 l 474 353 q 480 331 474 338 q 503 325 486 325 l 542 325 q 571 353 571 325 m 419 121 l 624 121 q 789 181 739 121 q 839 390 839 240 l 839 489 q 789 701 839 640 q 624 763 739 763 l 419 763 q 253 701 303 763 q 204 489 204 640 l 204 390 q 253 181 204 240 q 419 121 303 121 m 993 471 l 993 408 q 917 103 993 207 q 656 0 842 0 l 386 0 q 126 103 201 0 q 50 408 50 207 l 50 471 q 126 778 50 674 q 386 883 201 883 l 656 883 q 917 778 840 883 q 993 471 993 674 z "},"ª":{"ha":426,"x_min":35,"x_max":385,"o":"m 265 883 l 385 883 l 385 397 l 263 397 l 263 439 q 194 397 247 397 l 150 397 q 35 507 35 397 l 35 775 q 150 883 35 883 l 192 883 q 265 831 254 883 l 265 883 m 183 499 l 233 499 q 263 531 263 499 l 263 753 q 233 785 263 785 l 183 785 q 157 760 157 785 l 157 524 q 183 499 157 499 z "},"«":{"ha":690,"x_min":32,"x_max":667,"o":"m 479 138 l 322 351 l 479 563 l 667 563 l 510 351 l 667 138 l 479 138 m 190 138 l 32 351 l 190 563 l 376 563 l 221 351 l 376 138 l 190 138 z "},"¬":{"ha":732,"x_min":61,"x_max":657,"o":"m 657 569 l 657 172 l 519 172 l 519 372 l 61 372 l 61 569 l 657 569 z "},"­":{"ha":461,"x_min":43,"x_max":418,"o":"m 43 347 l 43 483 l 418 483 l 418 347 l 43 347 z "},"®":{"ha":631,"x_min":44,"x_max":586,"o":"m 339 771 l 339 824 q 329 833 339 833 l 296 833 l 296 761 l 329 761 q 339 771 339 761 m 228 882 l 347 882 q 407 831 407 882 l 407 763 q 372 713 407 722 l 424 610 l 350 610 l 306 710 l 296 710 l 296 610 l 228 610 l 228 882 m 257 565 l 374 565 q 469 597 442 565 q 497 715 497 629 l 497 772 q 469 892 497 858 q 374 925 440 925 l 257 925 q 162 892 190 925 q 133 772 133 858 l 133 715 q 161 597 133 629 q 257 565 189 565 m 586 761 l 586 726 q 542 551 586 611 q 392 492 499 492 l 238 492 q 88 551 131 492 q 44 726 44 610 l 44 761 q 88 938 44 878 q 238 999 131 999 l 392 999 q 542 938 499 999 q 586 761 586 878 z "},"¯":{"ha":653,"x_min":88,"x_max":564,"o":"m 88 769 l 88 896 l 564 896 l 564 769 l 88 769 z "},"°":{"ha":619,"x_min":63,"x_max":553,"o":"m 374 601 l 374 724 q 336 758 374 758 l 281 758 q 243 724 243 758 l 243 601 q 281 567 243 567 l 336 567 q 374 601 374 567 m 553 731 l 553 594 q 383 442 553 442 l 233 442 q 63 594 63 442 l 63 731 q 233 883 63 883 l 383 883 q 553 731 553 883 z "},"±":{"ha":681,"x_min":38,"x_max":644,"o":"m 435 649 l 644 649 l 644 506 l 435 506 l 435 400 l 247 400 l 247 506 l 38 506 l 38 649 l 247 649 l 247 756 l 435 756 l 435 649 m 38 210 l 38 357 l 644 357 l 644 210 l 38 210 z "},"²":{"ha":354,"x_min":18,"x_max":324,"o":"m 142 781 l 142 710 l 18 710 l 18 800 q 115 883 18 883 l 226 883 q 322 800 322 883 l 322 746 q 274 611 322 664 l 169 488 l 324 488 l 324 397 l 21 397 l 21 478 l 174 651 q 200 739 200 682 l 200 781 q 181 799 200 799 l 163 799 q 142 781 142 799 z "},"³":{"ha":357,"x_min":19,"x_max":325,"o":"m 143 781 l 143 728 l 19 728 l 19 800 q 117 883 19 883 l 229 883 q 325 800 325 883 l 325 713 q 292 642 325 656 q 325 575 325 628 l 325 482 q 229 397 325 397 l 117 397 q 19 482 19 397 l 19 554 l 143 554 l 143 501 q 163 482 143 482 l 183 482 q 204 501 204 482 l 204 582 q 183 600 204 600 l 135 600 l 135 681 l 183 681 q 204 699 204 681 l 204 781 q 183 799 204 799 l 163 799 q 143 781 143 799 z "},"´":{"ha":653,"x_min":163,"x_max":489,"o":"m 163 732 l 289 931 l 489 931 l 318 732 l 163 732 z "},"µ":{"ha":617,"x_min":56,"x_max":554,"o":"m 361 688 l 554 688 l 554 0 l 364 0 l 364 78 q 251 0 344 0 l 250 0 l 250 -185 l 56 -185 l 56 688 l 250 688 l 250 181 q 288 146 250 146 l 319 146 q 361 190 361 146 l 361 688 z "},"¶":{"ha":757,"x_min":49,"x_max":682,"o":"m 522 883 l 682 883 l 682 -185 l 522 -185 l 522 883 m 436 883 l 436 -185 l 276 -185 l 276 300 l 225 300 q 49 454 49 300 l 49 731 q 225 883 49 883 l 436 883 z "},"·":{"ha":349,"x_min":60,"x_max":261,"o":"m 60 358 l 60 556 l 261 556 l 261 358 l 60 358 z "},"¸":{"ha":653,"x_min":175,"x_max":463,"o":"m 281 -150 l 281 -67 l 463 -67 l 463 -165 q 283 -322 463 -322 l 175 -322 l 175 -187 l 242 -187 q 281 -150 281 -187 z "},"¹":{"ha":264,"x_min":14,"x_max":204,"o":"m 204 883 l 204 397 l 78 397 l 78 799 l 14 799 l 14 883 l 204 883 z "},"º":{"ha":417,"x_min":35,"x_max":381,"o":"m 156 883 l 260 883 q 381 775 381 883 l 381 507 q 260 397 381 397 l 156 397 q 35 507 35 397 l 35 775 q 156 883 35 883 m 258 506 l 258 774 q 232 799 258 799 l 183 799 q 157 774 157 799 l 157 506 q 183 482 157 482 l 232 482 q 258 506 258 482 z "},"»":{"ha":690,"x_min":32,"x_max":667,"o":"m 667 351 l 508 138 l 322 138 l 478 351 l 322 563 l 508 563 l 667 351 m 376 351 l 219 138 l 32 138 l 189 351 l 32 563 l 219 563 l 376 351 z "},"¿":{"ha":585,"x_min":28,"x_max":546,"o":"m 347 71 l 546 71 l 546 -43 q 369 -196 546 -196 l 203 -196 q 28 -43 28 -196 l 28 139 q 203 292 28 292 l 206 292 l 214 379 l 379 379 l 397 178 l 263 178 q 234 170 242 178 q 226 143 226 163 l 226 -25 q 234 -52 226 -44 q 263 -60 242 -60 l 311 -60 q 347 -25 347 -60 l 347 71 m 400 688 l 400 482 l 199 482 l 199 688 l 400 688 z "},"À":{"ha":671,"x_min":7,"x_max":665,"o":"m 465 0 l 435 160 l 233 160 l 203 0 l 7 0 l 207 883 l 460 883 l 665 0 l 465 0 m 261 304 l 406 304 l 333 678 l 261 304 m 401 928 l 246 928 l 76 1126 l 275 1126 l 401 928 z "},"Á":{"ha":671,"x_min":7,"x_max":665,"o":"m 465 0 l 435 160 l 233 160 l 203 0 l 7 0 l 207 883 l 460 883 l 665 0 l 465 0 m 261 304 l 406 304 l 333 678 l 261 304 m 585 1126 l 414 928 l 258 928 l 385 1126 l 585 1126 z "},"Â":{"ha":671,"x_min":7,"x_max":665,"o":"m 465 0 l 435 160 l 233 160 l 203 0 l 7 0 l 207 883 l 460 883 l 665 0 l 465 0 m 261 304 l 406 304 l 333 678 l 261 304 m 333 1031 l 260 928 l 75 928 l 240 1126 l 426 1126 l 590 928 l 407 928 l 333 1031 z "},"Ã":{"ha":671,"x_min":7,"x_max":665,"o":"m 465 0 l 435 160 l 233 160 l 203 0 l 7 0 l 207 883 l 460 883 l 665 0 l 465 0 m 261 304 l 406 304 l 333 678 l 261 304 m 236 964 l 236 929 l 79 929 l 79 988 q 108 1081 79 1049 q 206 1113 136 1113 l 226 1113 q 320 1080 268 1113 q 382 1047 372 1047 q 408 1078 408 1047 l 408 1113 l 565 1113 l 565 1047 q 537 958 565 988 q 438 929 508 929 l 418 929 q 324 962 376 929 q 260 994 271 994 q 236 964 236 994 z "},"Ä":{"ha":671,"x_min":7,"x_max":665,"o":"m 465 0 l 435 160 l 233 160 l 203 0 l 7 0 l 207 883 l 460 883 l 665 0 l 465 0 m 261 304 l 406 304 l 333 678 l 261 304 m 272 1090 l 272 929 l 88 929 l 88 1090 l 272 1090 m 579 1090 l 579 929 l 394 929 l 394 1090 l 579 1090 z "},"Å":{"ha":671,"x_min":7,"x_max":665,"o":"m 465 0 l 435 160 l 233 160 l 203 0 l 7 0 l 207 883 l 460 883 l 665 0 l 465 0 m 261 304 l 406 304 l 333 678 l 261 304 m 388 928 l 279 928 q 153 1042 153 928 l 153 1064 q 279 1178 153 1178 l 388 1178 q 514 1064 514 1178 l 514 1042 q 388 928 514 928 m 278 1060 l 278 1044 q 284 1022 278 1028 q 308 1015 290 1015 l 358 1015 q 383 1022 376 1015 q 390 1044 390 1028 l 390 1060 q 383 1083 390 1076 q 358 1090 376 1090 l 308 1090 q 284 1083 290 1090 q 278 1060 278 1076 z "},"Æ":{"ha":968,"x_min":6,"x_max":942,"o":"m 658 146 l 942 146 l 942 0 l 469 0 l 469 178 l 267 178 l 201 0 l 6 0 l 349 883 l 931 883 l 931 738 l 658 738 l 658 522 l 890 522 l 890 376 l 658 376 l 658 146 m 469 319 l 469 732 l 318 319 l 469 319 z "},"Ç":{"ha":625,"x_min":56,"x_max":585,"o":"m 585 574 l 385 574 l 385 713 q 349 747 385 747 l 292 747 q 254 713 254 747 l 254 171 q 263 144 254 151 q 292 136 271 136 l 349 136 q 376 144 368 136 q 385 171 385 151 l 385 306 l 585 306 l 585 153 q 408 0 585 0 l 231 0 q 56 153 56 0 l 56 731 q 231 883 56 883 l 408 883 q 585 731 585 883 l 585 574 m 228 -150 l 228 -67 l 410 -67 l 410 -165 q 231 -322 410 -322 l 122 -322 l 122 -187 l 189 -187 q 228 -150 228 -187 z "},"È":{"ha":568,"x_min":53,"x_max":544,"o":"m 261 146 l 544 146 l 544 0 l 63 0 l 63 883 l 533 883 l 533 738 l 261 738 l 261 522 l 493 522 l 493 376 l 261 376 l 261 146 m 378 928 l 222 928 l 53 1126 l 251 1126 l 378 928 z "},"É":{"ha":568,"x_min":63,"x_max":544,"o":"m 261 376 l 261 146 l 544 146 l 544 0 l 63 0 l 63 883 l 533 883 l 533 738 l 261 738 l 261 522 l 493 522 l 493 376 l 261 376 m 544 1126 l 374 928 l 218 928 l 344 1126 l 544 1126 z "},"Ê":{"ha":568,"x_min":43,"x_max":558,"o":"m 261 376 l 261 146 l 544 146 l 544 0 l 63 0 l 63 883 l 533 883 l 533 738 l 261 738 l 261 522 l 493 522 l 493 376 l 261 376 m 301 1031 l 228 928 l 43 928 l 208 1126 l 394 1126 l 558 928 l 375 928 l 301 1031 z "},"Ë":{"ha":618,"x_min":51,"x_max":544,"o":"m 261 146 l 544 146 l 544 0 l 63 0 l 63 883 l 533 883 l 533 738 l 261 738 l 261 522 l 493 522 l 493 376 l 261 376 l 261 146 m 236 1090 l 236 929 l 51 929 l 51 1090 l 236 1090 m 543 1090 l 543 929 l 358 929 l 358 1090 l 543 1090 z "},"Ì":{"ha":331,"x_min":-83,"x_max":264,"o":"m 115 1126 l 242 928 l 86 928 l -83 1126 l 115 1126 m 67 883 l 264 883 l 264 0 l 67 0 l 67 883 z "},"Í":{"ha":331,"x_min":67,"x_max":411,"o":"m 85 928 l 211 1126 l 411 1126 l 240 928 l 85 928 m 67 883 l 264 883 l 264 0 l 67 0 l 67 883 z "},"Î":{"ha":331,"x_min":-93,"x_max":422,"o":"m -93 928 l 72 1126 l 258 1126 l 422 928 l 239 928 l 165 1031 l 92 928 l -93 928 m 67 883 l 264 883 l 264 0 l 67 0 l 67 883 z "},"Ï":{"ha":331,"x_min":-81,"x_max":411,"o":"m 67 883 l 264 883 l 264 0 l 67 0 l 67 883 m 226 929 l 226 1090 l 411 1090 l 411 929 l 226 929 m -81 929 l -81 1090 l 104 1090 l 104 929 l -81 929 z "},"Ð":{"ha":671,"x_min":-3,"x_max":617,"o":"m 72 883 l 440 883 q 617 731 617 883 l 617 154 q 440 0 617 0 l 72 0 l 72 379 l -3 379 l -3 515 l 72 515 l 72 883 m 418 171 l 418 713 q 381 747 418 747 l 271 747 l 271 515 l 357 515 l 357 379 l 271 379 l 271 136 l 381 136 q 418 171 418 136 z "},"Ñ":{"ha":675,"x_min":63,"x_max":614,"o":"m 436 929 q 342 962 394 929 q 278 994 289 994 q 254 964 254 994 l 254 929 l 97 929 l 97 988 q 126 1081 97 1049 q 224 1113 154 1113 l 244 1113 q 338 1080 286 1113 q 400 1047 390 1047 q 426 1078 426 1047 l 426 1113 l 583 1113 l 583 1047 q 555 958 583 988 q 456 929 526 929 l 436 929 m 432 883 l 614 883 l 614 0 l 436 0 l 243 529 l 243 0 l 63 0 l 63 883 l 242 883 l 432 356 l 432 883 z "},"Ò":{"ha":651,"x_min":57,"x_max":594,"o":"m 233 883 l 419 883 q 594 731 594 883 l 594 154 q 419 0 594 0 l 233 0 q 57 154 57 0 l 57 731 q 233 883 57 883 m 396 181 l 396 703 q 360 738 396 738 l 293 738 q 256 703 256 738 l 256 181 q 293 146 256 146 l 360 146 q 396 181 396 146 m 396 928 l 240 928 l 71 1126 l 269 1126 l 396 928 z "},"Ó":{"ha":651,"x_min":57,"x_max":594,"o":"m 233 883 l 419 883 q 594 731 594 883 l 594 154 q 419 0 594 0 l 233 0 q 57 154 57 0 l 57 731 q 233 883 57 883 m 396 181 l 396 703 q 360 738 396 738 l 293 738 q 256 703 256 738 l 256 181 q 293 146 256 146 l 360 146 q 396 181 396 146 m 575 1126 l 404 928 l 249 928 l 375 1126 l 575 1126 z "},"Ô":{"ha":651,"x_min":57,"x_max":594,"o":"m 233 883 l 419 883 q 594 731 594 883 l 594 154 q 419 0 594 0 l 233 0 q 57 154 57 0 l 57 731 q 233 883 57 883 m 396 181 l 396 703 q 360 738 396 738 l 293 738 q 256 703 256 738 l 256 181 q 293 146 256 146 l 360 146 q 396 181 396 146 m 324 1031 l 250 928 l 65 928 l 231 1126 l 417 1126 l 581 928 l 397 928 l 324 1031 z "},"Õ":{"ha":651,"x_min":57,"x_max":594,"o":"m 233 883 l 419 883 q 594 731 594 883 l 594 154 q 419 0 594 0 l 233 0 q 57 154 57 0 l 57 731 q 233 883 57 883 m 396 181 l 396 703 q 360 738 396 738 l 293 738 q 256 703 256 738 l 256 181 q 293 146 256 146 l 360 146 q 396 181 396 146 m 238 964 l 238 929 l 81 929 l 81 988 q 109 1081 81 1049 q 207 1113 138 1113 l 228 1113 q 322 1080 269 1113 q 383 1047 374 1047 q 410 1078 410 1047 l 410 1113 l 567 1113 l 567 1047 q 538 958 567 988 q 439 929 510 929 l 419 929 q 325 962 378 929 q 261 994 272 994 q 238 964 238 994 z "},"Ö":{"ha":636,"x_min":57,"x_max":594,"o":"m 233 883 l 419 883 q 594 731 594 883 l 594 154 q 419 0 594 0 l 233 0 q 57 154 57 0 l 57 731 q 233 883 57 883 m 396 181 l 396 703 q 360 738 396 738 l 293 738 q 256 703 256 738 l 256 181 q 293 146 256 146 l 360 146 q 396 181 396 146 m 265 1090 l 265 929 l 81 929 l 81 1090 l 265 1090 m 572 1090 l 572 929 l 388 929 l 388 1090 l 572 1090 z "},"×":{"ha":614,"x_min":31,"x_max":585,"o":"m 585 596 l 421 432 l 585 268 l 472 154 l 308 319 l 143 154 l 31 268 l 194 432 l 31 596 l 143 710 l 308 546 l 472 710 l 585 596 z "},"Ø":{"ha":656,"x_min":53,"x_max":610,"o":"m 597 731 l 597 154 q 421 0 597 0 l 235 0 q 163 8 194 0 l 144 -28 l 53 -28 l 92 50 q 58 154 58 85 l 58 731 q 235 883 58 883 l 421 883 q 500 874 469 883 l 518 911 l 610 911 l 569 829 q 597 731 597 792 m 247 714 l 247 365 l 408 690 l 408 714 q 371 749 408 749 l 285 749 q 247 714 247 749 m 408 169 l 408 504 l 247 179 l 247 169 q 285 135 247 135 l 371 135 q 408 169 408 135 z "},"Ù":{"ha":660,"x_min":61,"x_max":599,"o":"m 400 883 l 599 883 l 599 154 q 422 0 599 0 l 236 0 q 61 154 61 0 l 61 883 l 260 883 l 260 181 q 296 146 260 146 l 363 146 q 400 181 400 146 l 400 883 m 406 928 l 250 928 l 81 1126 l 279 1126 l 406 928 z "},"Ú":{"ha":660,"x_min":61,"x_max":599,"o":"m 400 883 l 599 883 l 599 154 q 422 0 599 0 l 236 0 q 61 154 61 0 l 61 883 l 260 883 l 260 181 q 296 146 260 146 l 363 146 q 400 181 400 146 l 400 883 m 571 1126 l 400 928 l 244 928 l 371 1126 l 571 1126 z "},"Û":{"ha":660,"x_min":61,"x_max":599,"o":"m 400 883 l 599 883 l 599 154 q 422 0 599 0 l 236 0 q 61 154 61 0 l 61 883 l 260 883 l 260 181 q 296 146 260 146 l 363 146 q 400 181 400 146 l 400 883 m 329 1031 l 256 928 l 71 928 l 236 1126 l 422 1126 l 586 928 l 403 928 l 329 1031 z "},"Ü":{"ha":660,"x_min":61,"x_max":599,"o":"m 400 883 l 599 883 l 599 154 q 422 0 599 0 l 236 0 q 61 154 61 0 l 61 883 l 260 883 l 260 181 q 296 146 260 146 l 363 146 q 400 181 400 146 l 400 883 m 268 1090 l 268 929 l 83 929 l 83 1090 l 268 1090 m 575 1090 l 575 929 l 390 929 l 390 1090 l 575 1090 z "},"Ý":{"ha":638,"x_min":3,"x_max":636,"o":"m 424 0 l 225 0 l 225 286 l 3 883 l 206 883 l 324 468 l 433 883 l 636 883 l 424 285 l 424 0 m 563 1126 l 392 928 l 236 928 l 363 1126 l 563 1126 z "},"Þ":{"ha":663,"x_min":67,"x_max":597,"o":"m 265 718 l 421 718 q 597 565 597 718 l 597 318 q 421 164 597 164 l 265 164 l 265 0 l 67 0 l 67 883 l 265 883 l 265 718 m 399 339 l 399 543 q 361 578 399 578 l 265 578 l 265 306 l 361 306 q 390 313 382 306 q 399 339 399 321 z "},"ß":{"ha":835,"x_min":63,"x_max":808,"o":"m 332 221 l 525 221 l 525 171 q 532 144 525 151 q 557 136 539 138 l 578 136 q 607 144 599 136 q 615 171 615 151 l 615 247 q 607 274 615 267 q 578 282 599 282 l 501 282 q 374 321 411 282 q 336 435 336 360 l 336 483 q 375 590 336 556 q 500 625 414 625 q 530 632 522 625 q 538 657 538 639 l 538 688 q 531 715 538 707 q 504 722 524 722 l 299 722 q 261 688 261 722 l 261 0 l 63 0 l 63 717 q 101 831 63 792 q 229 869 139 869 l 578 869 q 746 724 746 869 l 746 635 q 714 535 746 564 q 593 506 682 506 l 563 506 q 533 498 542 506 q 525 472 525 490 l 525 446 q 533 420 525 428 q 563 413 542 413 l 633 413 q 808 258 808 413 l 808 154 q 771 39 808 78 q 643 0 733 0 l 500 0 q 332 154 332 1 l 332 221 z "},"à":{"ha":603,"x_min":46,"x_max":544,"o":"m 354 688 l 544 688 l 544 0 l 351 0 l 351 68 q 242 0 331 0 l 208 0 q 46 154 46 0 l 46 533 q 208 688 46 688 l 242 688 q 354 610 335 688 l 354 688 m 278 146 l 310 146 q 351 190 351 146 l 351 497 q 310 542 351 542 l 278 542 q 240 507 240 542 l 240 181 q 278 146 240 146 m 417 732 l 261 732 l 92 931 l 290 931 l 417 732 z "},"á":{"ha":603,"x_min":46,"x_max":556,"o":"m 354 688 l 544 688 l 544 0 l 351 0 l 351 68 q 242 0 331 0 l 208 0 q 46 154 46 0 l 46 533 q 208 688 46 688 l 242 688 q 354 610 335 688 l 354 688 m 278 146 l 310 146 q 351 190 351 146 l 351 497 q 310 542 351 542 l 278 542 q 240 507 240 542 l 240 181 q 278 146 240 146 m 556 931 l 385 732 l 229 732 l 356 931 l 556 931 z "},"â":{"ha":603,"x_min":46,"x_max":561,"o":"m 354 688 l 544 688 l 544 0 l 351 0 l 351 68 q 242 0 331 0 l 208 0 q 46 154 46 0 l 46 533 q 208 688 46 688 l 242 688 q 354 610 335 688 l 354 688 m 278 146 l 310 146 q 351 190 351 146 l 351 497 q 310 542 351 542 l 278 542 q 240 507 240 542 l 240 181 q 278 146 240 146 m 304 835 l 231 732 l 46 732 l 211 931 l 397 931 l 561 732 l 378 732 l 304 835 z "},"ã":{"ha":603,"x_min":46,"x_max":544,"o":"m 354 688 l 544 688 l 544 0 l 351 0 l 351 68 q 242 0 331 0 l 208 0 q 46 154 46 0 l 46 533 q 208 688 46 688 l 242 688 q 354 610 335 688 l 354 688 m 278 146 l 310 146 q 351 190 351 146 l 351 497 q 310 542 351 542 l 278 542 q 240 507 240 542 l 240 181 q 278 146 240 146 m 213 775 l 213 740 l 56 740 l 56 799 q 84 892 56 860 q 182 924 113 924 l 203 924 q 297 891 244 924 q 358 858 349 858 q 385 889 385 858 l 385 924 l 542 924 l 542 858 q 513 769 542 799 q 414 740 485 740 l 394 740 q 300 773 353 740 q 236 806 247 806 q 213 775 213 806 z "},"ä":{"ha":603,"x_min":46,"x_max":556,"o":"m 371 914 l 556 914 l 556 753 l 371 753 l 371 914 m 354 688 l 544 688 l 544 0 l 351 0 l 351 68 q 242 0 331 0 l 208 0 q 46 154 46 0 l 46 533 q 208 688 46 688 l 242 688 q 354 610 335 688 l 354 688 m 278 146 l 310 146 q 351 190 351 146 l 351 497 q 310 542 351 542 l 278 542 q 240 507 240 542 l 240 181 q 278 146 240 146 m 249 914 l 249 753 l 64 753 l 64 914 l 249 914 z "},"å":{"ha":603,"x_min":46,"x_max":544,"o":"m 354 688 l 544 688 l 544 0 l 351 0 l 351 68 q 242 0 331 0 l 208 0 q 46 154 46 0 l 46 533 q 208 688 46 688 l 242 688 q 354 610 335 688 l 354 688 m 278 146 l 310 146 q 351 190 351 146 l 351 497 q 310 542 351 542 l 278 542 q 240 507 240 542 l 240 181 q 278 146 240 146 m 357 735 l 249 735 q 122 849 122 735 l 122 871 q 249 985 122 985 l 357 985 q 483 871 483 985 l 483 849 q 357 735 483 735 m 247 867 l 247 851 q 253 828 247 835 q 278 822 260 822 l 328 822 q 353 828 346 822 q 360 851 360 835 l 360 867 q 353 890 360 883 q 328 897 346 897 l 278 897 q 253 890 260 897 q 247 867 247 883 z "},"æ":{"ha":928,"x_min":53,"x_max":867,"o":"m 861 286 l 547 286 l 547 175 q 556 149 547 157 q 585 142 564 142 l 639 142 q 668 149 660 142 q 676 175 676 157 l 676 218 l 865 218 l 865 154 q 689 0 865 0 l 594 0 q 444 71 482 0 q 392 19 429 39 q 310 0 354 0 l 215 0 q 53 154 53 0 l 53 286 l 358 411 l 358 500 q 317 542 357 542 l 285 542 q 247 507 247 542 l 247 431 l 53 431 l 53 533 q 215 688 53 688 l 311 688 q 393 668 356 688 q 446 617 431 649 q 596 688 483 688 l 690 688 q 867 533 867 688 l 867 308 l 861 308 l 861 286 m 640 546 l 585 546 q 556 538 564 546 q 547 511 547 531 l 547 407 l 678 407 l 678 511 q 640 546 678 546 m 285 146 l 317 146 q 358 188 357 146 l 358 285 l 247 239 l 247 181 q 285 146 247 146 z "},"ç":{"ha":574,"x_min":46,"x_max":540,"o":"m 540 440 l 351 440 l 351 507 q 314 542 351 542 l 278 542 q 240 507 240 542 l 240 181 q 278 146 240 146 l 314 146 q 351 181 351 146 l 351 247 l 540 247 l 540 154 q 364 0 540 0 l 222 0 q 46 154 46 0 l 46 533 q 222 688 46 688 l 364 688 q 540 533 540 688 l 540 440 m 208 -150 l 208 -67 l 390 -67 l 390 -165 q 211 -322 390 -322 l 103 -322 l 103 -187 l 169 -187 q 208 -150 208 -187 z "},"è":{"ha":596,"x_min":42,"x_max":557,"o":"m 224 688 l 381 688 q 557 533 557 688 l 557 290 l 233 290 l 233 172 q 242 147 233 154 q 271 139 250 139 l 333 139 q 361 147 353 139 q 369 175 369 156 l 369 221 l 556 221 l 556 154 q 379 0 556 0 l 224 0 q 49 154 49 0 l 49 533 q 224 688 49 688 m 233 404 l 371 404 l 371 515 q 363 541 371 533 q 335 549 354 549 l 271 549 q 242 541 250 549 q 233 515 233 533 l 233 404 m 367 732 l 211 732 l 42 931 l 240 931 l 367 732 z "},"é":{"ha":596,"x_min":49,"x_max":557,"o":"m 224 688 l 381 688 q 557 533 557 688 l 557 290 l 233 290 l 233 172 q 242 147 233 154 q 271 139 250 139 l 333 139 q 361 147 353 139 q 369 175 369 156 l 369 221 l 556 221 l 556 154 q 379 0 556 0 l 224 0 q 49 154 49 0 l 49 533 q 224 688 49 688 m 233 404 l 371 404 l 371 515 q 363 541 371 533 q 335 549 354 549 l 271 549 q 242 541 250 549 q 233 515 233 533 l 233 404 m 550 931 l 379 732 l 224 732 l 350 931 l 550 931 z "},"ê":{"ha":594,"x_min":47,"x_max":563,"o":"m 224 688 l 381 688 q 557 533 557 688 l 557 290 l 233 290 l 233 172 q 242 147 233 154 q 271 139 250 139 l 333 139 q 361 147 353 139 q 369 175 369 156 l 369 221 l 556 221 l 556 154 q 379 0 556 0 l 224 0 q 49 154 49 0 l 49 533 q 224 688 49 688 m 233 404 l 371 404 l 371 515 q 363 541 371 533 q 335 549 354 549 l 271 549 q 242 541 250 549 q 233 515 233 533 l 233 404 m 306 835 l 232 732 l 47 732 l 213 931 l 399 931 l 563 732 l 379 732 l 306 835 z "},"ë":{"ha":594,"x_min":49,"x_max":557,"o":"m 224 688 l 381 688 q 557 533 557 688 l 557 290 l 233 290 l 233 172 q 242 147 233 154 q 271 139 250 139 l 333 139 q 361 147 353 139 q 369 175 369 156 l 369 221 l 556 221 l 556 154 q 379 0 556 0 l 224 0 q 49 154 49 0 l 49 533 q 224 688 49 688 m 233 404 l 371 404 l 371 515 q 363 541 371 533 q 335 549 354 549 l 271 549 q 242 541 250 549 q 233 515 233 533 l 233 404 m 239 914 l 239 753 l 54 753 l 54 914 l 239 914 m 546 914 l 546 753 l 361 753 l 361 914 l 546 914 z "},"ì":{"ha":310,"x_min":-90,"x_max":251,"o":"m 108 931 l 235 732 l 79 732 l -90 931 l 108 931 m 251 0 l 58 0 l 58 688 l 251 688 l 251 0 z "},"í":{"ha":310,"x_min":58,"x_max":399,"o":"m 72 732 l 199 931 l 399 931 l 228 732 l 72 732 m 251 0 l 58 0 l 58 688 l 251 688 l 251 0 z "},"î":{"ha":310,"x_min":-106,"x_max":410,"o":"m -106 732 l 60 931 l 246 931 l 410 732 l 226 732 l 153 835 l 79 732 l -106 732 m 251 0 l 58 0 l 58 688 l 251 688 l 251 0 z "},"ï":{"ha":310,"x_min":-94,"x_max":397,"o":"m 213 753 l 213 914 l 397 914 l 397 753 l 213 753 m -94 753 l -94 914 l 90 914 l 90 753 l -94 753 m 251 0 l 58 0 l 58 688 l 251 688 l 251 0 z "},"ð":{"ha":625,"x_min":46,"x_max":568,"o":"m 568 428 l 568 154 q 392 0 568 0 l 222 0 q 46 154 46 0 l 46 433 q 222 588 46 588 l 346 588 q 289 693 325 642 l 140 646 l 140 747 l 224 774 q 94 883 175 824 l 363 883 q 413 835 383 867 l 536 874 l 536 772 l 475 753 q 568 428 568 606 m 376 181 l 376 425 q 375 451 376 443 l 278 451 q 240 417 240 451 l 240 181 q 278 146 240 146 l 340 146 q 376 181 376 146 z "},"ñ":{"ha":610,"x_min":50,"x_max":557,"o":"m 360 688 l 394 688 q 557 533 557 688 l 557 0 l 363 0 l 363 507 q 325 542 363 542 l 292 542 q 251 497 251 542 l 251 0 l 58 0 l 58 688 l 249 688 l 249 610 q 360 688 268 688 m 207 775 l 207 740 l 50 740 l 50 799 q 78 892 50 860 q 176 924 107 924 l 197 924 q 291 891 239 924 q 353 858 343 858 q 379 889 379 858 l 379 924 l 536 924 l 536 858 q 508 769 536 799 q 408 740 479 740 l 389 740 q 294 773 347 740 q 231 806 242 806 q 207 775 207 806 z "},"ò":{"ha":610,"x_min":51,"x_max":558,"o":"m 222 688 l 388 688 q 519 648 479 688 q 558 533 558 608 l 558 154 q 519 40 558 79 q 388 0 479 0 l 222 0 q 91 40 131 0 q 51 154 51 79 l 51 533 q 91 648 51 608 q 222 688 131 688 m 368 174 l 368 514 q 331 549 368 549 l 279 549 q 242 514 242 549 l 242 174 q 279 139 242 139 l 331 139 q 368 174 368 139 m 376 732 l 221 732 l 51 931 l 250 931 l 376 732 z "},"ó":{"ha":610,"x_min":51,"x_max":558,"o":"m 222 688 l 388 688 q 519 648 479 688 q 558 533 558 608 l 558 154 q 519 40 558 79 q 388 0 479 0 l 222 0 q 91 40 131 0 q 51 154 51 79 l 51 533 q 91 648 51 608 q 222 688 131 688 m 368 174 l 368 514 q 331 549 368 549 l 279 549 q 242 514 242 549 l 242 174 q 279 139 242 139 l 331 139 q 368 174 368 139 m 558 931 l 388 732 l 232 732 l 358 931 l 558 931 z "},"ô":{"ha":610,"x_min":46,"x_max":561,"o":"m 222 688 l 388 688 q 519 648 479 688 q 558 533 558 608 l 558 154 q 519 40 558 79 q 388 0 479 0 l 222 0 q 91 40 131 0 q 51 154 51 79 l 51 533 q 91 648 51 608 q 222 688 131 688 m 368 174 l 368 514 q 331 549 368 549 l 279 549 q 242 514 242 549 l 242 174 q 279 139 242 139 l 331 139 q 368 174 368 139 m 304 835 l 231 732 l 46 732 l 211 931 l 397 931 l 561 732 l 378 732 l 304 835 z "},"õ":{"ha":610,"x_min":51,"x_max":558,"o":"m 222 688 l 388 688 q 519 648 479 688 q 558 533 558 608 l 558 154 q 519 40 558 79 q 388 0 479 0 l 222 0 q 91 40 131 0 q 51 154 51 79 l 51 533 q 91 648 51 608 q 222 688 131 688 m 368 174 l 368 514 q 331 549 368 549 l 279 549 q 242 514 242 549 l 242 174 q 279 139 242 139 l 331 139 q 368 174 368 139 m 213 775 l 213 740 l 56 740 l 56 799 q 84 892 56 860 q 182 924 113 924 l 203 924 q 297 891 244 924 q 358 858 349 858 q 385 889 385 858 l 385 924 l 542 924 l 542 858 q 513 769 542 799 q 414 740 485 740 l 394 740 q 300 773 353 740 q 236 806 247 806 q 213 775 213 806 z "},"ö":{"ha":610,"x_min":51,"x_max":558,"o":"m 222 688 l 388 688 q 519 648 479 688 q 558 533 558 608 l 558 154 q 519 40 558 79 q 388 0 479 0 l 222 0 q 91 40 131 0 q 51 154 51 79 l 51 533 q 91 648 51 608 q 222 688 131 688 m 368 174 l 368 514 q 331 549 368 549 l 279 549 q 242 514 242 549 l 242 174 q 279 139 242 139 l 331 139 q 368 174 368 139 m 243 914 l 243 753 l 58 753 l 58 914 l 243 914 m 550 914 l 550 753 l 365 753 l 365 914 l 550 914 z "},"÷":{"ha":676,"x_min":35,"x_max":642,"o":"m 244 299 l 432 299 l 432 154 l 244 154 l 244 299 m 244 726 l 432 726 l 432 582 l 244 582 l 244 726 m 35 367 l 35 514 l 642 514 l 642 367 l 35 367 z "},"ø":{"ha":614,"x_min":43,"x_max":571,"o":"m 561 533 l 561 154 q 390 0 561 0 l 224 0 q 156 7 188 0 l 135 -28 l 43 -28 l 86 46 q 53 154 53 83 l 53 533 q 92 648 53 608 q 224 688 132 688 l 390 688 q 458 681 426 688 l 479 715 l 571 715 l 528 642 q 561 533 561 604 m 238 521 l 238 304 l 374 536 q 338 556 368 556 l 275 556 q 238 521 238 556 m 376 167 l 376 383 l 239 150 q 275 132 244 132 l 338 132 q 367 140 358 132 q 376 167 376 147 z "},"ù":{"ha":610,"x_min":53,"x_max":551,"o":"m 358 688 l 551 688 l 551 0 l 361 0 l 361 78 q 249 0 342 0 l 215 0 q 53 154 53 0 l 53 688 l 247 688 l 247 181 q 285 146 247 146 l 317 146 q 358 190 358 146 l 358 688 m 386 732 l 231 732 l 61 931 l 260 931 l 386 732 z "},"ú":{"ha":610,"x_min":53,"x_max":551,"o":"m 358 688 l 551 688 l 551 0 l 361 0 l 361 78 q 249 0 342 0 l 215 0 q 53 154 53 0 l 53 688 l 247 688 l 247 181 q 285 146 247 146 l 317 146 q 358 190 358 146 l 358 688 m 543 931 l 372 732 l 217 732 l 343 931 l 543 931 z "},"û":{"ha":607,"x_min":43,"x_max":558,"o":"m 358 688 l 551 688 l 551 0 l 361 0 l 361 78 q 249 0 342 0 l 215 0 q 53 154 53 0 l 53 688 l 247 688 l 247 181 q 285 146 247 146 l 317 146 q 358 190 358 146 l 358 688 m 301 835 l 228 732 l 43 732 l 208 931 l 394 931 l 558 732 l 375 732 l 301 835 z "},"ü":{"ha":622,"x_min":53,"x_max":551,"o":"m 358 688 l 551 688 l 551 0 l 361 0 l 361 78 q 249 0 342 0 l 215 0 q 53 154 53 0 l 53 688 l 247 688 l 247 181 q 285 146 247 146 l 317 146 q 358 190 358 146 l 358 688 m 239 914 l 239 753 l 54 753 l 54 914 l 239 914 m 546 914 l 546 753 l 361 753 l 361 914 l 546 914 z "},"ý":{"ha":581,"x_min":4,"x_max":576,"o":"m 215 732 l 342 931 l 542 931 l 371 732 l 215 732 m 190 -185 l 86 -185 l 86 -40 l 172 -40 q 223 -30 204 -40 q 251 11 242 -19 l 258 39 l 176 39 l 4 688 l 206 688 l 297 210 l 381 688 l 576 688 l 414 -17 q 338 -142 390 -100 q 190 -185 286 -185 z "},"þ":{"ha":613,"x_min":51,"x_max":551,"o":"m 354 688 l 389 688 q 551 533 551 688 l 551 154 q 389 0 551 0 l 354 0 q 246 68 267 0 l 246 -185 l 51 -185 l 51 929 l 243 929 l 243 610 q 354 688 263 688 m 357 181 l 357 507 q 319 542 357 542 l 286 542 q 246 497 246 542 l 246 190 q 286 146 246 146 l 319 146 q 357 181 357 146 z "},"ÿ":{"ha":615,"x_min":4,"x_max":576,"o":"m 190 -185 l 86 -185 l 86 -40 l 172 -40 q 223 -30 204 -40 q 251 11 242 -19 l 258 39 l 176 39 l 4 688 l 206 688 l 297 210 l 381 688 l 576 688 l 414 -17 q 338 -142 390 -100 q 190 -185 286 -185 m 353 753 l 353 914 l 538 914 l 538 753 l 353 753 m 46 753 l 46 914 l 231 914 l 231 753 l 46 753 z "},"Ā":{"ha":671,"x_min":7,"x_max":665,"o":"m 465 0 l 435 160 l 233 160 l 203 0 l 7 0 l 207 883 l 460 883 l 665 0 l 465 0 m 261 304 l 406 304 l 333 678 l 261 304 m 571 1056 l 571 929 l 94 929 l 94 1056 l 571 1056 z "},"ā":{"ha":603,"x_min":46,"x_max":544,"o":"m 354 688 l 544 688 l 544 0 l 351 0 l 351 68 q 242 0 331 0 l 208 0 q 46 154 46 0 l 46 533 q 208 688 46 688 l 242 688 q 354 610 335 688 l 354 688 m 278 146 l 310 146 q 351 190 351 146 l 351 497 q 310 542 351 542 l 278 542 q 240 507 240 542 l 240 181 q 278 146 240 146 m 538 896 l 538 769 l 61 769 l 61 896 l 538 896 z "},"Ă":{"ha":671,"x_min":7,"x_max":665,"o":"m 465 0 l 435 160 l 233 160 l 203 0 l 7 0 l 207 883 l 460 883 l 665 0 l 465 0 m 261 304 l 406 304 l 333 678 l 261 304 m 403 928 l 264 928 q 88 1082 88 928 l 88 1126 l 261 1126 l 261 1078 q 269 1052 261 1060 q 299 1044 278 1044 l 368 1044 q 397 1052 389 1044 q 406 1078 406 1060 l 406 1126 l 579 1126 l 579 1082 q 403 928 579 928 z "},"ă":{"ha":603,"x_min":46,"x_max":567,"o":"m 393 931 l 567 931 l 567 886 q 390 732 567 732 l 251 732 q 75 886 75 732 l 75 931 l 249 931 l 249 882 q 257 856 249 864 q 286 849 265 849 l 356 849 q 385 856 376 849 q 393 882 393 864 l 393 931 m 354 688 l 544 688 l 544 0 l 351 0 l 351 68 q 242 0 331 0 l 208 0 q 46 154 46 0 l 46 533 q 208 688 46 688 l 242 688 q 354 610 335 688 l 354 688 m 278 146 l 310 146 q 351 190 351 146 l 351 497 q 310 542 351 542 l 278 542 q 240 507 240 542 l 240 181 q 278 146 240 146 z "},"Ą":{"ha":671,"x_min":7,"x_max":692,"o":"m 571 -237 l 692 -237 l 692 -354 l 542 -354 q 429 -320 463 -354 q 396 -219 396 -286 l 396 -161 q 429 -60 396 -94 q 542 -26 463 -26 l 550 -26 l 550 0 l 465 0 l 435 160 l 233 160 l 203 0 l 7 0 l 207 883 l 460 883 l 661 19 l 667 19 l 667 -143 l 571 -143 q 544 -150 551 -143 q 536 -174 536 -157 l 536 -208 q 544 -231 536 -225 q 571 -237 551 -237 m 261 304 l 406 304 l 333 678 l 261 304 z "},"ą":{"ha":603,"x_min":46,"x_max":571,"o":"m 450 -237 l 571 -237 l 571 -354 l 421 -354 q 308 -320 342 -354 q 275 -219 275 -286 l 275 -161 q 308 -60 275 -94 q 421 -26 342 -26 l 429 -26 l 429 0 l 351 0 l 351 68 q 242 0 331 0 l 208 0 q 46 154 46 0 l 46 533 q 208 688 46 688 l 242 688 q 354 610 335 688 l 354 688 l 544 688 l 544 19 l 546 19 l 546 -143 l 450 -143 q 423 -150 431 -143 q 415 -174 415 -157 l 415 -208 q 423 -231 415 -225 q 450 -237 431 -237 m 278 146 l 310 146 q 351 190 351 146 l 351 497 q 310 542 351 542 l 278 542 q 240 507 240 542 l 240 181 q 278 146 240 146 z "},"Ć":{"ha":625,"x_min":56,"x_max":585,"o":"m 585 574 l 385 574 l 385 713 q 349 747 385 747 l 292 747 q 254 713 254 747 l 254 171 q 263 144 254 151 q 292 136 271 136 l 349 136 q 376 144 368 136 q 385 171 385 151 l 385 306 l 585 306 l 585 153 q 408 0 585 0 l 231 0 q 56 153 56 0 l 56 731 q 231 883 56 883 l 408 883 q 585 731 585 883 l 585 574 m 565 1126 l 394 928 l 239 928 l 365 1126 l 565 1126 z "},"ć":{"ha":574,"x_min":46,"x_max":543,"o":"m 222 688 l 364 688 q 540 533 540 688 l 540 440 l 351 440 l 351 507 q 314 542 351 542 l 278 542 q 240 507 240 542 l 240 181 q 278 146 240 146 l 314 146 q 351 181 351 146 l 351 247 l 540 247 l 540 154 q 364 0 540 0 l 222 0 q 46 154 46 0 l 46 533 q 222 688 46 688 m 543 931 l 372 732 l 217 732 l 343 931 l 543 931 z "},"Č":{"ha":625,"x_min":56,"x_max":585,"o":"m 585 574 l 385 574 l 385 713 q 349 747 385 747 l 292 747 q 254 713 254 747 l 254 171 q 263 144 254 151 q 292 136 271 136 l 349 136 q 376 144 368 136 q 385 171 385 151 l 385 306 l 585 306 l 585 153 q 408 0 585 0 l 231 0 q 56 153 56 0 l 56 731 q 231 883 56 883 l 408 883 q 585 731 585 883 l 585 574 m 411 928 l 225 928 l 60 1126 l 244 1126 l 318 1025 l 392 1126 l 575 1126 l 411 928 z "},"č":{"ha":574,"x_min":31,"x_max":546,"o":"m 222 688 l 364 688 q 540 533 540 688 l 540 440 l 351 440 l 351 507 q 314 542 351 542 l 278 542 q 240 507 240 542 l 240 181 q 278 146 240 146 l 314 146 q 351 181 351 146 l 351 247 l 540 247 l 540 154 q 364 0 540 0 l 222 0 q 46 154 46 0 l 46 533 q 222 688 46 688 m 382 732 l 196 732 l 31 931 l 215 931 l 289 829 l 363 931 l 546 931 l 382 732 z "},"Ď":{"ha":674,"x_min":72,"x_max":617,"o":"m 72 883 l 440 883 q 617 731 617 883 l 617 154 q 440 0 617 0 l 72 0 l 72 883 m 418 171 l 418 713 q 381 747 418 747 l 271 747 l 271 136 l 381 136 q 418 171 418 136 m 424 928 l 238 928 l 72 1126 l 257 1126 l 331 1025 l 404 1126 l 588 1126 l 424 928 z "},"ď":{"ha":653,"x_min":46,"x_max":742,"o":"m 603 929 l 742 929 l 742 838 l 653 656 l 603 656 l 603 929 m 351 929 l 544 929 l 544 0 l 354 0 l 354 78 q 242 0 335 0 l 208 0 q 46 154 46 0 l 46 535 q 208 688 46 688 l 242 688 q 351 619 331 688 l 351 929 m 278 146 l 310 146 q 351 190 351 146 l 351 497 q 310 542 351 542 l 278 542 q 249 534 257 542 q 240 507 240 526 l 240 181 q 278 146 240 146 z "},"Đ":{"ha":681,"x_min":-3,"x_max":617,"o":"m 72 883 l 440 883 q 617 731 617 883 l 617 154 q 440 0 617 0 l 72 0 l 72 379 l -3 379 l -3 515 l 72 515 l 72 883 m 418 181 l 418 703 q 381 738 418 738 l 271 738 l 271 515 l 357 515 l 357 379 l 271 379 l 271 146 l 381 146 q 418 181 418 146 z "},"đ":{"ha":610,"x_min":53,"x_max":619,"o":"m 619 856 l 619 758 l 551 758 l 551 0 l 361 0 l 361 78 q 249 0 342 0 l 215 0 q 53 154 53 0 l 53 533 q 215 688 53 688 l 249 688 q 358 619 338 688 l 358 758 l 264 758 l 264 856 l 358 856 l 358 929 l 551 929 l 551 856 l 619 856 m 285 146 l 317 146 q 358 190 358 146 l 358 497 q 317 542 358 542 l 285 542 q 247 507 247 542 l 247 181 q 285 146 247 146 z "},"Ē":{"ha":568,"x_min":57,"x_max":544,"o":"m 261 146 l 544 146 l 544 0 l 63 0 l 63 883 l 533 883 l 533 738 l 261 738 l 261 522 l 493 522 l 493 376 l 261 376 l 261 146 m 533 1063 l 533 936 l 57 936 l 57 1063 l 533 1063 z "},"ē":{"ha":596,"x_min":49,"x_max":557,"o":"m 224 688 l 381 688 q 557 533 557 688 l 557 290 l 233 290 l 233 172 q 242 147 233 154 q 271 139 250 139 l 333 139 q 361 147 353 139 q 369 175 369 156 l 369 221 l 556 221 l 556 154 q 379 0 556 0 l 224 0 q 49 154 49 0 l 49 533 q 224 688 49 688 m 233 404 l 371 404 l 371 515 q 363 541 371 533 q 335 549 354 549 l 271 549 q 242 541 250 549 q 233 515 233 533 l 233 404 m 536 896 l 536 769 l 60 769 l 60 896 l 536 896 z "},"Ė":{"ha":568,"x_min":63,"x_max":544,"o":"m 261 146 l 544 146 l 544 0 l 63 0 l 63 883 l 533 883 l 533 738 l 261 738 l 261 522 l 493 522 l 493 376 l 261 376 l 261 146 m 406 1090 l 406 928 l 210 928 l 210 1090 l 406 1090 z "},"ė":{"ha":596,"x_min":49,"x_max":557,"o":"m 224 688 l 381 688 q 557 533 557 688 l 557 290 l 233 290 l 233 172 q 242 147 233 154 q 271 139 250 139 l 333 139 q 361 147 353 139 q 369 175 369 156 l 369 221 l 556 221 l 556 154 q 379 0 556 0 l 224 0 q 49 154 49 0 l 49 533 q 224 688 49 688 m 233 404 l 371 404 l 371 515 q 363 541 371 533 q 335 549 354 549 l 271 549 q 242 541 250 549 q 233 515 233 533 l 233 404 m 400 913 l 400 750 l 204 750 l 204 913 l 400 913 z "},"Ę":{"ha":568,"x_min":63,"x_max":571,"o":"m 450 -237 l 571 -237 l 571 -354 l 421 -354 q 308 -320 342 -354 q 275 -219 275 -286 l 275 -161 q 308 -60 275 -94 q 421 -26 342 -26 l 429 -26 l 429 0 l 63 0 l 63 883 l 533 883 l 533 738 l 261 738 l 261 522 l 493 522 l 493 376 l 261 376 l 261 146 l 544 146 l 544 19 l 546 19 l 546 -143 l 450 -143 q 423 -150 431 -143 q 415 -174 415 -157 l 415 -208 q 423 -231 415 -225 q 450 -237 431 -237 z "},"ę":{"ha":596,"x_min":49,"x_max":557,"o":"m 224 688 l 381 688 q 557 533 557 688 l 557 290 l 233 290 l 233 172 q 242 147 233 154 q 271 139 250 139 l 333 139 q 361 147 353 139 q 369 175 369 156 l 369 221 l 556 221 l 556 154 q 379 0 556 0 l 375 0 l 375 -143 l 279 -143 q 252 -150 260 -143 q 244 -174 244 -157 l 244 -208 q 252 -231 244 -225 q 279 -237 260 -237 l 400 -237 l 400 -354 l 250 -354 q 138 -320 171 -354 q 104 -219 104 -286 l 104 -161 q 138 -60 104 -94 q 250 -26 171 -26 l 258 -26 l 258 0 l 224 0 q 49 154 49 0 l 49 533 q 224 688 49 688 m 233 404 l 371 404 l 371 515 q 363 541 371 533 q 335 549 354 549 l 271 549 q 242 541 250 549 q 233 515 233 533 l 233 404 z "},"Ě":{"ha":568,"x_min":44,"x_max":560,"o":"m 261 376 l 261 146 l 544 146 l 544 0 l 63 0 l 63 883 l 533 883 l 533 738 l 261 738 l 261 522 l 493 522 l 493 376 l 261 376 m 396 928 l 210 928 l 44 1126 l 229 1126 l 303 1025 l 376 1126 l 560 1126 l 396 928 z "},"ě":{"ha":596,"x_min":44,"x_max":560,"o":"m 224 688 l 381 688 q 557 533 557 688 l 557 290 l 233 290 l 233 172 q 242 147 233 154 q 271 139 250 139 l 333 139 q 361 147 353 139 q 369 175 369 156 l 369 221 l 556 221 l 556 154 q 379 0 556 0 l 224 0 q 49 154 49 0 l 49 533 q 224 688 49 688 m 233 404 l 371 404 l 371 515 q 363 541 371 533 q 335 549 354 549 l 271 549 q 242 541 250 549 q 233 515 233 533 l 233 404 m 396 732 l 210 732 l 44 931 l 229 931 l 303 829 l 376 931 l 560 931 l 396 732 z "},"Ğ":{"ha":633,"x_min":56,"x_max":585,"o":"m 585 597 l 386 597 l 386 713 q 349 747 386 747 l 292 747 q 254 713 254 747 l 254 171 q 263 144 254 151 q 292 136 271 136 l 349 136 q 378 144 369 136 q 386 171 386 151 l 386 343 l 317 343 l 317 475 l 585 475 l 585 153 q 410 0 585 0 l 231 0 q 56 153 56 0 l 56 731 q 231 883 56 883 l 410 883 q 585 731 585 883 l 585 597 m 389 928 l 250 928 q 74 1082 74 928 l 74 1126 l 247 1126 l 247 1078 q 256 1052 247 1060 q 285 1044 264 1044 l 354 1044 q 383 1052 375 1044 q 392 1078 392 1060 l 392 1126 l 565 1126 l 565 1082 q 389 928 565 928 z "},"ğ":{"ha":603,"x_min":46,"x_max":546,"o":"m 372 931 l 546 931 l 546 886 q 369 732 546 732 l 231 732 q 54 886 54 732 l 54 931 l 228 931 l 228 882 q 236 856 228 864 q 265 849 244 849 l 335 849 q 364 856 356 849 q 372 882 372 864 l 372 931 m 354 688 l 544 688 l 544 -31 q 369 -185 544 -185 l 75 -185 l 75 -43 l 314 -43 q 351 -8 351 -43 l 351 97 q 242 29 331 29 l 208 29 q 46 183 46 29 l 46 533 q 208 688 46 688 l 242 688 q 354 610 335 688 l 354 688 m 278 175 l 310 175 q 351 219 351 175 l 351 497 q 310 542 351 542 l 278 542 q 240 507 240 542 l 240 210 q 278 175 240 175 z "},"Ģ":{"ha":633,"x_min":56,"x_max":585,"o":"m 585 597 l 386 597 l 386 713 q 349 747 386 747 l 292 747 q 254 713 254 747 l 254 171 q 263 144 254 151 q 292 136 271 136 l 349 136 q 378 144 369 136 q 386 171 386 151 l 386 343 l 317 343 l 317 475 l 585 475 l 585 153 q 410 0 585 0 l 231 0 q 56 153 56 0 l 56 731 q 231 883 56 883 l 410 883 q 585 731 585 883 l 585 597 m 233 -379 l 233 -67 l 429 -67 l 429 -167 l 296 -379 l 233 -379 z "},"ģ":{"ha":603,"x_min":46,"x_max":544,"o":"m 354 688 l 544 688 l 544 -31 q 369 -185 544 -185 l 75 -185 l 75 -43 l 314 -43 q 351 -8 351 -43 l 351 97 q 242 29 331 29 l 208 29 q 46 183 46 29 l 46 533 q 208 688 46 688 l 242 688 q 354 610 335 688 l 354 688 m 278 175 l 310 175 q 351 219 351 175 l 351 497 q 310 542 351 542 l 278 542 q 240 507 240 542 l 240 210 q 278 175 240 175 m 414 1044 l 414 732 l 218 732 l 218 832 l 351 1044 l 414 1044 z "},"Ī":{"ha":331,"x_min":-72,"x_max":404,"o":"m -72 936 l -72 1063 l 404 1063 l 404 936 l -72 936 m 67 883 l 264 883 l 264 0 l 67 0 l 67 883 z "},"ī":{"ha":310,"x_min":-85,"x_max":392,"o":"m -85 769 l -85 896 l 392 896 l 392 769 l -85 769 m 251 0 l 58 0 l 58 688 l 251 688 l 251 0 z "},"Į":{"ha":331,"x_min":-6,"x_max":290,"o":"m 169 -237 l 290 -237 l 290 -354 l 140 -354 q 28 -320 61 -354 q -6 -219 -6 -286 l -6 -161 q 28 -60 -6 -94 q 140 -26 61 -26 l 149 -26 l 149 0 l 67 0 l 67 883 l 264 883 l 264 19 l 265 19 l 265 -143 l 169 -143 q 142 -150 150 -143 q 135 -174 135 -157 l 135 -208 q 142 -231 135 -225 q 169 -237 150 -237 z "},"į":{"ha":310,"x_min":-19,"x_max":276,"o":"m 156 -237 l 276 -237 l 276 -354 l 126 -354 q 14 -320 47 -354 q -19 -219 -19 -286 l -19 -161 q 14 -60 -19 -94 q 126 -26 47 -26 l 135 -26 l 135 0 l 58 0 l 58 688 l 251 688 l 251 -143 l 156 -143 q 128 -150 136 -143 q 121 -174 121 -157 l 121 -208 q 128 -231 121 -225 q 156 -237 136 -237 m 256 929 l 256 779 l 54 779 l 54 929 l 256 929 z "},"İ":{"ha":331,"x_min":67,"x_max":264,"o":"m 68 935 l 68 1097 l 264 1097 l 264 935 l 68 935 m 67 883 l 264 883 l 264 0 l 67 0 l 67 883 z "},"ı":{"ha":310,"x_min":58,"x_max":251,"o":"m 251 0 l 58 0 l 58 688 l 251 688 l 251 0 z "},"Ķ":{"ha":660,"x_min":63,"x_max":649,"o":"m 649 883 l 471 447 l 649 0 l 435 0 l 264 447 l 435 883 l 649 883 m 226 -379 l 226 -67 l 422 -67 l 422 -167 l 289 -379 l 226 -379 m 260 883 l 260 0 l 63 0 l 63 883 l 260 883 z "},"ķ":{"ha":597,"x_min":58,"x_max":600,"o":"m 600 688 l 449 353 l 600 0 l 397 0 l 253 353 l 399 688 l 600 688 m 214 -379 l 214 -67 l 410 -67 l 410 -167 l 275 -379 l 214 -379 m 251 929 l 251 0 l 58 0 l 58 929 l 251 929 z "},"Ĺ":{"ha":515,"x_min":63,"x_max":514,"o":"m 260 146 l 514 146 l 514 0 l 63 0 l 63 883 l 260 883 l 260 146 m 414 1126 l 243 928 l 88 928 l 214 1126 l 414 1126 z "},"ĺ":{"ha":310,"x_min":58,"x_max":401,"o":"m 251 0 l 58 0 l 58 929 l 251 929 l 251 0 m 75 974 l 201 1172 l 401 1172 l 231 974 l 75 974 z "},"Ļ":{"ha":515,"x_min":63,"x_max":514,"o":"m 260 146 l 514 146 l 514 0 l 63 0 l 63 883 l 260 883 l 260 146 m 188 -379 l 188 -67 l 383 -67 l 383 -167 l 250 -379 l 188 -379 z "},"ļ":{"ha":310,"x_min":57,"x_max":253,"o":"m 57 -67 l 253 -67 l 253 -167 l 118 -379 l 57 -379 l 57 -67 m 251 0 l 58 0 l 58 929 l 251 929 l 251 0 z "},"Ľ":{"ha":515,"x_min":-99,"x_max":514,"o":"m 260 146 l 514 146 l 514 0 l 63 0 l 63 883 l 260 883 l 260 146 m 253 931 l 67 931 l -99 1129 l 86 1129 l 160 1028 l 233 1129 l 417 1129 l 253 931 z "},"ľ":{"ha":369,"x_min":58,"x_max":449,"o":"m 251 0 l 58 0 l 58 929 l 251 929 l 251 0 m 310 929 l 449 929 l 449 838 l 360 656 l 310 656 l 310 929 z "},"Ł":{"ha":538,"x_min":-46,"x_max":524,"o":"m 269 146 l 524 146 l 524 0 l 72 0 l 72 338 l -46 282 l -46 418 l 72 474 l 72 883 l 269 883 l 269 568 l 418 639 l 418 503 l 269 432 l 269 146 z "},"ł":{"ha":324,"x_min":-65,"x_max":397,"o":"m 258 0 l 65 0 l 65 404 l -65 342 l -65 478 l 65 540 l 65 929 l 258 929 l 258 632 l 397 699 l 397 563 l 258 496 l 258 0 z "},"Ń":{"ha":675,"x_min":63,"x_max":614,"o":"m 432 883 l 614 883 l 614 0 l 436 0 l 243 529 l 243 0 l 63 0 l 63 883 l 242 883 l 432 356 l 432 883 m 250 928 l 376 1126 l 576 1126 l 406 928 l 250 928 z "},"ń":{"ha":610,"x_min":58,"x_max":557,"o":"m 360 688 l 394 688 q 557 533 557 688 l 557 0 l 363 0 l 363 507 q 325 542 363 542 l 292 542 q 251 497 251 542 l 251 0 l 58 0 l 58 688 l 249 688 l 249 610 q 360 688 268 688 m 535 931 l 364 732 l 208 732 l 335 931 l 535 931 z "},"Ņ":{"ha":675,"x_min":63,"x_max":614,"o":"m 228 -67 l 424 -67 l 424 -167 l 290 -379 l 228 -379 l 228 -67 m 432 883 l 614 883 l 614 0 l 436 0 l 243 529 l 243 0 l 63 0 l 63 883 l 242 883 l 432 356 l 432 883 z "},"ņ":{"ha":610,"x_min":58,"x_max":557,"o":"m 360 688 l 394 688 q 557 533 557 688 l 557 0 l 363 0 l 363 507 q 325 542 363 542 l 292 542 q 251 497 251 542 l 251 0 l 58 0 l 58 688 l 249 688 l 249 610 q 360 688 268 688 m 208 -379 l 208 -67 l 404 -67 l 404 -167 l 271 -379 l 208 -379 z "},"Ň":{"ha":675,"x_min":63,"x_max":614,"o":"m 432 883 l 614 883 l 614 0 l 436 0 l 243 529 l 243 0 l 63 0 l 63 883 l 242 883 l 432 356 l 432 883 m 244 928 l 79 1126 l 264 1126 l 338 1025 l 411 1126 l 594 1126 l 431 928 l 244 928 z "},"ň":{"ha":610,"x_min":35,"x_max":557,"o":"m 360 688 l 394 688 q 557 533 557 688 l 557 0 l 363 0 l 363 507 q 325 542 363 542 l 292 542 q 251 497 251 542 l 251 0 l 58 0 l 58 688 l 249 688 l 249 610 q 360 688 268 688 m 386 732 l 200 732 l 35 931 l 219 931 l 293 829 l 367 931 l 550 931 l 386 732 z "},"Ō":{"ha":651,"x_min":57,"x_max":594,"o":"m 233 883 l 419 883 q 594 731 594 883 l 594 154 q 419 0 594 0 l 233 0 q 57 154 57 0 l 57 731 q 233 883 57 883 m 396 181 l 396 703 q 360 738 396 738 l 293 738 q 256 703 256 738 l 256 181 q 293 146 256 146 l 360 146 q 396 181 396 146 m 564 1056 l 564 929 l 88 929 l 88 1056 l 564 1056 z "},"ō":{"ha":610,"x_min":51,"x_max":558,"o":"m 222 688 l 388 688 q 519 648 479 688 q 558 533 558 608 l 558 154 q 519 40 558 79 q 388 0 479 0 l 222 0 q 91 40 131 0 q 51 154 51 79 l 51 533 q 91 648 51 608 q 222 688 131 688 m 368 174 l 368 514 q 331 549 368 549 l 279 549 q 242 514 242 549 l 242 174 q 279 139 242 139 l 331 139 q 368 174 368 139 m 535 896 l 535 769 l 58 769 l 58 896 l 535 896 z "},"Ő":{"ha":636,"x_min":57,"x_max":676,"o":"m 233 883 l 419 883 q 594 731 594 883 l 594 154 q 419 0 594 0 l 233 0 q 57 154 57 0 l 57 731 q 233 883 57 883 m 396 181 l 396 703 q 360 738 396 738 l 293 738 q 256 703 256 738 l 256 181 q 293 146 256 146 l 360 146 q 396 181 396 146 m 450 1126 l 279 928 l 149 928 l 276 1126 l 450 1126 m 506 928 l 375 928 l 503 1126 l 676 1126 l 506 928 z "},"ő":{"ha":610,"x_min":51,"x_max":647,"o":"m 222 688 l 388 688 q 519 648 479 688 q 558 533 558 608 l 558 154 q 519 40 558 79 q 388 0 479 0 l 222 0 q 91 40 131 0 q 51 154 51 79 l 51 533 q 91 648 51 608 q 222 688 131 688 m 368 174 l 368 514 q 331 549 368 549 l 279 549 q 242 514 242 549 l 242 174 q 279 139 242 139 l 331 139 q 368 174 368 139 m 421 931 l 250 732 l 119 732 l 247 931 l 421 931 m 476 732 l 346 732 l 474 931 l 647 931 l 476 732 z "},"Œ":{"ha":935,"x_min":85,"x_max":892,"o":"m 607 136 l 892 136 l 892 0 l 461 0 l 461 26 q 368 0 426 0 l 260 0 q 85 154 85 0 l 85 731 q 260 883 85 883 l 368 883 q 461 856 426 883 l 461 883 l 879 883 l 879 747 l 607 747 l 607 518 l 839 518 l 839 381 l 607 381 l 607 136 m 424 171 l 424 713 q 386 747 424 747 l 319 747 q 282 713 282 747 l 282 171 q 319 136 282 136 l 386 136 q 424 171 424 136 z "},"œ":{"ha":1026,"x_min":53,"x_max":867,"o":"m 596 688 l 690 688 q 867 533 867 688 l 867 286 l 547 286 l 547 175 q 556 149 547 157 q 585 142 564 142 l 639 142 q 668 149 660 142 q 676 175 676 157 l 676 218 l 865 218 l 865 154 q 689 0 865 0 l 594 0 q 444 71 482 0 q 392 19 429 39 q 310 0 354 0 l 215 0 q 53 154 53 0 l 53 533 q 215 688 53 688 l 311 688 q 393 668 356 688 q 446 617 431 649 q 596 688 483 688 m 317 542 l 285 542 q 247 507 247 542 l 247 181 q 285 146 247 146 l 317 146 q 358 188 357 146 l 358 500 q 317 542 357 542 m 547 407 l 678 407 l 678 511 q 640 546 678 546 l 585 546 q 556 538 564 546 q 547 511 547 531 l 547 407 z "},"Ŕ":{"ha":651,"x_min":63,"x_max":646,"o":"m 260 331 l 260 0 l 63 0 l 63 883 l 426 883 q 601 731 601 883 l 601 483 q 490 336 601 361 l 646 0 l 433 0 l 294 331 l 260 331 m 260 738 l 260 471 l 367 471 q 394 478 386 471 q 403 504 403 486 l 403 703 q 367 738 403 738 l 260 738 m 560 1126 l 389 928 l 233 928 l 360 1126 l 560 1126 z "},"ŕ":{"ha":414,"x_min":58,"x_max":481,"o":"m 249 688 l 249 589 q 294 663 260 635 q 383 692 329 692 l 407 692 l 407 524 l 339 524 q 251 426 251 524 l 251 0 l 58 0 l 58 688 l 249 688 m 481 931 l 310 732 l 154 732 l 281 931 l 481 931 z "},"Ŗ":{"ha":651,"x_min":63,"x_max":646,"o":"m 260 331 l 260 0 l 63 0 l 63 883 l 426 883 q 601 731 601 883 l 601 483 q 490 336 601 361 l 646 0 l 433 0 l 294 331 l 260 331 m 260 738 l 260 471 l 367 471 q 394 478 386 471 q 403 504 403 486 l 403 703 q 367 738 403 738 l 260 738 m 221 -379 l 221 -67 l 417 -67 l 417 -167 l 283 -379 l 221 -379 z "},"ŗ":{"ha":414,"x_min":57,"x_max":407,"o":"m 383 692 l 407 692 l 407 524 l 339 524 q 251 426 251 524 l 251 0 l 58 0 l 58 688 l 249 688 l 249 589 q 294 663 260 635 q 383 692 329 692 m 57 -379 l 57 -67 l 253 -67 l 253 -167 l 119 -379 l 57 -379 z "},"Ř":{"ha":651,"x_min":63,"x_max":646,"o":"m 260 331 l 260 0 l 63 0 l 63 883 l 426 883 q 601 731 601 883 l 601 483 q 490 336 601 361 l 646 0 l 433 0 l 294 331 l 260 331 m 260 738 l 260 471 l 367 471 q 394 478 386 471 q 403 504 403 486 l 403 703 q 367 738 403 738 l 260 738 m 415 928 l 229 928 l 64 1126 l 249 1126 l 322 1025 l 396 1126 l 579 1126 l 415 928 z "},"ř":{"ha":414,"x_min":-26,"x_max":489,"o":"m 249 688 l 249 589 q 294 663 260 635 q 383 692 329 692 l 407 692 l 407 524 l 339 524 q 251 426 251 524 l 251 0 l 58 0 l 58 688 l 249 688 m 325 732 l 139 732 l -26 931 l 158 931 l 232 829 l 306 931 l 489 931 l 325 732 z "},"Ś":{"ha":614,"x_min":46,"x_max":568,"o":"m 369 181 l 369 340 q 361 366 369 358 q 332 374 353 374 l 210 374 q 46 529 46 374 l 46 731 q 221 883 46 883 l 390 883 q 565 731 565 883 l 565 615 l 367 615 l 367 703 q 329 738 367 738 l 282 738 q 244 703 244 738 l 244 547 q 253 522 244 529 q 282 514 261 514 l 401 514 q 529 476 490 514 q 568 363 568 438 l 568 154 q 393 0 568 0 l 225 0 q 49 154 49 0 l 49 268 l 247 268 l 247 181 q 285 146 247 146 l 332 146 q 369 181 369 146 m 242 928 l 368 1126 l 568 1126 l 397 928 l 242 928 z "},"ś":{"ha":557,"x_min":39,"x_max":536,"o":"m 329 165 l 329 243 q 321 269 329 261 q 292 276 313 276 l 213 276 q 39 429 39 276 l 39 533 q 215 688 39 688 l 333 688 q 510 533 510 688 l 510 472 l 324 472 l 324 522 q 315 548 324 540 q 286 556 307 556 l 265 556 q 236 548 244 556 q 228 522 228 540 l 228 439 q 236 413 228 421 q 265 406 244 406 l 344 406 q 518 254 518 406 l 518 154 q 342 0 518 0 l 218 0 q 43 154 43 0 l 43 214 l 232 214 l 232 165 q 268 131 232 131 l 292 131 q 329 165 329 131 m 210 732 l 336 931 l 536 931 l 365 732 l 210 732 z "},"Ş":{"ha":614,"x_min":46,"x_max":568,"o":"m 204 -67 l 400 -67 l 400 -167 l 267 -379 l 204 -379 l 204 -67 m 369 181 l 369 340 q 361 366 369 358 q 332 374 353 374 l 210 374 q 46 529 46 374 l 46 731 q 221 883 46 883 l 390 883 q 565 731 565 883 l 565 615 l 367 615 l 367 703 q 329 738 367 738 l 282 738 q 244 703 244 738 l 244 547 q 253 522 244 529 q 282 514 261 514 l 401 514 q 529 476 490 514 q 568 363 568 438 l 568 154 q 393 0 568 0 l 225 0 q 49 154 49 0 l 49 268 l 247 268 l 247 181 q 285 146 247 146 l 332 146 q 369 181 369 146 z "},"ş":{"ha":557,"x_min":39,"x_max":518,"o":"m 179 -67 l 375 -67 l 375 -167 l 242 -379 l 179 -379 l 179 -67 m 329 165 l 329 243 q 321 269 329 261 q 292 276 313 276 l 213 276 q 39 429 39 276 l 39 533 q 215 688 39 688 l 333 688 q 510 533 510 688 l 510 472 l 324 472 l 324 522 q 315 548 324 540 q 286 556 307 556 l 265 556 q 236 548 244 556 q 228 522 228 540 l 228 439 q 236 413 228 421 q 265 406 244 406 l 344 406 q 518 254 518 406 l 518 154 q 342 0 518 0 l 218 0 q 43 154 43 0 l 43 214 l 232 214 l 232 165 q 268 131 232 131 l 292 131 q 329 165 329 131 z "},"Š":{"ha":614,"x_min":46,"x_max":568,"o":"m 369 181 l 369 340 q 361 366 369 358 q 332 374 353 374 l 210 374 q 46 529 46 374 l 46 731 q 221 883 46 883 l 390 883 q 565 731 565 883 l 565 615 l 367 615 l 367 703 q 329 738 367 738 l 282 738 q 244 703 244 738 l 244 547 q 253 522 244 529 q 282 514 261 514 l 401 514 q 529 476 490 514 q 568 363 568 438 l 568 154 q 393 0 568 0 l 225 0 q 49 154 49 0 l 49 268 l 247 268 l 247 181 q 285 146 247 146 l 332 146 q 369 181 369 146 m 214 928 l 49 1126 l 233 1126 l 307 1025 l 381 1126 l 564 1126 l 400 928 l 214 928 z "},"š":{"ha":557,"x_min":18,"x_max":533,"o":"m 329 165 l 329 243 q 321 269 329 261 q 292 276 313 276 l 213 276 q 39 429 39 276 l 39 533 q 215 688 39 688 l 333 688 q 510 533 510 688 l 510 472 l 324 472 l 324 522 q 315 548 324 540 q 286 556 307 556 l 265 556 q 236 548 244 556 q 228 522 228 540 l 228 439 q 236 413 228 421 q 265 406 244 406 l 344 406 q 518 254 518 406 l 518 154 q 342 0 518 0 l 218 0 q 43 154 43 0 l 43 214 l 232 214 l 232 165 q 268 131 232 131 l 292 131 q 329 165 329 131 m 183 732 l 18 931 l 203 931 l 276 829 l 350 931 l 533 931 l 369 732 l 183 732 z "},"Ţ":{"ha":536,"x_min":7,"x_max":529,"o":"m 529 883 l 529 738 l 367 738 l 367 0 l 168 0 l 168 738 l 7 738 l 7 883 l 529 883 m 169 -379 l 169 -67 l 365 -67 l 365 -167 l 232 -379 l 169 -379 z "},"ţ":{"ha":536,"x_min":7,"x_max":529,"o":"m 529 883 l 529 738 l 367 738 l 367 0 l 168 0 l 168 738 l 7 738 l 7 883 l 529 883 m 169 -379 l 169 -67 l 365 -67 l 365 -167 l 232 -379 l 169 -379 z "},"Ť":{"ha":536,"x_min":7,"x_max":529,"o":"m 529 883 l 529 738 l 367 738 l 367 0 l 168 0 l 168 738 l 7 738 l 7 883 l 529 883 m 358 928 l 172 928 l 7 1126 l 192 1126 l 265 1025 l 339 1126 l 522 1126 l 358 928 z "},"ť":{"ha":376,"x_min":7,"x_max":476,"o":"m 332 983 l 476 983 l 476 892 l 382 736 l 332 736 l 332 983 m 272 815 l 272 688 l 363 688 l 363 542 l 272 542 l 272 182 q 310 149 272 149 l 363 149 l 363 0 l 254 0 q 79 154 79 0 l 79 542 l 7 542 l 7 688 l 79 688 l 79 815 l 272 815 z "},"Ū":{"ha":660,"x_min":61,"x_max":599,"o":"m 400 883 l 599 883 l 599 154 q 422 0 599 0 l 236 0 q 61 154 61 0 l 61 883 l 260 883 l 260 181 q 296 146 260 146 l 363 146 q 400 181 400 146 l 400 883 m 568 1056 l 568 929 l 92 929 l 92 1056 l 568 1056 z "},"ū":{"ha":610,"x_min":53,"x_max":551,"o":"m 358 688 l 551 688 l 551 0 l 361 0 l 361 78 q 249 0 342 0 l 215 0 q 53 154 53 0 l 53 688 l 247 688 l 247 181 q 285 146 247 146 l 317 146 q 358 190 358 146 l 358 688 m 539 896 l 539 769 l 63 769 l 63 896 l 539 896 z "},"Ů":{"ha":660,"x_min":61,"x_max":599,"o":"m 400 883 l 599 883 l 599 154 q 422 0 599 0 l 236 0 q 61 154 61 0 l 61 883 l 260 883 l 260 181 q 296 146 260 146 l 363 146 q 400 181 400 146 l 400 883 m 383 928 l 275 928 q 149 1042 149 928 l 149 1064 q 275 1178 149 1178 l 383 1178 q 510 1064 510 1178 l 510 1042 q 383 928 510 928 m 274 1060 l 274 1044 q 280 1022 274 1028 q 304 1015 286 1015 l 354 1015 q 379 1022 372 1015 q 386 1044 386 1028 l 386 1060 q 379 1083 386 1076 q 354 1090 372 1090 l 304 1090 q 280 1083 286 1090 q 274 1060 274 1076 z "},"ů":{"ha":610,"x_min":53,"x_max":551,"o":"m 358 688 l 551 688 l 551 0 l 361 0 l 361 78 q 249 0 342 0 l 215 0 q 53 154 53 0 l 53 688 l 247 688 l 247 181 q 285 146 247 146 l 317 146 q 358 190 358 146 l 358 688 m 365 732 l 257 732 q 131 846 131 732 l 131 868 q 257 982 131 982 l 365 982 q 492 868 492 982 l 492 846 q 365 732 492 732 m 256 864 l 256 849 q 262 826 256 832 q 286 819 268 819 l 336 819 q 361 826 354 819 q 368 849 368 832 l 368 864 q 361 888 368 881 q 336 894 354 894 l 286 894 q 262 888 268 894 q 256 864 256 881 z "},"Ű":{"ha":638,"x_min":61,"x_max":668,"o":"m 400 181 l 400 883 l 599 883 l 599 154 q 422 0 599 0 l 236 0 q 61 154 61 0 l 61 883 l 260 883 l 260 181 q 296 146 260 146 l 363 146 q 400 181 400 146 m 442 1126 l 271 928 l 140 928 l 268 1126 l 442 1126 m 497 928 l 367 928 l 494 1126 l 668 1126 l 497 928 z "},"ű":{"ha":610,"x_min":53,"x_max":646,"o":"m 358 688 l 551 688 l 551 0 l 361 0 l 361 78 q 249 0 342 0 l 215 0 q 53 154 53 0 l 53 688 l 247 688 l 247 181 q 285 146 247 146 l 317 146 q 358 190 358 146 l 358 688 m 419 931 l 249 732 l 118 732 l 246 931 l 419 931 m 475 732 l 344 732 l 472 931 l 646 931 l 475 732 z "},"Ų":{"ha":660,"x_min":61,"x_max":599,"o":"m 400 883 l 599 883 l 599 154 q 422 0 599 0 l 401 0 l 401 -143 l 306 -143 q 278 -150 286 -143 q 271 -174 271 -157 l 271 -208 q 278 -231 271 -225 q 306 -237 286 -237 l 426 -237 l 426 -354 l 276 -354 q 164 -320 197 -354 q 131 -219 131 -286 l 131 -161 q 164 -60 131 -94 q 276 -26 197 -26 l 285 -26 l 285 0 l 236 0 q 61 154 61 0 l 61 883 l 260 883 l 260 181 q 296 146 260 146 l 363 146 q 400 181 400 146 l 400 883 z "},"ų":{"ha":610,"x_min":53,"x_max":578,"o":"m 457 -237 l 578 -237 l 578 -354 l 428 -354 q 315 -320 349 -354 q 282 -219 282 -286 l 282 -161 q 315 -60 282 -94 q 428 -26 349 -26 l 436 -26 l 436 0 l 361 0 l 361 78 q 249 0 342 0 l 215 0 q 53 154 53 0 l 53 688 l 247 688 l 247 181 q 285 146 247 146 l 317 146 q 358 190 358 146 l 358 688 l 551 688 l 551 19 l 553 19 l 553 -143 l 457 -143 q 430 -150 438 -143 q 422 -174 422 -157 l 422 -208 q 430 -231 422 -225 q 457 -237 438 -237 z "},"Ÿ":{"ha":619,"x_min":3,"x_max":636,"o":"m 424 0 l 225 0 l 225 286 l 3 883 l 206 883 l 324 468 l 433 883 l 636 883 l 424 285 l 424 0 m 250 1107 l 250 946 l 65 946 l 65 1107 l 250 1107 m 557 1107 l 557 946 l 372 946 l 372 1107 l 557 1107 z "},"Ź":{"ha":565,"x_min":22,"x_max":543,"o":"m 543 883 l 543 738 l 228 146 l 535 146 l 535 0 l 22 0 l 22 146 l 338 738 l 39 738 l 39 883 l 543 883 m 535 1126 l 364 928 l 208 928 l 335 1126 l 535 1126 z "},"ź":{"ha":492,"x_min":17,"x_max":497,"o":"m 475 140 l 475 0 l 17 0 l 17 140 l 260 547 l 33 547 l 33 688 l 465 688 l 465 547 l 219 140 l 475 140 m 497 931 l 326 732 l 171 732 l 297 931 l 497 931 z "},"Ż":{"ha":565,"x_min":22,"x_max":543,"o":"m 543 883 l 543 738 l 228 146 l 535 146 l 535 0 l 22 0 l 22 146 l 338 738 l 39 738 l 39 883 l 543 883 m 396 1090 l 396 928 l 200 928 l 200 1090 l 396 1090 z "},"ż":{"ha":492,"x_min":17,"x_max":475,"o":"m 475 140 l 475 0 l 17 0 l 17 140 l 260 547 l 33 547 l 33 688 l 465 688 l 465 547 l 219 140 l 475 140 m 353 913 l 353 750 l 157 750 l 157 913 l 353 913 z "},"Ž":{"ha":565,"x_min":22,"x_max":557,"o":"m 39 738 l 39 883 l 543 883 l 543 738 l 228 146 l 535 146 l 535 0 l 22 0 l 22 146 l 338 738 l 39 738 m 393 928 l 207 928 l 42 1126 l 226 1126 l 300 1025 l 374 1126 l 557 1126 l 393 928 z "},"ž":{"ha":492,"x_min":-7,"x_max":508,"o":"m 475 140 l 475 0 l 17 0 l 17 140 l 260 547 l 33 547 l 33 688 l 465 688 l 465 547 l 219 140 l 475 140 m 344 732 l 158 732 l -7 931 l 178 931 l 251 829 l 325 931 l 508 931 l 344 732 z "},"ƒ":{"ha":574,"x_min":-3,"x_max":519,"o":"m 519 781 l 449 781 q 421 774 428 781 q 411 747 414 767 l 403 688 l 518 688 l 518 542 l 382 542 l 300 -49 q 251 -163 289 -125 q 124 -201 213 -201 l -3 -201 l -3 -54 l 68 -54 q 96 -47 89 -54 q 106 -19 103 -39 l 183 542 l 93 542 l 93 688 l 204 688 l 217 776 q 266 891 228 853 q 393 929 304 929 l 519 929 l 519 781 z "},"Ș":{"ha":614,"x_min":46,"x_max":568,"o":"m 206 -67 l 401 -67 l 401 -167 l 268 -379 l 206 -379 l 206 -67 m 369 181 l 369 340 q 361 366 369 358 q 332 374 353 374 l 210 374 q 46 529 46 374 l 46 731 q 221 883 46 883 l 390 883 q 565 731 565 883 l 565 615 l 367 615 l 367 703 q 329 738 367 738 l 282 738 q 244 703 244 738 l 244 547 q 253 522 244 529 q 282 514 261 514 l 401 514 q 529 476 490 514 q 568 363 568 438 l 568 154 q 393 0 568 0 l 225 0 q 49 154 49 0 l 49 268 l 247 268 l 247 181 q 285 146 247 146 l 332 146 q 369 181 369 146 z "},"ș":{"ha":557,"x_min":39,"x_max":518,"o":"m 176 -67 l 372 -67 l 372 -167 l 239 -379 l 176 -379 l 176 -67 m 329 165 l 329 243 q 321 269 329 261 q 292 276 313 276 l 213 276 q 39 429 39 276 l 39 533 q 215 688 39 688 l 333 688 q 510 533 510 688 l 510 472 l 324 472 l 324 522 q 315 548 324 540 q 286 556 307 556 l 265 556 q 236 548 244 556 q 228 522 228 540 l 228 439 q 236 413 228 421 q 265 406 244 406 l 344 406 q 518 254 518 406 l 518 154 q 342 0 518 0 l 218 0 q 43 154 43 0 l 43 214 l 232 214 l 232 165 q 268 131 232 131 l 292 131 q 329 165 329 131 z "},"Ț":{"ha":536,"x_min":7,"x_max":529,"o":"m 529 883 l 529 738 l 367 738 l 367 0 l 168 0 l 168 738 l 7 738 l 7 883 l 529 883 m 169 -379 l 169 -67 l 365 -67 l 365 -167 l 232 -379 l 169 -379 z "},"ț":{"ha":376,"x_min":7,"x_max":363,"o":"m 363 542 l 272 542 l 272 182 q 310 149 272 149 l 363 149 l 363 0 l 254 0 q 79 154 79 0 l 79 542 l 7 542 l 7 688 l 79 688 l 79 815 l 272 815 l 272 688 l 363 688 l 363 542 m 113 -379 l 113 -67 l 308 -67 l 308 -167 l 174 -379 l 113 -379 z "},"ˆ":{"ha":653,"x_min":68,"x_max":583,"o":"m 68 732 l 233 931 l 419 931 l 583 732 l 400 732 l 326 835 l 253 732 l 68 732 z "},"ˇ":{"ha":653,"x_min":68,"x_max":583,"o":"m 233 732 l 68 931 l 253 931 l 326 829 l 400 931 l 583 931 l 419 732 l 233 732 z "},"ˉ":{"ha":653,"x_min":88,"x_max":564,"o":"m 88 768 l 88 896 l 564 896 l 564 768 l 88 768 z "},"˘":{"ha":653,"x_min":81,"x_max":572,"o":"m 399 931 l 572 931 l 572 886 q 396 732 572 732 l 257 732 q 81 886 81 732 l 81 931 l 254 931 l 254 882 q 263 856 254 864 q 292 849 271 849 l 361 849 q 390 856 382 849 q 399 882 399 864 l 399 931 z "},"˙":{"ha":653,"x_min":229,"x_max":425,"o":"m 229 750 l 229 913 l 425 913 l 425 750 l 229 750 z "},"˚":{"ha":653,"x_min":146,"x_max":507,"o":"m 383 824 l 383 839 q 376 863 383 856 q 351 869 369 869 l 301 869 q 277 863 283 869 q 271 839 271 856 l 271 824 q 277 801 271 807 q 301 794 283 794 l 351 794 q 376 801 369 794 q 383 824 383 807 m 507 843 l 507 821 q 381 707 507 707 l 272 707 q 146 821 146 707 l 146 843 q 272 957 146 957 l 381 957 q 507 843 507 957 z "},"˛":{"ha":653,"x_min":188,"x_max":483,"o":"m 363 -237 l 483 -237 l 483 -354 l 333 -354 q 221 -320 254 -354 q 188 -219 188 -286 l 188 -161 q 221 -60 188 -94 q 333 -26 254 -26 l 342 -26 l 342 19 l 458 19 l 458 -143 l 363 -143 q 335 -150 343 -143 q 328 -174 328 -157 l 328 -208 q 335 -231 328 -225 q 363 -237 343 -237 z "},"˜":{"ha":653,"x_min":83,"x_max":569,"o":"m 422 740 q 328 773 381 740 q 264 806 275 806 q 240 775 240 806 l 240 740 l 83 740 l 83 799 q 112 892 83 860 q 210 924 140 924 l 231 924 q 324 891 272 924 q 386 858 376 858 q 413 889 413 858 l 413 924 l 569 924 l 569 858 q 541 769 569 799 q 442 740 513 740 l 422 740 z "},"˝":{"ha":653,"x_min":63,"x_max":590,"o":"m 63 732 l 190 931 l 364 931 l 193 732 l 63 732 m 289 732 l 417 931 l 590 931 l 419 732 l 289 732 z "},"π":{"ha":721,"x_min":10,"x_max":711,"o":"m 711 688 l 711 551 l 613 551 l 613 0 l 414 0 l 414 551 l 288 551 l 288 154 q 113 0 288 0 l 10 0 l 10 149 l 57 149 q 86 156 78 149 q 94 182 94 164 l 94 688 l 711 688 z "},"ँ":{"ha":0,"x_min":-453,"x_max":142,"o":"m -229 1278 l -83 1278 l -83 1124 l -229 1124 l -229 1278 m -453 1192 l -290 1192 l -290 1106 q -282 1075 -290 1083 q -250 1067 -274 1067 l -62 1067 q -31 1075 -39 1067 q -22 1106 -22 1083 l -22 1192 l 142 1192 l 142 1082 q 99 985 142 1017 q -40 953 57 953 l -272 953 q -410 985 -368 953 q -453 1082 -453 1017 l -453 1192 z "},"ं":{"ha":0,"x_min":-231,"x_max":-81,"o":"m -231 1172 l -81 1172 l -81 1011 l -231 1011 l -231 1172 z "},"ः":{"ha":318,"x_min":85,"x_max":233,"o":"m 85 679 l 233 679 l 233 518 l 85 518 l 85 679 m 85 244 l 233 244 l 233 83 l 85 83 l 85 244 z "},"अ":{"ha":918,"x_min":63,"x_max":946,"o":"m 946 883 l 946 749 l 857 749 l 857 0 l 663 0 l 663 368 l 553 368 l 553 256 q 515 145 553 182 q 385 108 476 108 l 231 108 q 101 145 139 108 q 63 256 63 182 l 63 375 l 256 375 l 256 275 q 292 243 256 243 l 324 243 q 352 250 344 243 q 360 275 360 257 l 360 393 q 351 422 360 414 q 322 431 343 431 l 263 431 l 263 564 l 322 564 q 351 572 343 564 q 360 601 360 581 l 360 721 q 352 747 360 740 q 324 754 344 754 l 292 754 q 264 747 272 754 q 256 721 256 740 l 256 632 l 63 632 l 63 742 q 101 852 63 815 q 231 889 139 889 l 385 889 q 515 852 476 889 q 553 742 553 815 l 553 575 q 506 503 553 515 l 663 503 l 663 883 l 946 883 z "},"आ":{"ha":1236,"x_min":63,"x_max":1264,"o":"m 1264 883 l 1264 749 l 1174 749 l 1174 0 l 981 0 l 981 749 l 857 749 l 857 0 l 663 0 l 663 368 l 553 368 l 553 256 q 515 145 553 182 q 385 108 476 108 l 231 108 q 101 145 139 108 q 63 256 63 182 l 63 375 l 256 375 l 256 275 q 292 243 256 243 l 324 243 q 352 250 344 243 q 360 275 360 257 l 360 393 q 351 422 360 414 q 322 431 343 431 l 263 431 l 263 564 l 322 564 q 351 572 343 564 q 360 601 360 581 l 360 721 q 352 747 360 740 q 324 754 344 754 l 292 754 q 264 747 272 754 q 256 721 256 740 l 256 632 l 63 632 l 63 742 q 101 852 63 815 q 231 889 139 889 l 385 889 q 515 852 476 889 q 553 742 553 815 l 553 575 q 506 503 553 515 l 663 503 l 663 883 l 1264 883 z "},"इ":{"ha":590,"x_min":-28,"x_max":618,"o":"m 521 536 l 274 536 q 245 529 253 536 q 238 504 238 522 l 238 464 q 245 439 238 446 q 274 432 253 432 l 374 432 q 505 399 467 432 q 543 294 543 367 l 543 169 q 505 65 543 97 q 374 32 467 32 l 243 32 l 243 -60 l 49 -60 l 49 240 l 243 240 l 243 157 l 314 157 q 341 164 333 157 q 349 190 349 171 l 349 275 q 341 300 349 293 q 314 307 333 307 l 213 307 q 82 340 119 307 q 44 444 44 372 l 44 524 q 82 628 44 596 q 213 661 119 661 l 326 661 l 326 749 l -28 749 l -28 883 l 618 883 l 618 749 l 521 749 l 521 536 z "},"ई":{"ha":590,"x_min":-28,"x_max":622,"o":"m 622 988 l 556 988 q 528 981 536 988 q 521 956 521 974 l 521 883 l 618 883 l 618 749 l 521 749 l 521 536 l 274 536 q 245 529 253 536 q 238 504 238 522 l 238 464 q 245 439 238 446 q 274 432 253 432 l 374 432 q 505 399 467 432 q 543 294 543 367 l 543 169 q 505 65 543 97 q 374 32 467 32 l 243 32 l 243 -60 l 49 -60 l 49 240 l 243 240 l 243 157 l 314 157 q 341 164 333 157 q 349 190 349 171 l 349 275 q 341 300 349 293 q 314 307 333 307 l 213 307 q 82 340 119 307 q 44 444 44 372 l 44 524 q 82 628 44 596 q 213 661 119 661 l 326 661 l 326 749 l -28 749 l -28 883 l 326 883 l 326 975 q 365 1079 326 1047 q 496 1111 403 1111 l 622 1111 l 622 988 z "},"उ":{"ha":593,"x_min":-28,"x_max":613,"o":"m 613 883 l 613 749 l 513 749 q 522 714 522 738 l 522 563 q 461 489 522 496 l 461 483 q 522 410 522 476 l 522 138 q 485 33 522 65 q 353 0 447 0 l 199 0 q 68 33 106 0 q 31 138 31 65 l 31 303 l 224 303 l 224 157 q 253 125 224 125 l 293 125 q 320 132 313 125 q 328 157 328 139 l 328 382 q 320 410 328 403 q 293 418 313 418 l 215 418 l 215 553 l 293 553 q 320 560 313 553 q 328 589 328 568 l 328 703 q 318 740 328 731 q 276 749 308 749 l -28 749 l -28 883 l 613 883 z "},"ऊ":{"ha":849,"x_min":-28,"x_max":876,"o":"m 876 883 l 876 749 l 513 749 q 522 714 522 738 l 522 563 q 461 489 522 496 l 461 483 l 656 483 q 776 446 736 483 q 817 326 817 408 l 817 138 q 778 33 817 65 q 647 0 740 0 l 567 0 l 567 135 l 588 135 q 615 142 607 135 q 622 167 622 149 l 622 313 q 615 341 622 333 q 588 349 607 349 l 522 349 l 522 138 q 485 33 522 65 q 353 0 447 0 l 199 0 q 68 33 106 0 q 31 138 31 65 l 31 303 l 224 303 l 224 157 q 253 125 224 125 l 293 125 q 320 132 313 125 q 328 157 328 139 l 328 382 q 320 410 328 403 q 293 418 313 418 l 215 418 l 215 553 l 293 553 q 320 560 313 553 q 328 589 328 568 l 328 703 q 318 740 328 731 q 276 749 308 749 l -28 749 l -28 883 l 876 883 z "},"ऋ":{"ha":1247,"x_min":-28,"x_max":1275,"o":"m 632 749 l 632 383 l 735 383 q 719 432 719 403 l 719 506 q 762 625 719 589 q 908 661 804 661 l 1004 661 q 1151 625 1108 661 q 1194 506 1194 589 l 1194 422 q 1135 333 1194 346 l 1135 326 q 1193 249 1193 315 l 1193 136 q 1156 33 1193 65 q 1025 0 1118 0 l 886 0 q 758 33 794 0 q 721 136 721 67 l 721 194 l 915 194 l 915 157 q 943 125 915 125 l 965 125 q 1000 157 1000 125 l 1000 231 q 965 261 1000 261 l 632 261 l 632 0 l 439 0 l 439 261 l 408 261 l 250 0 l 28 0 l 226 326 l 151 451 q 106 506 126 492 q 47 521 85 521 l 17 521 l 17 656 l 133 656 q 240 635 203 656 q 310 563 276 615 l 422 383 l 439 383 l 439 749 l -28 749 l -28 883 l 1275 883 l 1275 749 l 632 749 m 913 506 l 913 415 q 946 383 913 383 l 968 383 q 1000 415 1000 383 l 1000 506 q 992 532 1000 525 q 965 539 985 539 l 947 539 q 913 506 913 539 z "},"ऌ":{"ha":922,"x_min":-28,"x_max":950,"o":"m 864 58 l 721 58 q 692 51 700 58 q 685 26 685 44 l 685 -21 q 692 -46 685 -39 q 721 -53 700 -53 l 939 -53 l 939 -187 l 660 -187 q 529 -155 567 -187 q 492 -50 492 -122 l 492 47 q 528 151 492 119 q 658 183 565 183 l 669 183 l 669 526 l 593 526 q 565 518 572 526 q 558 490 558 510 l 558 281 l 364 281 l 364 490 q 357 518 364 510 q 329 526 350 526 l 288 526 q 259 519 267 526 q 251 490 251 511 l 251 168 q 259 143 251 150 q 288 136 267 136 l 324 136 l 324 0 l 226 0 q 96 33 133 0 q 58 138 58 65 l 58 504 q 98 624 58 588 q 218 661 138 661 l 385 661 q 460 600 451 661 l 465 600 q 539 661 472 661 l 669 661 l 669 749 l -28 749 l -28 883 l 950 883 l 950 749 l 864 749 l 864 58 z "},"ऍ":{"ha":656,"x_min":-28,"x_max":683,"o":"m 683 883 l 683 749 l 597 749 l 597 515 q 560 411 597 443 q 428 379 522 379 l 319 379 l 319 514 l 368 514 q 395 521 388 514 q 403 546 403 528 l 403 749 l 256 749 l 256 157 q 263 132 256 139 q 292 125 271 125 l 372 125 q 401 157 401 125 l 401 299 l 596 299 l 596 138 q 558 33 596 65 q 426 0 521 0 l 231 0 q 100 33 138 0 q 63 138 63 65 l 63 749 l -28 749 l -28 883 l 683 883 m 453 933 l 221 933 q 82 965 124 933 q 40 1063 40 997 l 40 1172 l 203 1172 l 203 1086 q 211 1056 203 1064 q 243 1047 219 1047 l 431 1047 q 463 1056 454 1047 q 471 1086 471 1064 l 471 1172 l 633 1172 l 633 1063 q 592 965 633 997 q 453 933 550 933 z "},"ऎ":{"ha":656,"x_min":-28,"x_max":683,"o":"m 683 883 l 683 749 l 597 749 l 597 515 q 560 411 597 443 q 428 379 522 379 l 319 379 l 319 514 l 368 514 q 395 521 388 514 q 403 546 403 528 l 403 749 l 256 749 l 256 157 q 263 132 256 139 q 292 125 271 125 l 372 125 q 401 157 401 125 l 401 299 l 596 299 l 596 138 q 558 33 596 65 q 426 0 521 0 l 231 0 q 100 33 138 0 q 63 138 63 65 l 63 749 l -28 749 l -28 883 l 404 883 l 404 914 q 395 953 404 944 q 356 963 386 963 l 214 963 q 92 1085 92 963 l 92 1167 l 285 1167 l 285 1144 q 294 1106 285 1114 q 333 1097 303 1097 l 475 1097 q 597 975 597 1097 l 597 883 l 683 883 z "},"ए":{"ha":656,"x_min":-28,"x_max":683,"o":"m 683 883 l 683 749 l 597 749 l 597 515 q 560 411 597 443 q 428 379 522 379 l 319 379 l 319 514 l 368 514 q 395 521 388 514 q 403 546 403 528 l 403 749 l 256 749 l 256 157 q 263 132 256 139 q 292 125 271 125 l 372 125 q 401 157 401 125 l 401 299 l 596 299 l 596 138 q 558 33 596 65 q 426 0 521 0 l 231 0 q 100 33 138 0 q 63 138 63 65 l 63 749 l -28 749 l -28 883 l 683 883 z "},"ऐ":{"ha":656,"x_min":-28,"x_max":683,"o":"m 683 883 l 683 749 l 597 749 l 597 515 q 560 411 597 443 q 428 379 522 379 l 319 379 l 319 514 l 368 514 q 395 521 388 514 q 403 546 403 528 l 403 749 l 256 749 l 256 157 q 263 132 256 139 q 292 125 271 125 l 372 125 q 401 157 401 125 l 401 299 l 596 299 l 596 138 q 558 33 596 65 q 426 0 521 0 l 231 0 q 100 33 138 0 q 63 138 63 65 l 63 749 l -28 749 l -28 883 l 399 883 q 250 1046 333 939 l 165 1158 l 397 1158 l 590 883 l 683 883 z "},"ऑ":{"ha":1236,"x_min":63,"x_max":1374,"o":"m 1211 1192 l 1374 1192 l 1374 1082 q 1332 985 1374 1017 q 1193 953 1290 953 l 961 953 q 822 985 864 953 q 781 1082 781 1017 l 781 1192 l 943 1192 l 943 1106 q 951 1075 943 1083 q 983 1067 960 1067 l 1171 1067 q 1203 1075 1194 1067 q 1211 1106 1211 1083 l 1211 1192 m 1264 883 l 1264 749 l 1174 749 l 1174 0 l 981 0 l 981 749 l 857 749 l 857 0 l 663 0 l 663 368 l 553 368 l 553 256 q 515 145 553 182 q 385 108 476 108 l 231 108 q 101 145 139 108 q 63 256 63 182 l 63 375 l 256 375 l 256 275 q 292 243 256 243 l 324 243 q 352 250 344 243 q 360 275 360 257 l 360 393 q 351 422 360 414 q 322 431 343 431 l 263 431 l 263 564 l 322 564 q 351 572 343 564 q 360 601 360 581 l 360 721 q 352 747 360 740 q 324 754 344 754 l 292 754 q 264 747 272 754 q 256 721 256 740 l 256 632 l 63 632 l 63 742 q 101 852 63 815 q 231 889 139 889 l 385 889 q 515 852 476 889 q 553 742 553 815 l 553 575 q 506 503 553 515 l 663 503 l 663 883 l 1264 883 z "},"ऒ":{"ha":1236,"x_min":63,"x_max":1264,"o":"m 1264 883 l 1264 749 l 1174 749 l 1174 0 l 981 0 l 981 749 l 857 749 l 857 0 l 663 0 l 663 368 l 553 368 l 553 256 q 515 145 553 182 q 385 108 476 108 l 231 108 q 101 145 139 108 q 63 256 63 182 l 63 375 l 256 375 l 256 275 q 292 243 256 243 l 324 243 q 352 250 344 243 q 360 275 360 257 l 360 393 q 351 422 360 414 q 322 431 343 431 l 263 431 l 263 564 l 322 564 q 351 572 343 564 q 360 601 360 581 l 360 721 q 352 747 360 740 q 324 754 344 754 l 292 754 q 264 747 272 754 q 256 721 256 740 l 256 632 l 63 632 l 63 742 q 101 852 63 815 q 231 889 139 889 l 385 889 q 515 852 476 889 q 553 742 553 815 l 553 575 q 506 503 553 515 l 663 503 l 663 883 l 981 883 l 981 914 q 972 953 981 944 q 932 963 963 963 l 790 963 q 668 1085 668 963 l 668 1167 l 861 1167 l 861 1144 q 870 1106 861 1114 q 910 1097 879 1097 l 1051 1097 q 1174 975 1174 1097 l 1174 883 l 1264 883 z "},"ओ":{"ha":1236,"x_min":63,"x_max":1264,"o":"m 1264 883 l 1264 749 l 1174 749 l 1174 0 l 981 0 l 981 749 l 857 749 l 857 0 l 663 0 l 663 368 l 553 368 l 553 256 q 515 145 553 182 q 385 108 476 108 l 231 108 q 101 145 139 108 q 63 256 63 182 l 63 375 l 256 375 l 256 275 q 292 243 256 243 l 324 243 q 352 250 344 243 q 360 275 360 257 l 360 393 q 351 422 360 414 q 322 431 343 431 l 263 431 l 263 564 l 322 564 q 351 572 343 564 q 360 601 360 581 l 360 721 q 352 747 360 740 q 324 754 344 754 l 292 754 q 264 747 272 754 q 256 721 256 740 l 256 632 l 63 632 l 63 742 q 101 852 63 815 q 231 889 139 889 l 385 889 q 515 852 476 889 q 553 742 553 815 l 553 575 q 506 503 553 515 l 663 503 l 663 883 l 978 883 q 829 1046 913 939 l 744 1158 l 976 1158 l 1169 883 l 1264 883 z "},"औ":{"ha":1236,"x_min":63,"x_max":1264,"o":"m 1264 883 l 1264 749 l 1174 749 l 1174 0 l 981 0 l 981 749 l 857 749 l 857 0 l 663 0 l 663 368 l 553 368 l 553 256 q 515 145 553 182 q 385 108 476 108 l 231 108 q 101 145 139 108 q 63 256 63 182 l 63 375 l 256 375 l 256 275 q 292 243 256 243 l 324 243 q 352 250 344 243 q 360 275 360 257 l 360 393 q 351 422 360 414 q 322 431 343 431 l 263 431 l 263 564 l 322 564 q 351 572 343 564 q 360 601 360 581 l 360 721 q 352 747 360 740 q 324 754 344 754 l 292 754 q 264 747 272 754 q 256 721 256 740 l 256 632 l 63 632 l 63 742 q 101 852 63 815 q 231 889 139 889 l 385 889 q 515 852 476 889 q 553 742 553 815 l 553 575 q 506 503 553 515 l 663 503 l 663 883 l 972 883 q 810 1008 904 925 l 638 1158 l 869 1158 l 929 1085 q 1068 897 1021 974 l 1075 897 q 958 1158 1046 947 l 1139 1158 l 1171 883 l 1264 883 z "},"क":{"ha":892,"x_min":-28,"x_max":919,"o":"m 919 749 l 543 749 l 543 642 q 608 661 563 661 l 693 661 q 814 624 774 661 q 854 504 854 586 l 854 246 q 816 141 854 174 q 685 108 778 108 l 600 108 l 600 233 l 625 233 q 652 240 644 233 q 660 265 660 247 l 660 490 q 652 519 660 511 q 625 526 644 526 l 579 526 q 551 518 560 526 q 543 489 543 510 l 543 0 l 349 0 l 349 128 q 285 108 331 108 l 199 108 q 78 145 118 108 q 39 265 39 182 l 39 524 q 76 628 39 596 q 207 661 114 661 l 293 661 l 293 536 l 268 536 q 240 529 247 536 q 232 504 232 522 l 232 279 q 240 251 232 258 q 268 243 247 243 l 313 243 q 340 251 332 243 q 349 281 349 260 l 349 749 l -28 749 l -28 883 l 919 883 l 919 749 z "},"ख":{"ha":1149,"x_min":-28,"x_max":1176,"o":"m 1176 883 l 1176 749 l 1086 749 l 1086 0 l 894 0 l 894 146 q 828 125 875 125 l 746 125 q 626 162 665 125 q 586 282 586 199 l 586 518 q 624 623 586 590 q 756 656 663 656 l 842 656 l 842 531 l 814 531 q 787 524 794 531 q 779 499 779 517 l 779 296 q 787 267 779 275 q 814 260 794 260 l 856 260 q 894 300 894 260 l 894 749 l 517 749 q 526 714 526 738 l 526 471 q 487 360 526 393 q 354 326 447 326 l 253 326 l 253 182 q 263 146 253 156 q 299 136 272 136 l 629 136 l 629 0 l 267 0 q 108 34 157 0 q 58 144 58 68 l 58 656 l 253 656 l 253 461 l 286 461 q 322 471 313 461 q 332 507 332 481 l 332 703 q 323 740 332 731 q 286 749 314 749 l -28 749 l -28 883 l 1176 883 z "},"ग":{"ha":919,"x_min":-28,"x_max":947,"o":"m 947 883 l 947 749 l 857 749 l 857 0 l 664 0 l 664 749 l 542 749 l 542 265 q 499 144 542 181 q 353 108 457 108 l 232 108 q 85 144 128 108 q 42 265 42 181 l 42 492 q 91 602 42 568 q 250 636 140 636 l 349 636 l 349 749 l -28 749 l -28 883 l 947 883 m 274 243 l 311 243 q 340 251 331 243 q 349 279 349 258 l 349 501 l 279 501 q 244 494 253 501 q 236 458 236 486 l 236 279 q 244 251 236 258 q 274 243 253 243 z "},"घ":{"ha":690,"x_min":-28,"x_max":718,"o":"m 718 883 l 718 749 l 629 749 l 629 0 l 435 0 l 435 128 q 374 108 415 108 l 249 108 q 104 145 150 108 q 58 265 58 182 l 58 418 q 119 492 58 485 l 119 497 q 58 571 58 507 l 58 711 q 69 749 58 733 l -28 749 l -28 883 l 718 883 m 435 290 l 435 749 l 311 749 q 264 740 275 749 q 253 703 253 732 l 253 599 q 260 570 253 578 q 289 563 268 563 l 349 563 l 349 428 l 289 428 q 260 420 268 428 q 253 392 253 413 l 253 279 q 260 251 253 258 q 289 243 268 243 l 388 243 q 424 253 414 243 q 435 290 435 264 z "},"ङ":{"ha":689,"x_min":-28,"x_max":717,"o":"m -28 883 l 717 883 l 717 749 l 513 749 l 513 536 l 288 536 q 260 529 268 536 q 253 504 253 522 l 253 453 q 260 426 253 433 q 288 419 268 419 l 371 419 q 501 388 464 419 q 539 283 539 356 l 539 138 q 501 33 539 65 q 371 0 464 0 l 217 0 q 85 33 124 0 q 47 138 47 65 l 47 224 l 242 224 l 242 157 q 271 125 242 125 l 310 125 q 338 132 331 125 q 346 157 346 139 l 346 263 q 338 289 346 282 q 310 296 331 296 l 228 296 q 96 328 133 296 q 58 432 58 360 l 58 524 q 96 628 58 596 q 228 661 133 661 l 319 661 l 319 749 l -28 749 l -28 883 m 536 404 l 536 565 l 685 565 l 685 404 l 536 404 z "},"च":{"ha":646,"x_min":-29,"x_max":674,"o":"m 674 883 l 674 749 l 585 749 l 585 0 l 390 0 l 390 128 q 325 108 371 108 l 232 108 q 111 146 151 108 q 71 265 71 183 l 71 464 q 90 526 71 504 l -10 526 l -10 661 l 340 661 l 340 526 l 313 526 q 274 520 283 526 q 265 490 265 514 l 265 279 q 273 251 265 258 q 300 243 281 243 l 354 243 q 382 251 374 243 q 390 281 390 260 l 390 749 l -29 749 l -29 883 l 674 883 z "},"छ":{"ha":890,"x_min":-28,"x_max":918,"o":"m 918 749 l 703 749 l 703 660 q 800 621 768 653 q 832 524 832 589 l 832 157 q 786 37 832 74 q 642 0 740 0 l 246 0 q 101 37 147 0 q 56 157 56 74 l 56 360 q 117 433 56 425 l 117 439 q 56 513 56 446 l 56 714 q 64 749 56 736 l -28 749 l -28 883 l 918 883 l 918 749 m 521 749 l 290 749 q 258 738 267 747 q 250 703 250 729 l 250 540 q 258 512 250 519 q 285 504 265 504 l 333 504 l 333 369 l 285 369 q 258 362 265 369 q 250 333 250 354 l 250 172 q 258 144 250 151 q 285 136 265 136 l 604 136 q 631 144 624 136 q 639 172 639 151 l 639 513 q 631 538 639 531 q 604 544 624 544 l 581 544 q 544 513 544 544 l 544 419 q 553 393 544 400 q 581 386 561 386 l 600 386 l 600 271 l 544 271 q 431 302 469 271 q 392 408 392 333 l 392 524 q 424 621 392 589 q 521 660 456 653 l 521 749 z "},"ज":{"ha":913,"x_min":-28,"x_max":940,"o":"m 940 883 l 940 749 l 850 749 l 850 0 l 656 0 l 656 526 l 551 526 l 551 265 q 509 144 551 181 q 363 108 467 108 l 247 108 q 101 144 143 108 q 58 265 58 181 l 58 661 l 251 661 l 251 279 q 260 251 251 258 q 289 243 269 243 l 321 243 q 349 251 340 243 q 358 279 358 258 l 358 661 l 656 661 l 656 749 l -28 749 l -28 883 l 940 883 z "},"झ":{"ha":914,"x_min":-47,"x_max":942,"o":"m 942 883 l 942 749 l 853 749 l 853 0 l 658 0 l 658 307 l 542 307 q 544 278 544 288 l 544 169 q 507 65 544 97 q 376 32 469 32 l 243 32 l 243 -60 l 49 -60 l 49 240 l 243 240 l 243 157 l 315 157 q 344 164 336 157 q 351 190 351 171 l 351 275 q 344 300 351 293 q 315 307 336 307 l 218 307 q 86 340 124 307 q 49 444 49 372 l 49 524 q 86 628 49 596 q 218 661 124 661 l 331 661 l 331 749 l -47 749 l -47 883 l 942 883 m 660 432 l 660 749 l 524 749 l 524 536 l 278 536 q 251 529 258 536 q 243 504 243 522 l 243 464 q 251 439 243 446 q 278 432 258 432 l 660 432 z "},"ञ":{"ha":897,"x_min":-28,"x_max":925,"o":"m 925 883 l 925 749 l 836 749 l 836 0 l 642 0 l 642 328 l 524 328 l 524 265 q 481 144 524 181 q 335 108 439 108 l 221 108 q 75 144 118 108 q 32 265 32 181 l 32 368 l 226 368 l 226 279 q 235 251 226 258 q 264 243 243 243 l 293 243 q 322 251 313 243 q 331 279 331 258 l 331 494 q 323 519 331 513 q 294 526 315 526 l 160 526 l 160 661 l 356 661 q 485 624 447 661 q 524 514 524 588 l 524 461 l 642 461 l 642 749 l -28 749 l -28 883 l 925 883 z "},"ट":{"ha":614,"x_min":-28,"x_max":642,"o":"m 553 526 l 293 526 q 265 519 274 526 q 256 490 256 511 l 256 171 q 265 142 256 150 q 293 135 274 135 l 325 135 q 353 142 344 135 q 363 171 363 150 l 363 314 l 556 314 l 556 157 q 513 36 556 72 q 367 0 471 0 l 251 0 q 105 36 147 0 q 63 157 63 72 l 63 524 q 100 628 63 596 q 231 661 138 661 l 360 661 l 360 749 l -28 749 l -28 883 l 642 883 l 642 749 l 553 749 l 553 526 z "},"ठ":{"ha":628,"x_min":-28,"x_max":656,"o":"m 656 749 l 413 749 l 413 660 q 533 618 497 654 q 569 504 569 582 l 569 157 q 526 36 569 72 q 379 0 483 0 l 251 0 q 105 36 147 0 q 63 157 63 72 l 63 504 q 98 618 63 582 q 218 660 133 654 l 218 749 l -28 749 l -28 883 l 656 883 l 656 749 m 375 171 l 375 490 q 366 519 375 511 q 338 526 357 526 l 293 526 q 265 519 274 526 q 256 490 256 511 l 256 171 q 265 142 256 150 q 293 135 274 135 l 338 135 q 366 142 357 135 q 375 171 375 150 z "},"ड":{"ha":603,"x_min":-28,"x_max":631,"o":"m 513 536 l 288 536 q 260 529 268 536 q 253 504 253 522 l 253 453 q 260 426 253 433 q 288 419 268 419 l 371 419 q 501 388 464 419 q 539 283 539 356 l 539 138 q 501 33 539 65 q 371 0 464 0 l 217 0 q 85 33 124 0 q 47 138 47 65 l 47 224 l 242 224 l 242 157 q 271 125 242 125 l 310 125 q 338 132 331 125 q 346 157 346 139 l 346 263 q 338 289 346 282 q 310 296 331 296 l 228 296 q 96 328 133 296 q 58 432 58 360 l 58 524 q 96 628 58 596 q 228 661 133 661 l 319 661 l 319 749 l -28 749 l -28 883 l 631 883 l 631 749 l 513 749 l 513 536 z "},"ढ":{"ha":660,"x_min":-28,"x_max":688,"o":"m 553 526 l 293 526 q 265 519 274 526 q 256 490 256 511 l 256 171 q 265 142 256 150 q 293 135 274 135 l 376 135 q 405 142 396 135 q 414 171 414 150 l 414 243 q 405 272 414 264 q 376 279 396 279 l 317 279 l 317 414 l 418 414 q 565 378 522 414 q 608 257 608 342 l 608 157 q 565 36 608 72 q 418 0 522 0 l 251 0 q 105 36 147 0 q 63 157 63 72 l 63 524 q 100 628 63 596 q 231 661 138 661 l 360 661 l 360 749 l -28 749 l -28 883 l 688 883 l 688 749 l 553 749 l 553 526 z "},"ण":{"ha":922,"x_min":-28,"x_max":950,"o":"m 950 883 l 950 749 l 860 749 l 860 0 l 665 0 l 665 749 l 551 749 l 551 265 q 509 144 551 181 q 363 108 467 108 l 247 108 q 101 144 143 108 q 58 265 58 181 l 58 749 l -28 749 l -28 883 l 950 883 m 358 279 l 358 749 l 251 749 l 251 279 q 260 251 251 258 q 289 243 269 243 l 321 243 q 349 251 340 243 q 358 279 358 258 z "},"त":{"ha":635,"x_min":-28,"x_max":663,"o":"m 663 883 l 663 749 l 574 749 l 574 0 l 379 0 l 379 526 l 288 526 q 259 519 267 526 q 251 494 251 513 l 251 168 q 259 143 251 150 q 288 136 267 136 l 313 136 l 313 0 l 226 0 q 96 33 133 0 q 58 138 58 65 l 58 524 q 96 628 58 596 q 226 661 133 661 l 379 661 l 379 749 l -28 749 l -28 883 l 663 883 z "},"थ":{"ha":813,"x_min":68,"x_max":840,"o":"m 840 883 l 840 749 l 750 749 l 750 0 l 557 0 l 557 128 q 496 108 538 108 l 257 108 q 113 145 158 108 q 68 265 68 182 l 68 539 l 233 539 q 262 546 254 539 q 269 571 269 553 l 269 724 q 262 749 269 742 q 233 756 254 756 l 225 756 q 198 749 206 756 q 190 724 190 742 l 190 669 l 81 669 l 81 754 q 119 858 81 825 q 239 890 157 890 l 304 890 q 424 858 386 890 q 463 754 463 825 l 463 551 q 424 441 463 478 q 294 404 386 404 l 263 404 l 263 279 q 270 251 263 258 q 297 243 278 243 l 510 243 q 547 253 536 243 q 557 290 557 264 l 557 749 l 556 883 l 840 883 z "},"द":{"ha":606,"x_min":-42,"x_max":633,"o":"m 543 526 l 279 526 q 251 519 260 526 q 242 490 242 511 l 242 279 q 250 251 242 258 q 278 243 258 243 l 317 243 q 344 251 336 243 q 353 281 353 260 l 353 394 l 547 394 l 547 0 l 353 0 l 353 128 q 288 108 333 108 l 238 108 q 91 144 133 108 q 49 265 49 181 l 49 524 q 86 628 49 596 q 217 661 124 661 l 350 661 l 350 749 l -42 749 l -42 883 l 633 883 l 633 749 l 543 749 l 543 526 z "},"ध":{"ha":774,"x_min":79,"x_max":808,"o":"m 808 883 l 808 749 l 719 749 l 719 0 l 525 0 l 525 128 q 464 108 506 108 l 238 108 q 117 141 156 108 q 79 244 79 174 l 79 403 q 140 476 79 469 l 140 482 q 79 557 79 490 l 79 754 q 117 858 79 825 q 238 890 156 890 l 304 890 q 425 858 386 890 q 464 754 464 825 l 464 669 l 354 669 l 354 724 q 347 749 354 742 q 319 756 339 756 l 308 756 q 280 749 288 756 q 272 724 272 742 l 272 583 q 280 555 272 563 q 308 547 288 547 l 403 547 l 403 413 l 308 413 q 280 405 288 413 q 272 376 272 397 l 272 279 q 280 251 272 258 q 308 243 288 243 l 478 243 q 515 253 506 243 q 525 290 525 264 l 525 749 l 524 883 l 808 883 z "},"न":{"ha":886,"x_min":-28,"x_max":914,"o":"m 914 883 l 914 749 l 825 749 l 825 0 l 631 0 l 631 526 l 536 526 l 536 265 q 493 144 536 181 q 346 108 450 108 l 233 108 q 87 144 129 108 q 44 265 44 181 l 44 524 q 82 628 44 596 q 213 661 119 661 l 631 661 l 631 749 l -28 749 l -28 883 l 914 883 m 342 279 l 342 526 l 274 526 q 245 519 253 526 q 238 494 238 513 l 238 279 q 247 251 238 258 q 275 243 256 243 l 304 243 q 333 251 325 243 q 342 279 342 258 z "},"ऩ":{"ha":886,"x_min":-28,"x_max":914,"o":"m 914 883 l 914 749 l 825 749 l 825 0 l 631 0 l 631 526 l 536 526 l 536 265 q 493 144 536 181 q 346 108 450 108 l 233 108 q 87 144 129 108 q 44 265 44 181 l 44 524 q 82 628 44 596 q 213 661 119 661 l 631 661 l 631 749 l -28 749 l -28 883 l 914 883 m 342 279 l 342 526 l 274 526 q 245 519 253 526 q 238 494 238 513 l 238 279 q 247 251 238 258 q 275 243 256 243 l 304 243 q 333 251 325 243 q 342 279 342 258 m 378 -153 l 378 8 l 526 8 l 526 -153 l 378 -153 z "},"प":{"ha":628,"x_min":-28,"x_max":656,"o":"m 656 883 l 656 749 l 567 749 l 567 0 l 372 0 l 372 128 q 308 108 354 108 l 222 108 q 102 145 142 108 q 63 265 63 182 l 63 749 l -28 749 l -28 883 l 656 883 m 372 281 l 372 749 l 256 749 l 256 279 q 263 251 256 258 q 292 243 271 243 l 336 243 q 364 251 356 243 q 372 281 372 260 z "},"फ":{"ha":913,"x_min":-28,"x_max":940,"o":"m 940 749 l 564 749 l 564 642 q 629 661 583 661 l 714 661 q 835 624 794 661 q 875 504 875 586 l 875 246 q 837 141 875 174 q 706 108 799 108 l 621 108 l 621 233 l 644 233 q 673 240 665 233 q 681 265 681 247 l 681 490 q 673 519 681 511 q 644 526 665 526 l 600 526 q 572 518 581 526 q 564 489 564 510 l 564 0 l 369 0 l 369 128 q 304 108 350 108 l 219 108 q 99 146 139 108 q 58 265 58 183 l 58 749 l -28 749 l -28 883 l 940 883 l 940 749 m 369 281 l 369 749 l 253 749 l 253 279 q 260 251 253 258 q 289 243 268 243 l 333 243 q 361 251 353 243 q 369 281 369 260 z "},"ब":{"ha":721,"x_min":-28,"x_max":749,"o":"m 749 883 l 749 749 l 660 749 l 660 0 l 465 0 l 465 117 q 417 108 447 108 l 210 108 q 90 145 129 108 q 50 265 50 182 l 50 524 q 88 628 50 596 q 219 661 126 661 l 408 661 l 408 536 l 306 536 l 378 428 l 474 294 q 465 451 465 328 l 465 749 l -28 749 l -28 883 l 749 883 m 244 279 q 252 251 244 258 q 279 243 260 243 l 414 243 l 325 367 q 244 488 285 435 l 244 279 z "},"भ":{"ha":936,"x_min":58,"x_max":964,"o":"m 964 883 l 964 749 l 874 749 l 874 0 l 681 0 l 681 461 l 557 461 l 557 265 q 515 144 557 181 q 368 108 472 108 l 247 108 q 101 144 143 108 q 58 265 58 181 l 58 458 q 96 563 58 531 q 226 594 133 594 l 364 594 l 364 721 q 356 747 364 740 q 328 754 347 754 l 299 754 q 272 747 279 754 q 264 721 264 740 l 264 672 l 69 672 l 69 742 q 108 852 69 815 q 239 889 147 889 l 389 889 q 519 852 481 889 q 557 742 557 815 l 557 594 l 681 594 l 681 883 l 964 883 m 364 279 l 364 461 l 288 461 q 259 454 267 461 q 251 428 251 447 l 251 279 q 260 251 251 258 q 289 243 269 243 l 326 243 q 355 251 346 243 q 364 279 364 258 z "},"म":{"ha":922,"x_min":-28,"x_max":950,"o":"m 950 883 l 950 749 l 860 749 l 860 0 l 667 0 l 667 465 l 543 465 l 543 278 q 501 157 543 193 q 354 121 458 121 l 233 121 q 87 157 129 121 q 44 278 44 193 l 44 463 q 82 567 44 535 q 213 600 119 600 l 350 600 l 350 749 l -28 749 l -28 883 l 950 883 m 350 292 l 350 465 l 256 465 q 228 458 236 465 q 221 433 221 451 l 221 292 q 229 263 221 271 q 257 256 238 256 l 313 256 q 341 263 332 256 q 350 292 350 271 m 667 600 l 667 749 l 543 749 l 543 600 l 667 600 z "},"य":{"ha":789,"x_min":-36,"x_max":817,"o":"m 817 883 l 817 749 l 728 749 l 728 0 l 533 0 l 533 128 q 472 108 514 108 l 243 108 q 99 145 144 108 q 54 265 54 182 l 54 538 l 208 538 q 235 544 228 538 q 243 569 243 551 l 243 703 q 233 740 243 731 q 192 749 224 749 l -36 749 l -36 883 l 817 883 m 533 290 l 533 749 l 414 749 q 431 694 431 731 l 431 549 q 394 439 431 475 q 265 403 358 403 l 247 403 l 247 279 q 255 251 247 258 q 283 243 263 243 l 486 243 q 524 253 514 243 q 533 290 533 264 z "},"र":{"ha":597,"x_min":-28,"x_max":625,"o":"m 625 883 l 625 749 l 533 749 q 542 714 542 736 l 542 507 q 492 397 542 431 q 335 363 443 363 l 251 363 l 251 157 q 259 132 251 139 q 288 125 267 125 l 318 125 q 347 157 347 125 l 347 286 l 542 286 l 542 138 q 503 33 542 65 q 372 0 465 0 l 226 0 q 96 33 133 0 q 58 138 58 65 l 58 644 l 251 644 l 251 496 l 303 496 q 339 506 329 496 q 349 542 349 515 l 349 703 q 340 740 349 731 q 303 749 331 749 l -28 749 l -28 883 l 625 883 z "},"ऱ":{"ha":597,"x_min":-28,"x_max":625,"o":"m 625 883 l 625 749 l 533 749 q 542 714 542 736 l 542 507 q 492 397 542 431 q 335 363 443 363 l 251 363 l 251 157 q 259 132 251 139 q 288 125 267 125 l 318 125 q 347 157 347 125 l 347 286 l 542 286 l 542 138 q 503 33 542 65 q 372 0 465 0 l 226 0 q 96 33 133 0 q 58 138 58 65 l 58 644 l 251 644 l 251 496 l 303 496 q 339 506 329 496 q 349 542 349 515 l 349 703 q 340 740 349 731 q 303 749 331 749 l -28 749 l -28 883 l 625 883 m 208 -254 l 208 -93 l 357 -93 l 357 -254 l 208 -254 z "},"ल":{"ha":931,"x_min":-28,"x_max":958,"o":"m 958 883 l 958 749 l 872 749 l 872 0 l 678 0 l 678 526 l 606 526 q 578 518 585 526 q 571 490 571 510 l 571 242 l 376 242 l 376 490 q 369 518 376 510 q 342 526 363 526 l 300 526 q 272 519 279 526 q 264 490 264 511 l 264 168 q 272 143 264 150 q 300 136 279 136 l 374 136 l 374 0 l 239 0 q 108 33 146 0 q 71 138 71 65 l 71 504 q 110 624 71 588 q 231 661 150 661 l 397 661 q 472 600 464 661 l 478 600 q 551 661 485 661 l 678 661 l 678 749 l -28 749 l -28 883 l 958 883 z "},"ळ":{"ha":928,"x_min":-36,"x_max":964,"o":"m 740 660 q 874 504 874 649 l 874 265 q 834 145 874 182 q 714 108 794 108 l 561 108 q 468 169 475 108 l 463 169 q 368 108 454 108 l 214 108 q 94 145 133 108 q 54 265 54 182 l 54 504 q 94 624 54 588 q 214 661 133 661 l 368 661 q 463 600 454 661 l 468 600 q 547 661 475 656 l 547 749 l -36 749 l -36 883 l 964 883 l 964 749 l 740 749 l 740 660 m 372 279 l 372 490 q 365 518 372 510 q 336 526 357 526 l 283 526 q 255 519 263 526 q 247 490 247 511 l 247 279 q 255 251 247 258 q 283 243 263 243 l 336 243 q 365 251 357 243 q 372 279 372 260 m 681 279 l 681 490 q 673 519 681 511 q 644 526 665 526 l 592 526 q 563 518 571 526 q 556 490 556 510 l 556 279 q 563 251 556 260 q 592 243 571 243 l 644 243 q 673 251 665 243 q 681 279 681 258 z "},"ऴ":{"ha":928,"x_min":-36,"x_max":964,"o":"m 740 660 q 874 504 874 649 l 874 265 q 834 145 874 182 q 714 108 794 108 l 561 108 q 468 169 475 108 l 463 169 q 368 108 454 108 l 214 108 q 94 145 133 108 q 54 265 54 182 l 54 504 q 94 624 54 588 q 214 661 133 661 l 368 661 q 463 600 454 661 l 468 600 q 547 661 475 656 l 547 749 l -36 749 l -36 883 l 964 883 l 964 749 l 740 749 l 740 660 m 372 279 l 372 490 q 365 518 372 510 q 336 526 357 526 l 283 526 q 255 519 263 526 q 247 490 247 511 l 247 279 q 255 251 247 258 q 283 243 263 243 l 336 243 q 365 251 357 243 q 372 279 372 260 m 681 279 l 681 490 q 673 519 681 511 q 644 526 665 526 l 592 526 q 563 518 571 526 q 556 490 556 510 l 556 279 q 563 251 556 260 q 592 243 571 243 l 644 243 q 673 251 665 243 q 681 279 681 258 m 104 -144 l 104 17 l 253 17 l 253 -144 l 104 -144 z "},"व":{"ha":625,"x_min":-28,"x_max":653,"o":"m 653 883 l 653 749 l 564 749 l 564 0 l 369 0 l 369 128 q 304 108 350 108 l 219 108 q 99 146 139 108 q 58 265 58 183 l 58 524 q 97 628 58 596 q 228 661 135 661 l 313 661 l 313 526 l 289 526 q 260 519 268 526 q 253 494 253 513 l 253 279 q 260 251 253 258 q 289 243 268 243 l 333 243 q 361 251 353 243 q 369 281 369 260 l 369 749 l -28 749 l -28 883 l 653 883 z "},"श":{"ha":926,"x_min":78,"x_max":954,"o":"m 671 883 l 954 883 l 954 749 l 864 749 l 864 0 l 671 0 l 671 883 m 247 889 l 393 889 q 523 852 485 889 q 561 742 561 815 l 561 483 q 512 373 561 407 q 354 339 463 339 l 271 339 l 271 157 q 278 132 271 139 q 307 125 286 125 l 338 125 q 367 157 367 125 l 367 263 l 561 263 l 561 138 q 523 33 561 65 q 392 0 485 0 l 246 0 q 115 33 153 0 q 78 138 78 65 l 78 550 l 271 550 l 271 472 l 322 472 q 358 482 349 472 q 368 518 368 492 l 368 722 q 360 747 368 740 q 332 754 353 754 l 301 754 q 272 722 272 754 l 272 639 l 78 639 l 78 742 q 117 852 78 815 q 247 889 156 889 z "},"ष":{"ha":693,"x_min":-28,"x_max":721,"o":"m 721 883 l 721 749 l 632 749 l 632 0 l 438 0 l 438 128 q 372 108 418 108 l 222 108 q 102 145 142 108 q 63 265 63 182 l 63 749 l -28 749 l -28 883 l 721 883 m 292 243 l 401 243 q 435 263 429 243 l 311 488 q 243 639 275 551 q 256 471 256 569 l 256 279 q 263 251 256 258 q 292 243 271 243 m 438 568 l 438 749 l 268 749 l 381 547 q 450 392 422 472 q 438 568 438 464 z "},"स":{"ha":899,"x_min":-28,"x_max":926,"o":"m 926 883 l 926 749 l 838 749 l 838 0 l 643 0 l 643 363 l 251 363 l 251 157 q 259 132 251 139 q 288 125 267 125 l 318 125 q 347 157 347 125 l 347 286 l 542 286 l 542 138 q 503 33 542 65 q 372 0 465 0 l 226 0 q 96 33 133 0 q 58 138 58 65 l 58 644 l 251 644 l 251 496 l 303 496 q 339 506 329 496 q 349 542 349 515 l 349 703 q 340 740 349 731 q 303 749 331 749 l -28 749 l -28 883 l 926 883 m 643 496 l 643 749 l 533 749 q 542 714 542 736 l 542 546 q 526 496 542 515 l 643 496 z "},"ह":{"ha":626,"x_min":-28,"x_max":658,"o":"m 564 526 l 292 526 q 256 496 256 526 l 256 469 q 264 445 256 451 q 292 439 272 439 l 379 439 q 526 403 483 439 q 568 282 568 367 l 568 228 l 374 228 l 374 268 q 365 297 374 289 q 338 304 357 304 l 292 304 q 263 297 271 304 q 256 268 256 289 l 256 171 q 263 142 256 150 q 292 135 271 135 l 568 135 l 568 0 l 251 0 q 108 37 153 0 q 63 157 63 74 l 63 294 q 124 368 63 360 l 124 374 q 63 447 63 381 l 63 524 q 100 628 63 596 q 231 661 138 661 l 369 661 l 369 749 l -28 749 l -28 883 l 658 883 l 658 749 l 564 749 l 564 526 z "},"़":{"ha":0,"x_min":-231,"x_max":-82,"o":"m -231 -56 l -82 -56 l -82 -217 l -231 -217 l -231 -56 z "},"ऽ":{"ha":592,"x_min":50,"x_max":542,"o":"m 500 758 l 290 758 q 263 751 271 758 q 256 726 256 744 l 256 574 q 263 549 256 556 q 290 542 271 542 l 374 542 q 504 509 467 542 q 542 404 542 476 l 542 138 q 504 33 542 65 q 374 0 467 0 l 219 0 q 88 33 126 0 q 50 138 50 65 l 50 224 l 244 224 l 244 157 q 274 125 244 125 l 313 125 q 341 132 333 125 q 349 157 349 139 l 349 385 q 341 410 349 403 q 313 417 333 417 l 231 417 q 99 449 136 417 q 61 554 61 482 l 61 746 q 99 851 61 818 q 231 883 136 883 l 500 883 l 500 758 z "},"ा":{"ha":318,"x_min":-28,"x_max":346,"o":"m 346 883 l 346 749 l 256 749 l 256 0 l 63 0 l 63 749 l -28 749 l -28 883 l 346 883 z "},"ि":{"ha":318,"x_min":-28,"x_max":863,"o":"m 214 1174 l 711 1174 q 863 1031 863 1174 l 863 935 l 669 935 l 669 990 q 660 1030 669 1021 q 621 1039 651 1039 l 304 1039 q 265 1030 274 1039 q 256 990 256 1021 l 256 883 l 346 883 l 346 749 l 256 749 l 256 0 l 63 0 l 63 749 l -28 749 l -28 883 l 63 883 l 63 1031 q 214 1174 63 1174 z "},"ी":{"ha":318,"x_min":-285,"x_max":346,"o":"m 346 883 l 346 749 l 256 749 l 256 0 l 63 0 l 63 749 l -28 749 l -28 883 l 63 883 l 63 990 q 53 1030 63 1021 q 14 1039 44 1039 l -43 1039 q -83 1030 -74 1039 q -92 990 -92 1021 l -92 935 l -285 935 l -285 1031 q -133 1174 -285 1174 l 104 1174 q 256 1031 256 1174 l 256 883 l 346 883 z "},"ु":{"ha":0,"x_min":-578,"x_max":56,"o":"m -104 7 q 16 -30 -24 7 q 56 -149 56 -67 l 56 -217 q 16 -335 56 -299 q -104 -372 -24 -372 l -282 -372 q -435 -342 -382 -372 q -533 -232 -487 -311 l -578 -156 l -350 -156 l -319 -204 q -253 -237 -299 -237 l -182 -237 q -147 -230 -156 -237 q -139 -194 -139 -222 l -139 -171 q -147 -136 -139 -144 q -182 -128 -156 -128 l -256 -128 l -256 7 l -104 7 z "},"ू":{"ha":0,"x_min":-397,"x_max":310,"o":"m -86 8 q 63 -23 11 8 q 161 -131 114 -54 l 310 -371 l 82 -371 l -50 -162 q -114 -126 -71 -126 l -161 -126 q -197 -134 -189 -126 q -204 -169 -204 -142 l -204 -193 q -197 -228 -204 -219 q -161 -236 -189 -236 l -92 -236 l -92 -372 l -237 -372 q -358 -335 -318 -372 q -397 -215 -397 -299 l -397 -149 q -358 -28 -397 -65 q -237 8 -318 8 l -86 8 z "},"ृ":{"ha":0,"x_min":-385,"x_max":-15,"o":"m -62 8 l -62 -126 l -149 -126 q -183 -134 -175 -126 q -192 -169 -192 -142 l -192 -193 q -183 -228 -192 -219 q -149 -236 -175 -236 l -15 -236 l -15 -372 l -225 -372 q -345 -335 -306 -372 q -385 -215 -385 -299 l -385 -149 q -345 -28 -385 -65 q -225 8 -306 8 l -62 8 z "},"ॄ":{"ha":0,"x_min":-368,"x_max":6,"o":"m -368 -119 q -217 8 -368 8 l -62 8 l -62 -126 l -139 -126 q -166 -134 -158 -126 q -174 -162 -174 -142 l -174 -201 q -166 -230 -174 -222 q -139 -237 -158 -237 l -74 -237 l -74 -372 l -139 -372 q -166 -380 -158 -372 q -174 -408 -174 -387 l -174 -447 q -166 -476 -174 -468 q -139 -483 -158 -483 l 6 -483 l 6 -617 l -178 -617 q -322 -581 -276 -617 q -368 -461 -368 -544 l -368 -382 q -307 -308 -368 -315 l -307 -303 q -368 -229 -368 -294 l -368 -119 z "},"ॅ":{"ha":0,"x_min":-457,"x_max":136,"o":"m -457 1192 l -294 1192 l -294 1106 q -286 1075 -294 1083 q -254 1067 -278 1067 l -67 1067 q -35 1075 -43 1067 q -26 1106 -26 1083 l -26 1192 l 136 1192 l 136 1082 q 94 985 136 1017 q -44 953 53 953 l -276 953 q -415 985 -374 953 q -457 1082 -457 1017 l -457 1192 z "},"ॆ":{"ha":0,"x_min":-568,"x_max":-62,"o":"m -568 1167 l -375 1167 l -375 1144 q -366 1106 -375 1114 q -326 1097 -357 1097 l -185 1097 q -62 975 -62 1097 l -62 832 l -256 832 l -256 914 q -265 953 -256 944 q -304 963 -274 963 l -446 963 q -568 1085 -568 963 l -568 1167 z "},"े":{"ha":0,"x_min":-499,"x_max":-68,"o":"m -267 1158 l -68 875 l -256 875 q -414 1046 -326 932 l -499 1158 l -267 1158 z "},"ै":{"ha":0,"x_min":-604,"x_max":-69,"o":"m -604 1158 l -372 1158 l -312 1085 q -174 897 -221 974 l -167 897 q -283 1158 -196 947 l -103 1158 l -69 876 l -258 876 q -432 1008 -331 919 l -604 1158 z "},"ॉ":{"ha":318,"x_min":-137,"x_max":456,"o":"m 293 1192 l 456 1192 l 456 1082 q 414 985 456 1017 q 275 953 372 953 l 43 953 q -96 985 -54 953 q -137 1082 -137 1017 l -137 1192 l 25 1192 l 25 1106 q 33 1075 25 1083 q 65 1067 42 1067 l 253 1067 q 285 1075 276 1067 q 293 1106 293 1083 l 293 1192 m -28 749 l -28 883 l 346 883 l 346 749 l 256 749 l 256 0 l 63 0 l 63 749 l -28 749 z "},"ॊ":{"ha":318,"x_min":-250,"x_max":346,"o":"m 346 883 l 346 749 l 256 749 l 256 0 l 63 0 l 63 749 l -28 749 l -28 883 l 63 883 l 63 914 q 53 953 63 944 q 14 963 44 963 l -128 963 q -250 1085 -250 963 l -250 1167 l -57 1167 l -57 1144 q -48 1106 -57 1114 q -8 1097 -39 1097 l 133 1097 q 256 975 256 1097 l 256 883 l 346 883 z "},"ो":{"ha":318,"x_min":-176,"x_max":346,"o":"m 346 883 l 346 749 l 256 749 l 256 0 l 63 0 l 63 749 l -28 749 l -28 883 l 57 883 q -92 1046 -8 939 l -176 1158 l 56 1158 l 249 883 l 346 883 z "},"ौ":{"ha":318,"x_min":-281,"x_max":346,"o":"m 346 883 l 346 749 l 256 749 l 256 0 l 63 0 l 63 749 l -28 749 l -28 883 l 54 883 q -108 1008 -14 925 l -281 1158 l -49 1158 l 11 1085 q 150 897 103 974 l 157 897 q 40 1158 128 947 l 221 1158 l 253 883 l 346 883 z "},"्":{"ha":0,"x_min":-272,"x_max":89,"o":"m -79 -85 l 89 -285 l -104 -285 l -272 -85 l -79 -85 z "},"ॐ":{"ha":1182,"x_min":61,"x_max":1114,"o":"m 944 511 q 1075 475 1036 511 q 1114 365 1114 439 l 1114 147 q 1075 37 1114 74 q 944 0 1036 0 l 800 0 q 669 37 707 0 q 631 147 631 74 l 631 286 l 825 286 l 825 167 q 833 142 825 149 q 860 135 840 135 l 883 135 q 912 142 904 135 q 919 167 919 149 l 919 343 q 912 368 919 361 q 883 375 904 375 l 538 375 q 553 321 553 357 l 553 147 q 514 37 553 74 q 383 0 475 0 l 231 0 q 100 37 139 0 q 61 147 61 74 l 61 303 l 256 303 l 256 167 q 263 142 256 149 q 290 135 271 135 l 324 135 q 351 142 343 135 q 358 167 358 149 l 358 338 q 350 367 358 358 q 322 375 342 375 l 261 375 l 261 510 l 322 510 q 350 518 342 510 q 358 547 358 526 l 358 717 q 351 742 358 735 q 324 749 343 749 l 290 749 q 263 742 271 749 q 256 717 256 735 l 256 592 l 61 592 l 61 736 q 100 847 61 810 q 231 883 139 883 l 383 883 q 514 847 475 883 q 553 736 553 810 l 553 728 l 769 728 q 801 736 792 728 q 810 767 810 744 l 810 853 l 1001 853 l 1001 740 q 963 630 1001 667 q 832 593 924 593 l 553 593 l 553 565 q 538 511 553 526 l 944 511 m 742 953 l 742 799 l 594 799 l 594 953 l 742 953 z "},"क़":{"ha":892,"x_min":-28,"x_max":919,"o":"m 919 749 l 543 749 l 543 642 q 608 661 563 661 l 693 661 q 814 624 774 661 q 854 504 854 586 l 854 246 q 816 141 854 174 q 685 108 778 108 l 600 108 l 600 233 l 625 233 q 652 240 644 233 q 660 265 660 247 l 660 490 q 652 519 660 511 q 625 526 644 526 l 579 526 q 551 518 560 526 q 543 489 543 510 l 543 0 l 349 0 l 349 128 q 285 108 331 108 l 199 108 q 78 145 118 108 q 39 265 39 182 l 39 524 q 76 628 39 596 q 207 661 114 661 l 293 661 l 293 536 l 268 536 q 240 529 247 536 q 232 504 232 522 l 232 279 q 240 251 232 258 q 268 243 247 243 l 313 243 q 340 251 332 243 q 349 281 349 260 l 349 749 l -28 749 l -28 883 l 919 883 l 919 749 m 107 -149 l 107 13 l 256 13 l 256 -149 l 107 -149 z "},"ख़":{"ha":1149,"x_min":-28,"x_max":1176,"o":"m 1176 883 l 1176 749 l 1086 749 l 1086 0 l 894 0 l 894 146 q 828 125 875 125 l 746 125 q 626 162 665 125 q 586 282 586 199 l 586 518 q 624 623 586 590 q 756 656 663 656 l 842 656 l 842 531 l 814 531 q 787 524 794 531 q 779 499 779 517 l 779 296 q 787 267 779 275 q 814 260 794 260 l 856 260 q 894 300 894 260 l 894 749 l 517 749 q 526 714 526 738 l 526 471 q 487 360 526 393 q 354 326 447 326 l 253 326 l 253 182 q 263 146 253 156 q 299 136 272 136 l 629 136 l 629 0 l 267 0 q 108 34 157 0 q 58 144 58 68 l 58 656 l 253 656 l 253 461 l 286 461 q 322 471 313 461 q 332 507 332 481 l 332 703 q 323 740 332 731 q 286 749 314 749 l -28 749 l -28 883 l 1176 883 m 208 -233 l 208 -72 l 357 -72 l 357 -233 l 208 -233 z "},"ग़":{"ha":919,"x_min":-28,"x_max":947,"o":"m 947 883 l 947 749 l 857 749 l 857 0 l 664 0 l 664 749 l 542 749 l 542 265 q 499 144 542 181 q 353 108 457 108 l 232 108 q 85 144 128 108 q 42 265 42 181 l 42 492 q 91 602 42 568 q 250 636 140 636 l 349 636 l 349 749 l -28 749 l -28 883 l 947 883 m 274 243 l 311 243 q 340 251 331 243 q 349 279 349 258 l 349 501 l 279 501 q 244 494 253 501 q 236 458 236 486 l 236 279 q 244 251 236 258 q 274 243 253 243 m 215 -150 l 215 11 l 364 11 l 364 -150 l 215 -150 z "},"ज़":{"ha":913,"x_min":-28,"x_max":940,"o":"m 940 883 l 940 749 l 850 749 l 850 0 l 656 0 l 656 526 l 551 526 l 551 265 q 509 144 551 181 q 363 108 467 108 l 247 108 q 101 144 143 108 q 58 265 58 181 l 58 661 l 251 661 l 251 279 q 260 251 251 258 q 289 243 269 243 l 321 243 q 349 251 340 243 q 358 279 358 258 l 358 661 l 656 661 l 656 749 l -28 749 l -28 883 l 940 883 m 236 -149 l 236 13 l 385 13 l 385 -149 l 236 -149 z "},"ड़":{"ha":603,"x_min":-28,"x_max":631,"o":"m 513 536 l 288 536 q 260 529 268 536 q 253 504 253 522 l 253 453 q 260 426 253 433 q 288 419 268 419 l 371 419 q 501 388 464 419 q 539 283 539 356 l 539 138 q 501 33 539 65 q 371 0 464 0 l 217 0 q 85 33 124 0 q 47 138 47 65 l 47 224 l 242 224 l 242 157 q 271 125 242 125 l 310 125 q 338 132 331 125 q 346 157 346 139 l 346 263 q 338 289 346 282 q 310 296 331 296 l 228 296 q 96 328 133 296 q 58 432 58 360 l 58 524 q 96 628 58 596 q 228 661 133 661 l 319 661 l 319 749 l -28 749 l -28 883 l 631 883 l 631 749 l 513 749 l 513 536 m 218 -246 l 218 -85 l 367 -85 l 367 -246 l 218 -246 z "},"ढ़":{"ha":660,"x_min":-28,"x_max":688,"o":"m 553 526 l 293 526 q 265 519 274 526 q 256 490 256 511 l 256 171 q 265 142 256 150 q 293 135 274 135 l 376 135 q 405 142 396 135 q 414 171 414 150 l 414 243 q 405 272 414 264 q 376 279 396 279 l 317 279 l 317 414 l 418 414 q 565 378 522 414 q 608 257 608 342 l 608 157 q 565 36 608 72 q 418 0 522 0 l 251 0 q 105 36 147 0 q 63 157 63 72 l 63 524 q 100 628 63 596 q 231 661 138 661 l 360 661 l 360 749 l -28 749 l -28 883 l 688 883 l 688 749 l 553 749 l 553 526 m 261 -235 l 261 -74 l 410 -74 l 410 -235 l 261 -235 z "},"फ़":{"ha":913,"x_min":-28,"x_max":940,"o":"m 940 749 l 564 749 l 564 642 q 629 661 583 661 l 714 661 q 835 624 794 661 q 875 504 875 586 l 875 246 q 837 141 875 174 q 706 108 799 108 l 621 108 l 621 233 l 644 233 q 673 240 665 233 q 681 265 681 247 l 681 490 q 673 519 681 511 q 644 526 665 526 l 600 526 q 572 518 581 526 q 564 489 564 510 l 564 0 l 369 0 l 369 128 q 304 108 350 108 l 219 108 q 99 146 139 108 q 58 265 58 183 l 58 749 l -28 749 l -28 883 l 940 883 l 940 749 m 369 281 l 369 749 l 253 749 l 253 279 q 260 251 253 258 q 289 243 268 243 l 333 243 q 361 251 353 243 q 369 281 369 260 m 125 -161 l 125 0 l 274 0 l 274 -161 l 125 -161 z "},"य़":{"ha":789,"x_min":-36,"x_max":817,"o":"m 817 883 l 817 749 l 728 749 l 728 0 l 533 0 l 533 128 q 472 108 514 108 l 243 108 q 99 145 144 108 q 54 265 54 182 l 54 538 l 208 538 q 235 544 228 538 q 243 569 243 551 l 243 703 q 233 740 243 731 q 192 749 224 749 l -36 749 l -36 883 l 817 883 m 533 290 l 533 749 l 414 749 q 431 694 431 731 l 431 549 q 394 439 431 475 q 265 403 358 403 l 247 403 l 247 279 q 255 251 247 258 q 283 243 263 243 l 486 243 q 524 253 514 243 q 533 290 533 264 m 263 -158 l 263 3 l 411 3 l 411 -158 l 263 -158 z "},"ॠ":{"ha":1265,"x_min":-28,"x_max":1307,"o":"m 656 749 l 656 383 l 768 383 q 753 432 753 403 l 753 506 q 795 625 753 589 q 942 661 838 661 l 1039 661 q 1185 625 1143 661 q 1228 506 1228 589 l 1228 417 q 1185 297 1228 332 q 1039 261 1143 261 l 981 261 q 954 253 961 260 q 947 225 947 246 l 947 186 q 955 158 947 165 q 982 150 963 150 l 1044 150 l 1044 15 l 982 15 q 955 8 963 15 q 947 -21 947 0 l 947 -60 q 955 -88 947 -81 q 982 -96 963 -96 l 1122 -96 l 1122 -231 l 942 -231 q 798 -194 843 -231 q 753 -74 753 -157 l 753 6 q 814 79 753 72 l 814 85 q 753 158 753 92 l 753 224 q 764 261 753 246 l 656 261 l 656 0 l 463 0 l 463 261 l 432 261 l 274 0 l 53 0 l 250 326 l 175 451 q 130 506 150 492 q 71 521 110 521 l 42 521 l 42 656 l 157 656 q 265 635 228 656 q 333 563 301 615 l 446 383 l 463 383 l 463 749 l -28 749 l -28 883 l 1307 883 l 1307 749 l 656 749 m 947 506 l 947 415 q 955 390 947 397 q 981 383 963 383 l 1000 383 q 1035 415 1035 383 l 1035 506 q 1000 539 1035 539 l 981 539 q 954 532 961 539 q 947 506 947 525 z "},"ॡ":{"ha":922,"x_min":-28,"x_max":950,"o":"m 864 157 l 788 157 q 760 149 768 157 q 753 121 753 142 l 753 83 q 760 55 753 63 q 788 47 768 47 l 853 47 l 853 -87 l 788 -87 q 760 -95 768 -87 q 753 -124 753 -103 l 753 -162 q 760 -191 753 -183 q 788 -199 768 -199 l 931 -199 l 931 -333 l 747 -333 q 603 -297 649 -333 q 558 -176 558 -260 l 558 -97 q 619 -24 558 -32 l 619 -18 q 558 56 558 -11 l 558 165 q 669 289 558 275 l 669 526 l 593 526 q 565 518 572 526 q 558 490 558 510 l 558 310 l 364 310 l 364 490 q 357 518 364 510 q 329 526 350 526 l 288 526 q 259 519 267 526 q 251 490 251 511 l 251 168 q 259 143 251 150 q 288 136 267 136 l 324 136 l 324 0 l 226 0 q 96 33 133 0 q 58 138 58 65 l 58 504 q 98 624 58 588 q 218 661 138 661 l 385 661 q 460 600 451 661 l 465 600 q 539 661 472 661 l 669 661 l 669 749 l -28 749 l -28 883 l 950 883 l 950 749 l 864 749 l 864 157 z "},"।":{"ha":533,"x_min":171,"x_max":363,"o":"m 363 928 l 363 -44 l 171 -44 l 171 928 l 363 928 z "},"॥":{"ha":836,"x_min":171,"x_max":665,"o":"m 665 928 l 665 -44 l 474 -44 l 474 928 l 665 928 m 363 928 l 363 -44 l 171 -44 l 171 928 l 363 928 z "},"०":{"ha":638,"x_min":57,"x_max":581,"o":"m 382 181 l 382 703 q 344 738 382 738 l 293 738 q 256 703 256 738 l 256 181 q 293 146 256 146 l 344 146 q 382 181 382 146 m 581 731 l 581 154 q 406 0 581 0 l 233 0 q 57 154 57 0 l 57 731 q 233 883 57 883 l 406 883 q 581 731 581 883 z "},"१":{"ha":401,"x_min":26,"x_max":340,"o":"m 340 883 l 340 0 l 142 0 l 142 738 l 26 738 l 26 883 l 340 883 z "},"२":{"ha":576,"x_min":33,"x_max":539,"o":"m 232 703 l 232 586 l 33 586 l 33 731 q 208 883 33 883 l 358 883 q 536 731 536 883 l 536 618 q 517 508 536 554 q 457 406 499 461 l 279 146 l 539 146 l 539 0 l 38 0 l 38 135 l 282 463 q 328 539 317 506 q 340 621 340 572 l 340 703 q 303 738 340 738 l 268 738 q 232 703 232 738 z "},"३":{"ha":599,"x_min":38,"x_max":543,"o":"m 235 703 l 235 599 l 38 599 l 38 731 q 213 883 38 883 l 367 883 q 543 731 543 883 l 543 579 q 481 450 543 476 q 543 331 543 426 l 543 154 q 367 0 543 0 l 213 0 q 38 154 38 0 l 38 283 l 235 283 l 235 181 q 272 146 235 146 l 310 146 q 347 181 347 146 l 347 344 q 339 372 347 364 q 310 379 331 379 l 201 379 l 201 517 l 310 517 q 339 524 331 517 q 347 550 347 532 l 347 703 q 310 738 347 738 l 272 738 q 235 703 235 738 z "},"४":{"ha":628,"x_min":13,"x_max":628,"o":"m 628 313 l 628 165 l 540 165 l 540 0 l 353 0 l 353 165 l 13 165 l 13 338 l 314 883 l 514 883 l 190 313 l 353 313 l 353 486 l 540 486 l 540 313 l 628 313 z "},"५":{"ha":618,"x_min":56,"x_max":574,"o":"m 260 571 l 397 571 q 574 418 574 571 l 574 154 q 397 0 574 0 l 232 0 q 56 154 56 0 l 56 299 l 254 299 l 254 181 q 292 146 254 146 l 340 146 q 378 181 378 146 l 378 390 q 340 425 378 425 l 64 425 l 64 883 l 564 883 l 564 738 l 260 738 l 260 571 z "},"६":{"ha":626,"x_min":57,"x_max":579,"o":"m 251 521 l 403 521 q 579 368 579 521 l 579 154 q 403 0 579 0 l 233 0 q 57 154 57 0 l 57 731 q 233 883 57 883 l 393 883 q 569 731 569 883 l 569 611 l 375 611 l 375 703 q 338 738 375 738 l 288 738 q 251 703 251 738 l 251 521 m 385 181 l 385 346 q 347 381 385 381 l 251 381 l 251 181 q 288 146 251 146 l 347 146 q 385 181 385 146 z "},"७":{"ha":517,"x_min":13,"x_max":510,"o":"m 510 883 l 510 772 l 253 0 l 49 0 l 299 728 l 13 728 l 13 883 l 510 883 z "},"८":{"ha":635,"x_min":56,"x_max":579,"o":"m 579 731 l 579 578 q 517 449 579 475 q 579 328 579 424 l 579 154 q 404 0 579 0 l 231 0 q 56 154 56 0 l 56 328 q 117 449 56 424 q 56 578 56 475 l 56 731 q 231 883 56 883 l 404 883 q 579 731 579 883 m 389 179 l 389 349 q 381 376 389 368 q 351 383 372 383 l 283 383 q 254 376 263 383 q 246 349 246 368 l 246 179 q 254 152 246 160 q 283 144 263 144 l 351 144 q 381 152 372 144 q 389 179 389 160 m 389 544 l 389 706 q 381 731 389 724 q 351 739 372 739 l 283 739 q 254 731 263 739 q 246 706 246 724 l 246 544 q 254 519 246 526 q 283 511 263 511 l 351 511 q 381 519 372 511 q 389 544 389 526 z "},"९":{"ha":625,"x_min":46,"x_max":568,"o":"m 222 883 l 392 883 q 568 731 568 883 l 568 154 q 392 0 568 0 l 231 0 q 54 154 54 0 l 54 268 l 247 268 l 247 181 q 285 146 247 146 l 338 146 q 374 181 374 146 l 374 349 l 222 349 q 46 501 46 349 l 46 731 q 222 883 46 883 m 278 485 l 374 485 l 374 703 q 338 738 374 738 l 278 738 q 240 703 240 738 l 240 519 q 249 492 240 500 q 278 485 257 485 z "},"॰":{"ha":533,"x_min":74,"x_max":460,"o":"m 214 438 q 265 354 214 354 q 319 438 319 354 q 306 502 319 483 q 266 521 293 521 q 226 502 239 521 q 214 438 214 483 m 125 291 q 99 316 125 291 q 74 438 74 342 q 125 584 74 533 q 266 635 176 635 q 408 584 356 635 q 460 438 460 533 q 408 291 460 342 q 266 240 356 240 q 125 291 176 240 z "},"ॲ":{"ha":888,"x_min":63,"x_max":1075,"o":"m 913 1192 l 1075 1192 l 1075 1082 q 1033 985 1075 1017 q 894 953 992 953 l 663 953 q 524 985 565 953 q 482 1082 482 1017 l 482 1192 l 644 1192 l 644 1106 q 653 1075 644 1083 q 685 1067 661 1067 l 872 1067 q 904 1075 896 1067 q 913 1106 913 1083 l 913 1192 m 946 883 l 946 749 l 857 749 l 857 0 l 663 0 l 663 368 l 553 368 l 553 256 q 515 145 553 182 q 385 108 476 108 l 231 108 q 101 145 139 108 q 63 256 63 182 l 63 375 l 256 375 l 256 275 q 292 243 256 243 l 324 243 q 352 250 344 243 q 360 275 360 257 l 360 393 q 351 422 360 414 q 322 431 343 431 l 263 431 l 263 564 l 322 564 q 351 572 343 564 q 360 601 360 581 l 360 721 q 352 747 360 740 q 324 754 344 754 l 292 754 q 264 747 272 754 q 256 721 256 740 l 256 632 l 63 632 l 63 742 q 101 852 63 815 q 231 889 139 889 l 385 889 q 515 852 476 889 q 553 742 553 815 l 553 575 q 506 503 553 515 l 663 503 l 663 883 l 946 883 z "},"​":{"ha":0,"x_min":0,"x_max":0,"o":""},"‌":{"ha":0,"x_min":-32,"x_max":33,"o":"m 33 -319 l -32 -319 l -32 1126 l 33 1126 l 33 -319 z "},"‍":{"ha":0,"x_min":-176,"x_max":179,"o":"m 33 -319 l -32 -319 l -32 882 l -128 781 l -174 826 l -44 956 l -176 1088 l -131 1133 l 1 1001 l 135 1133 l 179 1089 l 46 956 l 179 824 l 133 778 l 33 882 l 33 -319 z "},"–":{"ha":744,"x_min":53,"x_max":589,"o":"m 53 347 l 53 483 l 589 483 l 589 347 l 53 347 z "},"—":{"ha":928,"x_min":44,"x_max":875,"o":"m 44 347 l 44 483 l 875 483 l 875 347 l 44 347 z "},"‘":{"ha":306,"x_min":51,"x_max":254,"o":"m 254 475 l 51 475 l 51 588 l 197 883 l 254 883 l 254 475 z "},"’":{"ha":306,"x_min":51,"x_max":254,"o":"m 51 883 l 254 883 l 254 772 l 108 475 l 51 475 l 51 883 z "},"‚":{"ha":304,"x_min":51,"x_max":253,"o":"m 51 206 l 253 206 l 253 94 l 114 -201 l 51 -201 l 51 206 z "},"“":{"ha":565,"x_min":51,"x_max":514,"o":"m 253 475 l 51 475 l 51 588 l 197 883 l 253 883 l 253 475 m 514 475 l 313 475 l 313 588 l 458 883 l 514 883 l 514 475 z "},"”":{"ha":565,"x_min":51,"x_max":514,"o":"m 313 883 l 514 883 l 514 772 l 368 475 l 313 475 l 313 883 m 51 883 l 253 883 l 253 772 l 107 475 l 51 475 l 51 883 z "},"„":{"ha":565,"x_min":51,"x_max":514,"o":"m 313 206 l 514 206 l 514 94 l 368 -201 l 313 -201 l 313 206 m 51 206 l 253 206 l 253 94 l 107 -201 l 51 -201 l 51 206 z "},"†":{"ha":582,"x_min":13,"x_max":571,"o":"m 571 667 l 571 531 l 390 531 l 390 -151 l 192 -151 l 192 531 l 13 531 l 13 667 l 192 667 l 192 883 l 390 883 l 390 667 l 571 667 z "},"‡":{"ha":619,"x_min":31,"x_max":589,"o":"m 589 531 l 408 531 l 408 154 l 589 154 l 589 18 l 408 18 l 408 -199 l 210 -199 l 210 18 l 31 18 l 31 154 l 210 154 l 210 531 l 31 531 l 31 667 l 210 667 l 210 883 l 408 883 l 408 667 l 589 667 l 589 531 z "},"•":{"ha":550,"x_min":78,"x_max":472,"o":"m 136 306 q 107 335 136 306 q 78 446 78 364 q 136 585 78 528 q 275 643 194 643 q 414 585 356 643 q 472 446 472 528 q 414 306 472 364 q 275 249 356 249 q 136 306 194 249 z "},"…":{"ha":940,"x_min":63,"x_max":904,"o":"m 699 0 l 699 204 l 904 204 l 904 0 l 699 0 m 381 0 l 381 204 l 586 204 l 586 0 l 381 0 m 63 0 l 63 204 l 268 204 l 268 0 l 63 0 z "},"‰":{"ha":1576,"x_min":38,"x_max":1540,"o":"m 1379 150 l 1379 358 q 1373 382 1379 375 q 1349 389 1367 389 l 1324 389 q 1299 382 1306 389 q 1292 358 1292 375 l 1292 150 q 1299 127 1292 133 q 1324 121 1306 121 l 1349 121 q 1373 127 1367 121 q 1379 150 1379 133 m 1540 382 l 1540 126 q 1397 0 1540 0 l 1274 0 q 1132 126 1132 0 l 1132 382 q 1274 508 1132 508 l 1397 508 q 1540 382 1540 508 m 715 883 l 864 883 l 397 0 l 251 0 l 715 883 m 915 150 l 915 358 q 883 389 915 389 l 858 389 q 834 382 840 389 q 828 358 828 375 l 828 150 q 834 127 828 133 q 858 121 840 121 l 883 121 q 908 127 901 121 q 915 150 915 133 m 285 525 l 285 733 q 278 757 285 750 q 254 764 272 764 l 228 764 q 203 757 210 764 q 197 733 197 750 l 197 525 q 203 502 197 508 q 228 496 210 496 l 254 496 q 278 502 272 496 q 285 525 285 508 m 1075 382 l 1075 126 q 932 0 1075 0 l 810 0 q 667 126 667 0 l 667 382 q 810 508 667 508 l 932 508 q 1075 382 1075 508 m 444 757 l 444 501 q 303 375 444 375 l 179 375 q 38 501 38 375 l 38 757 q 179 883 38 883 l 303 883 q 444 757 444 883 z "},"‹":{"ha":410,"x_min":32,"x_max":386,"o":"m 190 138 l 32 351 l 190 563 l 386 563 l 231 351 l 386 138 l 190 138 z "},"›":{"ha":411,"x_min":32,"x_max":386,"o":"m 386 351 l 229 138 l 32 138 l 189 351 l 32 563 l 229 563 l 386 351 z "},"⁄":{"ha":560,"x_min":-17,"x_max":561,"o":"m 393 974 l 561 974 l 153 -115 l -17 -115 l 393 974 z "},"€":{"ha":656,"x_min":25,"x_max":614,"o":"m 614 574 l 415 574 l 415 713 q 378 747 415 747 l 321 747 q 283 713 283 747 l 283 588 l 381 588 l 381 469 l 283 469 l 283 414 l 381 414 l 381 297 l 283 297 l 283 171 q 292 144 283 151 q 321 136 300 136 l 378 136 q 407 144 399 136 q 415 171 415 151 l 415 306 l 614 306 l 614 153 q 439 0 614 0 l 261 0 q 85 153 85 0 l 85 297 l 25 297 l 25 414 l 85 414 l 85 469 l 25 469 l 25 588 l 85 588 l 85 731 q 261 883 85 883 l 439 883 q 614 731 614 883 l 614 574 z "},"₹":{"ha":586,"x_min":56,"x_max":526,"o":"m 526 883 l 526 763 l 422 763 q 433 693 433 742 l 433 667 l 526 667 l 526 546 l 433 546 l 433 472 q 394 355 433 392 q 260 315 354 318 l 461 0 l 256 0 l 56 315 l 56 450 l 204 450 q 231 458 224 450 q 239 486 239 465 l 239 546 l 56 546 l 56 667 l 239 667 l 239 728 q 231 755 239 747 q 203 763 222 763 l 56 763 l 56 883 l 526 883 z "},"™":{"ha":960,"x_min":13,"x_max":918,"o":"m 918 883 l 918 426 l 790 426 l 790 675 l 731 493 l 622 493 l 563 674 l 563 426 l 435 426 l 435 883 l 588 883 l 676 626 l 765 883 l 918 883 m 13 767 l 13 883 l 393 883 l 393 767 l 275 767 l 275 426 l 129 426 l 129 767 l 13 767 z "},"Ω":{"ha":671,"x_min":19,"x_max":651,"o":"m 651 146 l 651 0 l 368 0 l 368 146 l 379 146 q 407 190 407 146 l 407 703 q 369 738 407 738 l 303 738 q 265 703 265 738 l 265 190 q 293 146 265 146 l 303 146 l 303 0 l 19 0 l 19 146 l 114 146 q 67 254 67 178 l 67 731 q 243 883 67 883 l 429 883 q 604 731 604 883 l 604 254 q 558 146 604 178 l 651 146 z "},"∏":{"ha":694,"x_min":4,"x_max":632,"o":"m 86 883 l 632 883 l 632 0 l 433 0 l 433 747 l 279 747 l 279 154 q 104 0 279 0 l 4 0 l 4 149 l 49 149 q 78 156 69 149 q 86 182 86 164 l 86 883 z "},"−":{"ha":806,"x_min":25,"x_max":632,"o":"m 25 367 l 25 514 l 632 514 l 632 367 l 25 367 z "},"∕":{"ha":560,"x_min":-17,"x_max":561,"o":"m 393 974 l 561 974 l 153 -115 l -17 -115 l 393 974 z "},"∙":{"ha":304,"x_min":51,"x_max":253,"o":"m 51 339 l 51 544 l 253 544 l 253 339 l 51 339 z "},"∞":{"ha":835,"x_min":8,"x_max":825,"o":"m 581 718 l 650 718 q 825 567 825 718 l 825 400 q 650 247 825 247 l 603 247 q 506 267 540 247 q 417 361 469 286 q 343 268 381 289 q 229 247 306 247 l 183 247 q 8 400 8 247 l 8 567 q 183 718 8 718 l 236 718 q 325 694 293 718 q 410 593 363 667 l 422 613 q 490 699 463 679 q 581 718 517 718 m 194 372 l 238 372 q 303 413 279 372 l 343 479 l 303 540 q 229 593 267 593 l 194 593 q 161 583 168 593 q 154 547 154 574 l 154 418 q 161 381 154 390 q 194 372 168 372 m 681 418 l 681 549 q 673 585 681 575 q 639 594 665 594 l 581 594 q 531 556 553 594 l 485 476 l 524 419 q 590 372 556 372 l 639 372 q 673 381 665 372 q 681 418 681 390 z "},"∫":{"ha":571,"x_min":90,"x_max":500,"o":"m 392 -39 q 215 -192 392 -192 l 90 -192 l 90 -44 l 161 -44 q 188 -37 181 -44 q 197 -10 194 -29 l 197 822 q 374 976 197 976 l 500 976 l 500 828 l 429 828 q 392 793 393 828 l 392 -39 z "},"≈":{"ha":744,"x_min":46,"x_max":699,"o":"m 482 225 q 360 270 422 225 q 269 315 297 315 q 232 305 240 315 q 224 269 224 294 l 224 225 l 46 225 l 46 314 q 78 412 46 381 q 186 443 111 443 l 263 443 q 354 420 314 443 q 426 375 394 397 q 481 353 457 353 q 513 363 506 353 q 521 399 521 374 l 521 442 l 699 442 l 699 354 q 666 256 699 288 q 558 225 633 225 l 482 225 m 482 486 q 360 531 422 486 q 268 576 297 576 q 231 566 239 576 q 224 531 224 556 l 224 488 l 46 488 l 46 575 q 78 673 46 642 q 186 704 111 704 l 263 704 q 354 681 314 704 q 426 636 394 658 q 481 614 457 614 q 513 624 506 614 q 521 660 521 635 l 521 704 l 699 704 l 699 615 q 666 517 699 549 q 558 486 633 486 l 482 486 z "},"≠":{"ha":715,"x_min":46,"x_max":671,"o":"m 671 588 l 671 297 l 347 297 l 260 132 l 131 132 l 218 297 l 46 297 l 46 588 l 371 588 l 457 750 l 585 750 l 499 588 l 671 588 z "},"≤":{"ha":699,"x_min":42,"x_max":650,"o":"m 650 318 l 650 181 l 42 181 l 42 318 l 650 318 m 650 631 l 190 565 l 650 497 l 650 346 l 42 485 l 42 651 l 650 779 l 650 631 z "},"≥":{"ha":699,"x_min":46,"x_max":654,"o":"m 46 181 l 46 318 l 654 318 l 654 181 l 46 181 m 506 565 l 46 631 l 46 779 l 654 651 l 654 485 l 46 346 l 46 497 l 506 565 z "},"◊":{"ha":865,"x_min":85,"x_max":767,"o":"m 518 883 l 767 443 l 518 1 l 326 1 l 85 443 l 326 883 l 518 883 m 422 151 l 574 443 l 422 733 l 278 443 l 422 151 z "},"◌":{"ha":581,"x_min":99,"x_max":479,"o":"m 243 210 l 335 210 l 335 108 l 243 108 l 243 210 m 243 674 l 335 674 l 335 572 l 243 572 l 243 674 m 388 572 l 388 674 q 479 572 479 674 l 388 572 m 388 519 l 479 519 l 479 418 l 388 418 l 388 519 m 388 364 l 479 364 l 479 263 l 388 263 l 388 364 m 388 210 l 479 210 q 454 138 479 168 q 388 108 429 108 l 388 210 m 190 572 l 99 572 q 124 647 99 619 q 190 674 149 674 l 190 572 m 99 519 l 190 519 l 190 418 l 99 418 l 99 519 m 99 364 l 190 364 l 190 263 l 99 263 l 99 364 m 190 210 l 190 108 q 124 136 150 108 q 99 210 99 164 l 190 210 z "},"":{"ha":653,"x_min":228,"x_max":424,"o":"m 228 -67 l 424 -67 l 424 -167 l 290 -379 l 228 -379 l 228 -67 z "},"ﬁ":{"ha":638,"x_min":13,"x_max":581,"o":"m 389 929 l 581 929 l 581 788 l 389 788 l 389 929 m 581 688 l 581 0 l 389 0 l 389 542 l 272 542 l 272 0 l 82 0 l 82 542 l 13 542 l 13 688 l 82 688 l 82 776 q 257 929 82 929 l 335 929 l 335 788 l 310 788 q 281 780 289 788 q 272 754 272 772 l 272 688 l 581 688 z "},"ﬂ":{"ha":638,"x_min":13,"x_max":581,"o":"m 390 929 l 581 929 l 581 0 l 390 0 l 390 542 l 272 542 l 272 0 l 82 0 l 82 542 l 13 542 l 13 688 l 82 688 l 82 776 q 257 929 82 929 l 335 929 l 335 788 l 310 788 q 281 780 289 788 q 272 754 272 772 l 272 688 l 390 688 l 390 929 z "}}}
